<?xml version="1.0" encoding="utf-8"?>
<!-- Generator: Adobe Illustrator 27.0.0, SVG Export Plug-In . SVG Version: 6.00 Build 0)  -->
<svg version="1.1" id="Layer_2_00000053533203731878018950000008059747269698221992_"
	 xmlns="http://www.w3.org/2000/svg" xmlns:xlink="http://www.w3.org/1999/xlink" x="0px" y="0px" viewBox="0 0 1693.2 1361.3"
	 style="enable-background:new 0 0 1693.2 1361.3;" xml:space="preserve">
<style type="text/css">
	.st0{fill:#E5544D;}
	.st1{fill:#F0C43B;}
	.st2{fill:#3FBFA8;}
	.st3{fill:#F2F2F2;}
	.st4{fill:url(#SVGID_1_);}
	.st5{fill:url(#SVGID_00000042016655418233339580000014300234323914912949_);}
	.st6{fill:#E74C3C;}
	.st7{fill:url(#SVGID_00000018933257366614827040000017270783793619685538_);}
	.st8{fill:url(#SVGID_00000080913907927773751120000011824779454809936267_);}
	.st9{fill:url(#SVGID_00000157295858404573202450000001225340795222653629_);}
	.st10{fill:url(#SVGID_00000042721979633475620030000005996756206247095955_);}
	.st11{fill:url(#SVGID_00000116948613166206862550000015132407280573792954_);}
	.st12{fill:url(#SVGID_00000068676179126115035320000012563945964322109375_);}
	.st13{fill:url(#SVGID_00000129169762813459548530000014537025343098784441_);}
	.st14{fill:url(#SVGID_00000175290462396107635630000015158798497984541867_);}
	.st15{enable-background:new    ;}
	.st16{fill:#4D4D4D;}
</style>
<g>
	<g>
		<g>
			<path class="st0" d="M1181.5,517.6L599.1,657.4l-0.2-0.1l0.1-0.2L1033.5,245l0.2,0.1C1108.7,324.3,1158,418.5,1181.5,517.6
				L1181.5,517.6z"/>
			<path class="st1" d="M1173.2,827.7L599.1,657.4l582.4-139.8C1206,619.6,1203.2,727.1,1173.2,827.7z"/>
			<path class="st2" d="M1011.1,1092l-412-434.5l574.1,170.3C1144.3,925.5,1090.3,1017,1011.1,1092L1011.1,1092z"/>
			<path class="st3" d="M1011.1,1092c-79.3,75.2-173.5,124.5-272.6,148L599.1,657.5L1011.1,1092z"/>
			<path class="st3" d="M738.5,1240c-102.2,24.3-209.3,21.5-309.9-8.6l170.1-573.9l0.1-0.2l0.2,0.1L738.5,1240L738.5,1240z"/>
			<path class="st3" d="M428.6,1231.4c-97.7-28.8-189.3-82.9-264.3-162l434.4-411.8L428.6,1231.4L428.6,1231.4z"/>
			<path class="st3" d="M598.7,657.5l-434.4,411.9C89.3,990.2,40.1,896,16.4,797.2L598.7,657.5L598.7,657.5z"/>
			<path class="st3" d="M598.9,657.3l-0.1,0.2L16.4,797.1C-7.9,694.9-5.3,587.6,24.7,487L598.9,657.3L598.9,657.3z"/>
			<path class="st3" d="M598.9,657.3L24.7,487.1c28.8-97.7,82.9-189.3,162.1-264.3L598.9,657.3z"/>
			<path class="st3" d="M599,657.1l-0.1,0.2L186.8,222.8C266.1,147.6,360.3,98.3,459.3,75L599,657.1L599,657.1z"/>
			<path class="st3" d="M599,657.1L459.3,75c102-24.5,209.1-21.6,309.9,8.2L599,657.1L599,657.1z"/>
			<path class="st3" d="M1033.5,245L599,657.1L769.1,83.2C866.8,111.7,958.3,165.7,1033.5,245L1033.5,245z"/>
		</g>
		<g>
			
				<linearGradient id="SVGID_1_" gradientUnits="userSpaceOnUse" x1="-226.1271" y1="-731.4366" x2="716.9129" y2="206.6733" gradientTransform="matrix(0.8525 0.5228 -0.5228 0.8525 214.363 594.8182)">
				<stop  offset="0" style="stop-color:#E6E6E6"/>
				<stop  offset="1" style="stop-color:#FFFFFF"/>
			</linearGradient>
			<circle class="st4" cx="599" cy="657.3" r="546.8"/>
			
				<linearGradient id="SVGID_00000147207297831787406930000011709673687908793532_" gradientUnits="userSpaceOnUse" x1="-29.9754" y1="-65.6734" x2="751.124" y2="715.4257" gradientTransform="matrix(0.8525 0.5228 0.5228 -0.8525 121.7469 745.8573)">
				<stop  offset="0" style="stop-color:#FFFFFF"/>
				<stop  offset="1" style="stop-color:#D1D1D1"/>
			</linearGradient>
			<path style="fill:url(#SVGID_00000147207297831787406930000011709673687908793532_);" d="M310.2,1128.1
				c-63.6-39-117.6-89.2-160.6-149.4c-41.5-58.1-71-122.9-87.8-192.7s-19.7-140.8-9-211.4c11-73.1,36.4-142.4,75.4-205.9
				s89.2-117.6,149.4-160.6c58.1-41.5,122.9-71,192.7-87.8c69.8-16.7,140.9-19.8,211.5-9.1c73.1,11,142.4,36.4,205.9,75.4
				s117.6,89.2,160.6,149.4c41.5,58.1,71,122.9,87.8,192.7s19.8,140.9,9.1,211.5c-11,73.1-36.4,142.4-75.4,205.9
				c-39,63.6-89.2,117.6-149.4,160.6c-58.1,41.5-122.9,71-192.7,87.8c-69.8,16.7-140.9,19.8-211.5,9.1
				C443.1,1192.5,373.8,1167.1,310.2,1128.1L310.2,1128.1z M882,195.8c-254.5-156.1-588.5-76-744.6,178.5s-76,588.5,178.5,744.6
				s588.5,76,744.6-178.5S1136.5,351.9,882,195.8L882,195.8z"/>
		</g>
	</g>
	<polygon class="st2" points="1211,1111.1 1159.1,1025.9 1260.1,1036.4 	"/>
	<polygon class="st1" points="1330.7,733.8 1239,694.5 1327.3,644.5 	"/>
	<polygon class="st6" points="1272.5,326.8 1173.2,336.5 1226.4,250.1 	"/>
	<ellipse class="st2" cx="1369.8" cy="1165.3" rx="196" ry="196"/>
	<circle class="st1" cx="1497.2" cy="676.3" r="196"/>
	<circle class="st0" cx="1390.5" cy="196" r="196"/>
	<g>
		
			<linearGradient id="SVGID_00000082337232468253653630000011330617649225680546_" gradientUnits="userSpaceOnUse" x1="989.7971" y1="856.4011" x2="1275.3153" y2="856.4011" gradientTransform="matrix(0.6095 0.7928 -0.7928 0.6095 1358.4296 -254.617)">
			<stop  offset="0" style="stop-color:#E6E6E6"/>
			<stop  offset="1" style="stop-color:#FFFFFF"/>
		</linearGradient>
		<path style="fill:url(#SVGID_00000082337232468253653630000011330617649225680546_);" d="M1256.6,1252.3L1256.6,1252.3
			c-48-62.5-36.3-152.1,26.1-200.2l0,0c62.5-48,152.1-36.3,200.2,26.1l0,0c48,62.5,36.3,152.1-26.1,200.2l0,0
			C1394.3,1326.5,1304.7,1314.8,1256.6,1252.3z"/>
		
			<linearGradient id="SVGID_00000108280687478695132980000005765902383001460627_" gradientUnits="userSpaceOnUse" x1="1026.6375" y1="-50.5295" x2="1318.2893" y2="-50.5295" gradientTransform="matrix(0.9243 0.3818 0.3818 -0.9243 305.2508 670.9568)">
			<stop  offset="0" style="stop-color:#FFFFFF"/>
			<stop  offset="1" style="stop-color:#D1D1D1"/>
		</linearGradient>
		<path style="fill:url(#SVGID_00000108280687478695132980000005765902383001460627_);" d="M1313.8,1300.1
			c-23.4-9.7-43.9-25.3-59.7-45.9c-23.7-30.9-34.1-69.2-29-107.8c5.1-38.6,24.8-73,55.7-96.7s69.2-34,107.8-29
			c38.6,5.1,73,24.8,96.7,55.7c49,63.8,37,155.5-26.7,204.5c-30.9,23.7-69.2,34.1-107.8,29C1338,1308.3,1325.6,1305,1313.8,1300.1
			L1313.8,1300.1z M1423.3,1036.3c-11.2-4.6-23.1-7.8-35.4-9.4c-37-4.8-73.6,5-103.2,27.8c-61,46.9-72.5,134.7-25.6,195.8
			c22.7,29.6,55.6,48.5,92.6,53.3s73.6-5,103.2-27.8c29.6-22.7,48.5-55.6,53.3-92.6s-5-73.6-27.8-103.2
			C1465.3,1060.6,1445.7,1045.6,1423.3,1036.3L1423.3,1036.3z"/>
	</g>
	<g>
		
			<linearGradient id="SVGID_00000129897233660964458730000011003586947043361956_" gradientUnits="userSpaceOnUse" x1="1088.4634" y1="214.0488" x2="1373.881" y2="214.0488" gradientTransform="matrix(0.9243 0.3818 -0.3818 0.9243 313.569 497.3932)">
			<stop  offset="0" style="stop-color:#E6E6E6"/>
			<stop  offset="1" style="stop-color:#FFFFFF"/>
		</linearGradient>
		<path style="fill:url(#SVGID_00000129897233660964458730000011003586947043361956_);" d="M1424.3,1033.4L1424.3,1033.4
			c72.9,30.1,107.5,113.6,77.4,186.4l0,0c-30.1,72.9-113.6,107.5-186.4,77.4l0,0c-72.9-30.1-107.5-113.6-77.4-186.4l0,0
			C1268,1038,1351.4,1003.3,1424.3,1033.4z"/>
		
			<linearGradient id="SVGID_00000045589547444335130260000017142980123175073954_" gradientUnits="userSpaceOnUse" x1="1026.7532" y1="-50.4646" x2="1318.4473" y2="-50.4646" gradientTransform="matrix(0.9243 0.3818 0.3818 -0.9243 305.2508 670.9568)">
			<stop  offset="0" style="stop-color:#FFFFFF"/>
			<stop  offset="1" style="stop-color:#D1D1D1"/>
		</linearGradient>
		<path style="fill:url(#SVGID_00000045589547444335130260000017142980123175073954_);" d="M1314.1,1300.1
			c-74.3-30.7-109.8-116.2-79.1-190.5c30.7-74.3,116.2-109.8,190.5-79.1s109.8,116.2,79.1,190.5c-14.9,36-42.9,64.1-78.9,79
			S1350.1,1315,1314.1,1300.1z M1423.1,1036.3c-71.1-29.4-152.9,4.6-182.3,75.7s4.6,152.9,75.7,182.3c34.5,14.2,72.4,14.2,106.9-0.1
			c34.4-14.3,61.2-41.2,75.5-75.6C1528.2,1147.5,1494.2,1065.7,1423.1,1036.3z"/>
	</g>
	<g>
		
			<linearGradient id="SVGID_00000013911187062132672440000010158623413467886993_" gradientUnits="userSpaceOnUse" x1="1198.858" y1="-193.4432" x2="1484.3102" y2="-193.4432" gradientTransform="matrix(0.8922 0.4517 -0.4517 0.8922 212.8281 242.8464)">
			<stop  offset="0" style="stop-color:#E6E6E6"/>
			<stop  offset="1" style="stop-color:#FFFFFF"/>
		</linearGradient>
		<path style="fill:url(#SVGID_00000013911187062132672440000010158623413467886993_);" d="M1561.6,548.9L1561.6,548.9
			c70.3,35.6,98.5,121.5,62.9,191.8l0,0c-35.6,70.3-121.5,98.5-191.8,62.9l0,0c-70.3-35.6-98.5-121.5-62.9-191.8l0,0
			C1405.4,541.5,1491.3,513.3,1561.6,548.9z"/>
		
			<linearGradient id="SVGID_00000061466545944520854890000002280881609305729176_" gradientUnits="userSpaceOnUse" x1="1132.2469" y1="375.8583" x2="1423.9159" y2="375.8583" gradientTransform="matrix(0.8922 0.4517 0.4517 -0.8922 187.1383 434.3314)">
			<stop  offset="0" style="stop-color:#FFFFFF"/>
			<stop  offset="1" style="stop-color:#D1D1D1"/>
		</linearGradient>
		<path style="fill:url(#SVGID_00000061466545944520854890000002280881609305729176_);" d="M1431.3,806.4
			c-71.8-36.3-100.6-124.3-64.2-196s124.3-100.6,196-64.2c71.8,36.3,100.6,124.3,64.2,196S1503,842.7,1431.3,806.4z M1560.2,551.7
			c-68.7-34.8-152.8-7.2-187.6,61.5s-7.2,152.8,61.5,187.6s152.8,7.2,187.6-61.5S1628.9,586.5,1560.2,551.7L1560.2,551.7z"/>
	</g>
	<g>
		
			<linearGradient id="SVGID_00000029734014190374907080000005011551392930464419_" gradientUnits="userSpaceOnUse" x1="1086.6658" y1="-648.5164" x2="1372.0859" y2="-648.5164" gradientTransform="matrix(0.8829 0.4695 -0.4695 0.8829 0.6233 191.3831)">
			<stop  offset="0" style="stop-color:#E6E6E6"/>
			<stop  offset="1" style="stop-color:#FFFFFF"/>
		</linearGradient>
		<path style="fill:url(#SVGID_00000029734014190374907080000005011551392930464419_);" d="M1457.5,70L1457.5,70
			c69.6,37,96,123.4,59,193l0,0c-37,69.6-123.4,96-193,59l0,0c-69.6-37-96-123.4-59-193l0,0C1301.5,59.4,1387.9,32.9,1457.5,70z"/>
		
			<linearGradient id="SVGID_00000095296241933602566920000013334304896887044776_" gradientUnits="userSpaceOnUse" x1="1006.3244" y1="844.7579" x2="1298.0978" y2="844.7579" gradientTransform="matrix(0.8829 0.4695 0.4695 -0.8829 -23.3833 400.8736)">
			<stop  offset="0" style="stop-color:#FFFFFF"/>
			<stop  offset="1" style="stop-color:#D1D1D1"/>
		</linearGradient>
		<path style="fill:url(#SVGID_00000095296241933602566920000013334304896887044776_);" d="M1322,324.8
			c-71-37.8-98.1-126.3-60.3-197.3c37.8-71,126.3-98.1,197.3-60.3s98.1,126.3,60.3,197.3C1481.5,335.5,1393,362.5,1322,324.8z
			 M1456.1,72.7c-68-36.1-152.7-10.2-188.8,57.7s-10.2,152.7,57.7,188.8l0,0c68,36.1,152.7,10.2,188.8-57.7S1524,108.9,1456.1,72.7z
			"/>
	</g>
	<g class="st15">
		<path class="st16" d="M1333.6,126.1h13.4v56.3h-13.4V126.1z"/>
		<path class="st16" d="M1353.6,174.2l7.8-9.7c4.3,4.7,9.4,6.7,13.3,6.7c4.6,0,6.3-2.1,6.3-4.6c0-3.1-2-4.4-8.4-6.6
			c-8.6-2.9-17.1-7-17.1-18c0-9.4,8.2-16.5,18.4-16.7c7.3-0.1,14,2.7,19.6,7.3l-7.5,9.8c-4.8-3.8-8.4-5.4-11.6-5.4
			c-3.2,0-5.1,1.7-5.1,4.4c0,2.5,2,3.8,8.2,6.2c9.9,3.8,17.4,6.4,17.4,17.4c0,13.3-11.5,18.1-20.5,18.1
			C1367.1,183.2,1359.7,180.3,1353.6,174.2z"/>
		<path class="st16" d="M1399.9,154.3c0-16.9,11.8-28.9,29-28.9c16.8,0,28.8,11.7,28.8,28.9c0,17.2-12.1,28.9-28.8,28.9
			C1411.7,183.2,1399.9,171.2,1399.9,154.3z M1443.9,154.3c0-9.4-6.3-16.5-15-16.5c-8.9,0-15.2,7.3-15.2,16.5
			c0,9.2,6.2,16.5,15.2,16.5C1437.6,170.8,1443.9,163.6,1443.9,154.3z"/>
	</g>
	<g class="st15">
		<path class="st16" d="M1347.9,228.9c0,16.8-11.1,31.4-29.5,34.9l-3.5-10c9.8-2.7,15.7-6.9,18.6-13.4c-2.7,1.4-5.9,2.2-9,2.2
			c-8.5,0-16.3-6.2-16.3-17.5c0-11.1,8.7-18.4,19.7-18.4C1339.8,206.7,1347.9,215.7,1347.9,228.9z M1327.5,232.2
			c3.1,0,6.1-1.6,8.2-3.9v-0.4c0-6.1-3.4-9.9-7.7-9.9c-4.4,0-7.5,3.1-7.5,7.4C1320.4,229.6,1323.4,232.2,1327.5,232.2z"/>
		<path class="st16" d="M1353.6,234.6c0-16.9,8.3-27.9,21.6-27.9c13,0,21.7,10.4,21.7,27.9c0,17-8.3,28-21.7,28
			C1362.2,262.5,1353.6,252.1,1353.6,234.6z M1375.2,250.6c5.1,0,8.5-5.2,8.5-16c0-9.6-2.8-16-8.5-16c-5,0-8.4,5.2-8.4,16
			C1366.8,244.1,1369.7,250.6,1375.2,250.6L1375.2,250.6z"/>
		<path class="st16" d="M1402.5,234.6c0-16.9,8.3-27.9,21.6-27.9c13,0,21.7,10.4,21.7,27.9c0,17-8.3,28-21.7,28
			C1411.2,262.5,1402.5,252.1,1402.5,234.6z M1424.1,250.6c5.1,0,8.5-5.2,8.5-16c0-9.6-2.8-16-8.5-16c-5,0-8.4,5.2-8.4,16
			C1415.7,244.1,1418.6,250.6,1424.1,250.6L1424.1,250.6z"/>
		<path class="st16" d="M1463,222.8l-8.3,6.2l-6.1-9.5l17.1-12h10.3v54.4h-13V222.8z"/>
	</g>
	<g class="st15">
		<path class="st16" d="M1434.6,605.3h13.4v56.3h-13.4V605.3z"/>
		<path class="st16" d="M1454.5,653.3l7.8-9.7c4.3,4.7,9.4,6.7,13.3,6.7c4.6,0,6.3-2.1,6.3-4.6c0-3.1-2-4.4-8.4-6.6
			c-8.6-2.9-17.1-7-17.1-18c0-9.4,8.2-16.5,18.4-16.7c7.3-0.1,14,2.7,19.6,7.3l-7.5,9.8c-4.8-3.8-8.4-5.4-11.6-5.4
			c-3.2,0-5.1,1.7-5.1,4.4c0,2.5,2,3.8,8.2,6.2c9.9,3.8,17.4,6.4,17.4,17.4c0,13.3-11.5,18.1-20.5,18.1
			C1468,662.3,1460.6,659.4,1454.5,653.3z"/>
		<path class="st16" d="M1500.8,633.4c0-16.9,11.8-28.9,29-28.9c16.8,0,28.8,11.7,28.8,28.9c0,17.2-12.1,28.9-28.8,28.9
			C1512.6,662.3,1500.8,650.3,1500.8,633.4z M1544.8,633.4c0-9.4-6.3-16.5-15-16.5c-8.9,0-15.2,7.3-15.2,16.5
			c0,9.2,6.2,16.5,15.2,16.5C1538.5,649.9,1544.8,642.8,1544.8,633.4z"/>
	</g>
	<g class="st15">
		<path class="st16" d="M1404.9,701.9l-8.3,6.2l-6.1-9.5l17.1-12h10.3v54.4h-13V701.9z"/>
	</g>
	<g class="st15">
		<path class="st16" d="M1447.3,732.4h-21.9v-7.8l24.3-38h10.2v35h7v10.8h-7v8.5h-12.5L1447.3,732.4z M1448.3,722.3v-15.5l-9.4,15.5
			H1448.3z"/>
	</g>
	<g class="st15">
		<path class="st16" d="M1471,713.7c0-16.9,8.3-27.9,21.6-27.9c13,0,21.7,10.4,21.7,27.9c0,17-8.3,28-21.7,28
			C1479.6,741.7,1471,731.2,1471,713.7z M1492.6,729.7c5.1,0,8.5-5.2,8.5-16c0-9.6-2.8-16-8.5-16c-5,0-8.4,5.2-8.4,16
			C1484.1,723.2,1487,729.7,1492.6,729.7L1492.6,729.7z"/>
		<path class="st16" d="M1519.9,713.7c0-16.9,8.3-27.9,21.6-27.9c13,0,21.7,10.4,21.7,27.9c0,17-8.3,28-21.7,28
			C1528.5,741.7,1519.9,731.2,1519.9,713.7z M1541.5,729.7c5.1,0,8.5-5.2,8.5-16c0-9.6-2.8-16-8.5-16c-5,0-8.4,5.2-8.4,16
			C1533.1,723.2,1535.9,729.7,1541.5,729.7L1541.5,729.7z"/>
		<path class="st16" d="M1580.3,701.9l-8.3,6.2l-6.1-9.5l17.1-12h10.3v54.4h-13V701.9z"/>
	</g>
	<g class="st15">
		<path class="st16" d="M1311.5,1090.3h13.4v56.3h-13.4V1090.3z"/>
		<path class="st16" d="M1331.5,1138.4l7.8-9.7c4.3,4.7,9.4,6.7,13.3,6.7c4.6,0,6.3-2.1,6.3-4.6c0-3.1-2-4.4-8.4-6.6
			c-8.6-2.9-17.1-7-17.1-18c0-9.4,8.2-16.5,18.4-16.7c7.3-0.1,14,2.7,19.6,7.3l-7.5,9.8c-4.8-3.8-8.4-5.4-11.6-5.4
			c-3.2,0-5.1,1.7-5.1,4.4c0,2.5,2,3.8,8.2,6.2c9.9,3.8,17.4,6.4,17.4,17.4c0,13.3-11.5,18.1-20.5,18.1
			C1345,1147.3,1337.6,1144.5,1331.5,1138.4z"/>
		<path class="st16" d="M1377.8,1118.5c0-16.9,11.8-28.9,29-28.9c16.8,0,28.8,11.7,28.8,28.9c0,17.2-12.1,28.9-28.8,28.9
			C1389.6,1147.3,1377.8,1135.4,1377.8,1118.5z M1421.8,1118.5c0-9.4-6.3-16.5-15-16.5c-8.9,0-15.2,7.3-15.2,16.5
			c0,9.2,6.2,16.5,15.2,16.5C1415.5,1135,1421.8,1127.8,1421.8,1118.5z"/>
	</g>
	<g class="st15">
		<path class="st16" d="M1286.8,1217.4h-21.9v-7.8l24.3-38h10.2v35h7v10.8h-7v8.5h-12.5L1286.8,1217.4z M1287.8,1207.4v-15.5
			l-9.4,15.5H1287.8z"/>
		<path class="st16" d="M1347,1208.2c0,10.9-8.5,18.6-19.7,18.6c-7.4,0-14.2-2.6-19.2-8.4l9.1-7.5c2.1,2.4,5.1,4.2,8.9,4.2
			c4.7,0,7.9-3.2,7.9-7.2c0-4.8-4-7.1-7.7-7.1c-2.6,0-4.8,0.6-7.5,2.7l-6.7-2.6l1.7-29.3h30.2v11.6h-19.3l-0.5,8.5
			c2.2-0.6,4.4-1,6.1-1C1339.5,1190.7,1347,1197.5,1347,1208.2z"/>
	</g>
	<g class="st15">
		<path class="st16" d="M1351.4,1198.7c0-16.9,8.3-27.9,21.6-27.9c13,0,21.7,10.4,21.7,27.9c0,17-8.3,28-21.7,28
			C1360,1226.7,1351.4,1216.3,1351.4,1198.7z M1373,1214.8c5.1,0,8.5-5.2,8.5-16c0-9.6-2.8-16-8.5-16c-5,0-8.4,5.2-8.4,16
			C1364.6,1208.3,1367.5,1214.8,1373,1214.8L1373,1214.8z"/>
		<path class="st16" d="M1400.3,1198.7c0-16.9,8.3-27.9,21.6-27.9c13,0,21.7,10.4,21.7,27.9c0,17-8.3,28-21.7,28
			C1409,1226.7,1400.3,1216.3,1400.3,1198.7z M1421.9,1214.8c5.1,0,8.5-5.2,8.5-16c0-9.6-2.8-16-8.5-16c-5,0-8.4,5.2-8.4,16
			C1413.5,1208.3,1416.4,1214.8,1421.9,1214.8L1421.9,1214.8z"/>
		<path class="st16" d="M1460.8,1187l-8.3,6.2l-6.1-9.6l17.1-12h10.3v54.4h-13V1187z"/>
	</g>
	<g class="st15">
		<path class="st16" d="M259,580.7c-15.9,0-29.6-10.2-29.6-29.3c0-16.5,10.7-29.8,29.6-29.8c7.9,0,16.8,3.3,23.2,11.1l-9.9,8.5
			c-2.8-3.3-7.6-6.6-13.3-6.6c-8.4,0-15.4,6.2-15.4,16.8c0,9.1,6.1,16.4,15.4,16.4c5.2,0,10.2-2.7,13.3-6.6l9.9,8.5
			C277.2,575.9,269.2,580.7,259,580.7L259,580.7z"/>
		<path class="st16" d="M288.8,522.5h37.6v12.1h-24.3v11h19.2v11.9h-19.2V568h26V580h-39.3L288.8,522.5z"/>
	</g>
	<g class="st15">
		<path class="st16" d="M365.1,580l-11.8-18.6h-4.7V580h-13.3v-57.6h22.4c14.2,0,20.6,8.4,20.6,19.9c0,8.7-4,14.5-10.7,17.2v0.2
			L381,580H365.1z M348.5,549.6h6.3c5.8,0,9.4-2.9,9.4-7.6c0-4.3-3.1-7.6-9.1-7.6h-6.5V549.6z"/>
	</g>
	<g class="st15">
		<path class="st16" d="M397.7,534.6h-15.2v-12.1h43.9v12.1h-15.2V580h-13.5V534.6z"/>
		<path class="st16" d="M433.4,522.5h13.7V580h-13.7V522.5z"/>
		<path class="st16" d="M457.5,522.5h38.9v12.1h-25.6v12.9H492v12h-21.1V580h-13.3V522.5z"/>
		<path class="st16" d="M504.1,522.5h13.7V580h-13.7V522.5z"/>
		<path class="st16" d="M555.7,580.7c-15.9,0-29.6-10.2-29.6-29.3c0-16.5,10.7-29.8,29.6-29.8c7.9,0,16.8,3.3,23.2,11.1l-9.9,8.5
			c-2.8-3.3-7.6-6.6-13.3-6.6c-8.4,0-15.4,6.2-15.4,16.8c0,9.1,6.1,16.4,15.4,16.4c5.2,0,10.2-2.7,13.3-6.6l9.9,8.5
			C574,575.9,565.9,580.7,555.7,580.7L555.7,580.7z"/>
	</g>
	<g class="st15">
		<path class="st16" d="M619,569.7h-20.2l-3.3,10.3h-14.2l21.1-57.6h13l21.2,57.6h-14.2L619,569.7z M615.3,558.3l-6.3-19.4h-0.2
			l-6.3,19.4H615.3z"/>
	</g>
	<g class="st15">
		<path class="st16" d="M666.4,567.8c5.2,0,10.2-2.7,13.3-6.6l9.9,8.5c-4.8,6-12.5,10.7-22.2,11l-1,1.7c4.7,0.2,7.6,2.4,7.6,6.6
			c0,3.8-3,6.6-10.2,6.6c-2.6,0-4-0.2-5.2-0.5V590c1,0.3,2.2,0.6,4.3,0.6c1.6,0,3.5-0.4,3.5-2.1c0-1.5-2.3-2.5-6.4-2.5v-3l1.3-2.4
			v-0.2c-13.5-2.1-24.3-12-24.3-28.9c0-16.5,10.7-29.8,29.6-29.8c7.9,0,16.8,3.3,23.2,11.1l-9.9,8.5c-2.8-3.3-7.6-6.6-13.3-6.6
			c-8.4,0-15.4,6.2-15.4,16.8C650.9,560.5,657,567.8,666.4,567.8L666.4,567.8z"/>
	</g>
	<g class="st15">
		<path class="st16" d="M693.8,551.3c0-17.3,12.1-29.6,29.6-29.6c17.2,0,29.5,11.9,29.5,29.6c0,17.6-12.3,29.6-29.5,29.6
			C705.8,580.8,693.8,568.5,693.8,551.3z M707.1,514.4c1.7-5.8,5.3-10.2,10.4-10.2c3.5,0,5.4,1.2,7.1,2.1c1.3,0.8,2.5,1.5,4,1.5
			c2,0,3.5-1.6,4.5-3.8l7.3,2.4c-1.7,6.3-5.3,11-10.2,11c-3,0-5.2-1.1-7.1-2.2c-1.5-0.8-2.8-1.6-4.3-1.6c-1.9,0-3.4,1.5-4.4,3.8
			L707.1,514.4z M738.8,551.3c0-9.6-6.4-16.9-15.4-16.9c-9.1,0-15.5,7.5-15.5,16.9c0,9.4,6.4,16.9,15.5,16.9
			C732.3,568.2,738.8,560.8,738.8,551.3z"/>
		<path class="st16" d="M760.8,522.5h37.6v12.1h-24.3v11h19.2v11.9h-19.2V568h26V580h-39.3L760.8,522.5z"/>
		<path class="st16" d="M825.5,580.8c-7.4,0-15-2.9-21.2-9.2l8-9.9c4.4,4.8,9.6,6.9,13.6,6.9c4.7,0,6.5-2.1,6.5-4.7
			c0-3.2-2-4.6-8.6-6.7c-8.8-3-17.5-7.2-17.5-18.4c0-9.6,8.3-16.9,18.9-17.1c7.5-0.1,14.3,2.7,20,7.5l-7.7,10
			c-4.9-3.9-8.6-5.5-11.9-5.5c-3.2,0-5.2,1.7-5.3,4.5c0,2.6,2.1,3.9,8.4,6.4c10.1,3.9,17.8,6.5,17.8,17.8
			C846.5,575.9,834.7,580.8,825.5,580.8L825.5,580.8z"/>
	</g>
	<g class="st15">
		<path class="st16" d="M229.2,651.9h28.5v5.2H235v15.6h18.7v5.2H235v15.2h24.1v5.2h-29.8V651.9z"/>
		<path class="st16" d="M264.7,694.2l2.8-4c2.5,2.3,5.3,3.8,9.8,3.8c3.8,0,6-1.9,6-4.3c0-2.8-2.9-3.6-7.6-5.2
			c-5.2-1.8-9.6-4-9.6-9.8c0-4.9,4.5-8.5,10.6-8.5c3.8,0,7.4,1,11,3.9l-2.8,4.2c-2.8-2.4-5.8-3.3-8.5-3.3c-2.4,0-4.9,1.4-4.9,3.7
			c0,2.5,2.6,3.7,6,5c6.7,2.6,11.2,3.7,11.1,10c0,5-3.8,9.1-11.4,9.1C272,698.8,267.9,697,264.7,694.2z"/>
	</g>
	<g class="st15">
		<path class="st16" d="M297.1,688.9v-17.8h-4.1v-4.6h4.1v-10.9l5.3-0.6v11.5H313v4.6h-10.6v17c0,3.8,0.9,5.7,3.9,5.7
			c1.9,0,3.9-0.8,5.4-1.6l1.4,4.6c-1.7,1-3.9,2-7.7,2C299.7,698.8,297.1,695.3,297.1,688.9z"/>
	</g>
	<g class="st15">
		<path class="st16" d="M348.9,666.5v31.9h-5.1v-5.1h-0.1c-2.6,3.4-6.5,5.5-11.2,5.5c-8.8,0-15.6-6.4-15.6-16.2
			c0-9.4,6.6-16.5,15.6-16.5c4.3,0,8.3,1.8,10.9,5.1h0.1v-4.7L348.9,666.5z M333,693.9c5.7,0,10.7-4.5,10.7-11.3
			c0-6.6-4.5-11.7-10.6-11.7c-6.1,0-10.8,4.6-10.8,11.7C322.3,689.1,326.5,693.9,333,693.9L333,693.9z"/>
		<path class="st16" d="M407.7,679.7v18.7h-5.3v-17.2c0-7.2-2.4-10.2-7.5-10.2c-5,0-9,4.4-9,11.6v15.8h-5.3v-17.3
			c0-7.1-2.6-10.1-7.6-10.1c-5.2,0-9.2,4.4-9.2,11.6v15.8h-5.3v-31.9h5.3v5.4h0.1c2.6-3.7,6.6-5.8,10.7-5.8c4.9,0,8.4,2,10.1,6.2
			h0.1c2.6-4,6.8-6.2,11.6-6.2C403.8,666.1,407.7,670.3,407.7,679.7z"/>
		<path class="st16" d="M431.7,698.8c-9.9,0-16.5-7.2-16.5-16.3c0-9.2,6.6-16.4,16.5-16.4c9.4,0,16.4,6.7,16.4,16.4
			C448.1,692.2,441.1,698.8,431.7,698.8L431.7,698.8z M431.7,693.9c6.1,0,11-4.7,11-11.4c0-6.8-4.9-11.5-11-11.5
			c-6.7,0-11.1,5.1-11.1,11.5C420.6,688.8,425.1,693.9,431.7,693.9L431.7,693.9z"/>
		<path class="st16" d="M453.5,694.2l2.8-4c2.5,2.3,5.3,3.8,9.8,3.8c3.8,0,6-1.9,6-4.3c0-2.8-2.9-3.6-7.6-5.2
			c-5.2-1.8-9.6-4-9.6-9.8c0-4.9,4.5-8.5,10.6-8.5c3.8,0,7.4,1,11,3.9l-2.8,4.2c-2.8-2.4-5.8-3.3-8.5-3.3c-2.4,0-4.9,1.4-4.9,3.7
			c0,2.5,2.6,3.7,6,5c6.7,2.6,11.2,3.7,11.1,10c0,5-3.8,9.1-11.4,9.1C460.7,698.8,456.6,697,453.5,694.2z"/>
		<path class="st16" d="M519.5,666.1c9,0,15.6,7.1,15.6,16.5c0,9.8-6.8,16.2-15.6,16.2c-4.5,0-8.3-1.9-10.8-5.1h-0.1v17.7h-5.3
			v-44.8h5.3v4.7h0.1C511.3,667.9,515.2,666.1,519.5,666.1L519.5,666.1z M519,693.9c6.5,0,10.7-4.8,10.7-11.3
			c0-7.1-4.7-11.7-10.8-11.7c-6,0-10.6,5.1-10.6,11.7C508.3,689.4,513.3,693.9,519,693.9L519,693.9z"/>
		<path class="st16" d="M573.3,666.5v31.9h-5.1v-5.1h-0.1c-2.6,3.4-6.5,5.5-11.2,5.5c-8.8,0-15.6-6.4-15.6-16.2
			c0-9.4,6.6-16.5,15.6-16.5c4.3,0,8.3,1.8,10.9,5.1h0.1v-4.7L573.3,666.5z M557.4,693.9c5.7,0,10.7-4.5,10.7-11.3
			c0-6.6-4.5-11.7-10.6-11.7c-6.1,0-10.8,4.6-10.8,11.7C546.7,689.1,550.9,693.9,557.4,693.9L557.4,693.9z"/>
		<path class="st16" d="M612.9,650.2v48.2h-5.1v-5.1h-0.1c-2.5,3.4-6.4,5.5-11,5.5c-8.8,0-15.6-6.4-15.6-16.2
			c0-9.4,6.6-16.5,15.6-16.5c4.3,0,8.2,1.8,10.8,5.1h0.1v-21.1L612.9,650.2z M607.8,682.7c0-6.6-4.5-11.7-10.5-11.7
			c-6.1,0-10.8,4.6-10.8,11.7c0,6.4,4.3,11.3,10.7,11.3C602.8,693.9,607.8,689.4,607.8,682.7z"/>
	</g>
	<g class="st15">
		<path class="st16" d="M638.8,666.1c0.5,0,0.9,0,1.3,0.1v5.9c-0.8-0.1-1.6-0.1-2.1-0.1c-6,0-9.7,4.7-9.7,11.1v15.4H623v-31.9h5.3
			v5.6h0.1C630.8,668.3,634.5,666.1,638.8,666.1L638.8,666.1z"/>
	</g>
	<g class="st15">
		<path class="st16" d="M659.9,698.8c-9.9,0-16.5-7.2-16.5-16.3c0-9.2,6.6-16.4,16.5-16.4c9.4,0,16.4,6.7,16.4,16.4
			C676.3,692.2,669.3,698.8,659.9,698.8L659.9,698.8z M659.9,693.9c6.1,0,11-4.7,11-11.4c0-6.8-4.9-11.5-11-11.5
			c-6.7,0-11.1,5.1-11.1,11.5C648.8,688.8,653.3,693.9,659.9,693.9L659.9,693.9z"/>
		<path class="st16" d="M712.9,679.5v18.9h-5.3V681c0-7.5-3.1-10-7.8-10c-6,0-10,4.3-10,11.5v15.9h-5.3v-31.9h5.3v5.5h0.1
			c2.7-3.8,6.8-5.9,11.6-5.9C708.3,666.1,712.9,670.3,712.9,679.5z"/>
		<path class="st16" d="M721.8,656.9c0-2.1,1.6-3.7,3.8-3.7c2.1,0,3.8,1.7,3.8,3.7c0,2-1.7,3.7-3.8,3.7
			C723.5,660.6,721.8,658.9,721.8,656.9z M722.9,666.5h5.3v31.9h-5.3V666.5z"/>
	</g>
	<g class="st15">
		<path class="st16" d="M743.5,693.7v0.1h18.6v4.6h-25.8v-3.9l18.5-23.3v-0.1h-17.5v-4.6h24.8v3.8L743.5,693.7z"/>
	</g>
	<g class="st15">
		<path class="st16" d="M799,666.5v31.9h-5.1v-5.1h-0.1c-2.6,3.4-6.5,5.5-11.2,5.5c-8.8,0-15.6-6.4-15.6-16.2
			c0-9.4,6.6-16.5,15.6-16.5c4.3,0,8.3,1.8,10.9,5.1h0.1v-4.7L799,666.5z M783.1,693.9c5.7,0,10.7-4.5,10.7-11.3
			c0-6.6-4.5-11.7-10.6-11.7c-6.1,0-10.8,4.6-10.8,11.7C772.4,689.1,776.6,693.9,783.1,693.9L783.1,693.9z"/>
		<path class="st16" d="M825.7,666.1c6.9,0,11.4,4.2,11.4,13.4v18.9h-5.3V681c0-7.5-3.1-10-7.8-10c-6,0-10,4.3-10,11.5v15.9h-5.3
			v-31.9h5.3v5.5h0.1C816.8,668.2,821,666.1,825.7,666.1L825.7,666.1z"/>
		<path class="st16" d="M876.6,650.2v48.2h-5.1v-5.1h-0.1c-2.5,3.4-6.4,5.5-11,5.5c-8.8,0-15.6-6.4-15.6-16.2
			c0-9.4,6.6-16.5,15.6-16.5c4.3,0,8.2,1.8,10.8,5.1h0.1v-21.1L876.6,650.2z M871.5,682.7c0-6.6-4.5-11.7-10.5-11.7
			c-6.1,0-10.8,4.6-10.8,11.7c0,6.4,4.3,11.3,10.7,11.3C866.5,693.9,871.5,689.4,871.5,682.7z"/>
		<path class="st16" d="M901.2,698.8c-9.9,0-16.5-7.2-16.5-16.3c0-9.2,6.6-16.4,16.5-16.4c9.4,0,16.4,6.7,16.4,16.4
			C917.6,692.2,910.6,698.8,901.2,698.8L901.2,698.8z M901.2,693.9c6.1,0,11-4.7,11-11.4c0-6.8-4.9-11.5-11-11.5
			c-6.7,0-11.1,5.1-11.1,11.5C890.1,688.8,894.6,693.9,901.2,693.9L901.2,693.9z"/>
		<path class="st16" d="M973.9,666.5v31.9h-5.1v-5.1h-0.1c-2.6,3.4-6.5,5.5-11.2,5.5c-8.8,0-15.6-6.4-15.6-16.2
			c0-9.4,6.6-16.5,15.6-16.5c4.3,0,8.3,1.8,10.9,5.1h0.1v-4.7L973.9,666.5z M958.1,693.9c5.7,0,10.7-4.5,10.7-11.3
			c0-6.6-4.5-11.7-10.7-11.7c-6.1,0-10.8,4.6-10.8,11.7C947.3,689.1,951.6,693.9,958.1,693.9L958.1,693.9z"/>
	</g>
	<g class="st15">
		<path class="st16" d="M257.9,747.8v29.5c0,9.2-4.6,15.7-15.7,15.7c-4.8,0-9.2-1.2-13-3.5l1.3-4.9c3.7,2.1,6.9,3.4,11.4,3.4
			c7.2,0,10.7-4.2,10.7-9.4v-4.4h-0.2c-2.5,3.1-6.2,4.9-10.8,4.9c-8.5,0-15.4-6.3-15.4-15.8c0-9,6.5-15.9,15.2-15.9
			c4.3,0,8.3,1.7,11,4.8h0.1v-4.4L257.9,747.8z M252.8,763c0-6.4-4.6-10.7-10.7-10.7c-6.1,0-10.4,4.6-10.4,10.8
			c0,6.8,4.7,11,10.4,11C248.5,774.1,252.8,769.4,252.8,763z"/>
		<path class="st16" d="M295.7,763.2c0,0.8-0.1,2-0.2,2.2h-24.5c0.7,5.9,4.9,9.8,10.6,9.8c4,0,7-1.8,9-4.3l3.7,3.2
			c-2.7,3.5-7.1,6-12.9,6c-9.1,0-15.9-6.6-15.9-16.3c0-9.6,6.7-16.3,15.3-16.3C289.8,747.4,295.7,754.1,295.7,763.2L295.7,763.2z
			 M271.2,761h19.3c-0.8-5.2-4.2-8.7-9.3-8.7C276.2,752.3,272.2,755.6,271.2,761z"/>
		<path class="st16" d="M301,775.5l2.8-4c2.5,2.3,5.3,3.8,9.8,3.8c3.8,0,6-1.9,6-4.3c0-2.8-2.9-3.6-7.6-5.2c-5.2-1.8-9.6-4-9.6-9.8
			c0-4.9,4.5-8.5,10.6-8.5c3.8,0,7.4,1,11,3.9l-2.8,4.2c-2.8-2.4-5.8-3.3-8.5-3.3c-2.4,0-4.9,1.4-4.9,3.7c0,2.5,2.6,3.7,6,5
			c6.7,2.6,11.2,3.7,11.1,10c0,5-3.8,9.1-11.4,9.1C308.2,780.1,304.1,778.2,301,775.5z"/>
	</g>
	<g class="st15">
		<path class="st16" d="M333.4,770.1v-17.8h-4.1v-4.6h4.1v-10.9l5.3-0.6v11.5h10.6v4.6h-10.6v17c0,3.8,0.9,5.7,3.9,5.7
			c1.9,0,3.9-0.8,5.4-1.6l1.4,4.6c-1.7,1-3.9,2-7.7,2C336,780.1,333.4,776.6,333.4,770.1z"/>
	</g>
	<g class="st15">
		<path class="st16" d="M385.1,747.8v31.9H380v-5.1h-0.1c-2.6,3.4-6.5,5.5-11.2,5.5c-8.8,0-15.6-6.4-15.6-16.2
			c0-9.4,6.6-16.5,15.6-16.5c4.3,0,8.3,1.8,10.9,5.1h0.1v-4.7H385.1z M365.4,739c-1.8,0-3.1,1.3-3.9,3.6l-3.4-1.5
			c1.2-3.9,3.5-6.5,6.8-6.5c2.3,0,3.9,1,5.3,1.9c1.4,0.9,2.7,1.9,4.2,1.9c1.6,0,3-1.2,3.8-3.6l3.4,1.2c-1.2,4.3-3.6,6.8-6.6,6.8
			c-2.3,0-4.1-1.2-5.7-2.3C367.9,739.7,366.7,739,365.4,739L365.4,739z M369.3,775.2c5.7,0,10.7-4.5,10.7-11.3
			c0-6.6-4.5-11.7-10.6-11.7c-6.1,0-10.8,4.6-10.8,11.7C358.5,770.4,362.8,775.2,369.3,775.2L369.3,775.2z"/>
		<path class="st16" d="M409.4,780.1c-9.9,0-16.5-7.2-16.5-16.3c0-9.2,6.6-16.4,16.5-16.4c9.4,0,16.4,6.7,16.4,16.4
			C425.8,773.4,418.8,780.1,409.4,780.1L409.4,780.1z M409.4,775.2c6.1,0,11-4.7,11-11.4c0-6.8-4.9-11.5-11-11.5
			c-6.7,0-11.1,5.1-11.1,11.5C398.3,770,402.8,775.2,409.4,775.2L409.4,775.2z"/>
		<path class="st16" d="M481.9,731.4v48.2h-5.1v-5.1h-0.1c-2.5,3.4-6.4,5.5-11,5.5c-8.8,0-15.6-6.4-15.6-16.2
			c0-9.4,6.6-16.5,15.6-16.5c4.3,0,8.2,1.8,10.8,5.1h0.1v-21.1L481.9,731.4z M476.7,763.9c0-6.6-4.5-11.7-10.5-11.7
			c-6.1,0-10.8,4.6-10.8,11.7c0,6.4,4.3,11.3,10.7,11.3C471.8,775.2,476.7,770.7,476.7,763.9z"/>
		<path class="st16" d="M522.1,747.8v31.9H517v-5.1h-0.1c-2.6,3.4-6.5,5.5-11.2,5.5c-8.8,0-15.6-6.4-15.6-16.2
			c0-9.4,6.6-16.5,15.6-16.5c4.3,0,8.3,1.8,10.9,5.1h0.1v-4.7L522.1,747.8z M506.2,775.2c5.7,0,10.7-4.5,10.7-11.3
			c0-6.6-4.5-11.7-10.6-11.7c-6.1,0-10.8,4.6-10.8,11.7C495.5,770.4,499.7,775.2,506.2,775.2L506.2,775.2z"/>
		<path class="st16" d="M579.8,747.8v44.8h-5.3v-17.7h-0.1c-2.6,3.2-6.3,5.1-10.8,5.1c-8.8,0-15.6-6.4-15.6-16.2
			c0-9.4,6.6-16.5,15.6-16.5c4.3,0,8.2,1.8,10.8,5.1h0.1v-4.7L579.8,747.8z M564,775.2c5.6,0,10.6-4.5,10.6-11.3
			c0-6.6-4.5-11.7-10.6-11.7c-6.1,0-10.8,4.6-10.8,11.7C553.3,770.4,557.5,775.2,564,775.2L564,775.2z"/>
		<path class="st16" d="M616.9,747.8v31.9h-5.3v-5.3h-0.1c-2.5,3.7-6.4,5.7-10.5,5.7c-7.3,0-12-4.2-12-13.3v-19h5.3v17.5
			c0,7.3,2.7,9.9,7.8,9.9c5.1,0,9.5-4.4,9.5-12v-15.4H616.9z"/>
		<path class="st16" d="M656.7,747.8v31.9h-5.1v-5.1h-0.1c-2.6,3.4-6.5,5.5-11.2,5.5c-8.8,0-15.6-6.4-15.6-16.2
			c0-9.4,6.6-16.5,15.6-16.5c4.3,0,8.3,1.8,10.9,5.1h0.1v-4.7L656.7,747.8z M640.9,775.2c5.7,0,10.7-4.5,10.7-11.3
			c0-6.6-4.5-11.7-10.7-11.7c-6.1,0-10.8,4.6-10.8,11.7C630.2,770.4,634.4,775.2,640.9,775.2L640.9,775.2z"/>
		<path class="st16" d="M667,731.4h5.3v48.2H667V731.4z"/>
		<path class="st16" d="M682.2,738.1c0-2.1,1.6-3.7,3.8-3.7c2.1,0,3.8,1.7,3.8,3.7c0,2-1.7,3.7-3.8,3.7
			C683.9,741.8,682.2,740.2,682.2,738.1z M683.3,747.8h5.3v31.9h-5.3V747.8z"/>
		<path class="st16" d="M729.1,731.4v48.2H724v-5.1h-0.1c-2.5,3.4-6.4,5.5-11,5.5c-8.8,0-15.6-6.4-15.6-16.2
			c0-9.4,6.6-16.5,15.6-16.5c4.3,0,8.2,1.8,10.8,5.1h0.1v-21.1L729.1,731.4z M724,763.9c0-6.6-4.5-11.7-10.5-11.7
			c-6.1,0-10.8,4.6-10.8,11.7c0,6.4,4.3,11.3,10.7,11.3C719,775.2,724,770.7,724,763.9z"/>
		<path class="st16" d="M769.3,747.8v31.9h-5.1v-5.1h-0.1c-2.6,3.4-6.5,5.5-11.2,5.5c-8.8,0-15.6-6.4-15.6-16.2
			c0-9.4,6.6-16.5,15.6-16.5c4.3,0,8.3,1.8,10.9,5.1h0.1v-4.7L769.3,747.8z M753.5,775.2c5.7,0,10.7-4.5,10.7-11.3
			c0-6.6-4.5-11.7-10.7-11.7c-6.1,0-10.8,4.6-10.8,11.7C742.7,770.4,747,775.2,753.5,775.2L753.5,775.2z"/>
		<path class="st16" d="M808.9,731.4v48.2h-5.1v-5.1h-0.1c-2.5,3.4-6.4,5.5-11,5.5c-8.8,0-15.6-6.4-15.6-16.2
			c0-9.4,6.6-16.5,15.6-16.5c4.3,0,8.2,1.8,10.8,5.1h0.1v-21.1L808.9,731.4z M803.8,763.9c0-6.6-4.5-11.7-10.5-11.7
			c-6.1,0-10.8,4.6-10.8,11.7c0,6.4,4.3,11.3,10.7,11.3C798.8,775.2,803.8,770.7,803.8,763.9z"/>
		<path class="st16" d="M847.2,763.2c0,0.8-0.1,2-0.2,2.2h-24.5c0.7,5.9,4.9,9.8,10.6,9.8c4,0,7-1.8,9-4.3l3.7,3.2
			c-2.7,3.5-7.1,6-12.9,6c-9.1,0-15.9-6.6-15.9-16.3c0-9.6,6.7-16.3,15.3-16.3C841.2,747.4,847.2,754.1,847.2,763.2L847.2,763.2z
			 M822.6,761h19.3c-0.8-5.2-4.2-8.7-9.3-8.7C827.6,752.3,823.6,755.6,822.6,761z"/>
		<path class="st16" d="M890.2,747.4c6.9,0,11.4,4.2,11.4,13.4v18.9h-5.3v-17.5c0-7.5-3.1-10-7.8-10c-6,0-10,4.3-10,11.5v15.9h-5.3
			v-31.9h5.3v5.5h0.1C881.3,749.5,885.5,747.4,890.2,747.4L890.2,747.4z"/>
		<path class="st16" d="M925.7,780.1c-9.9,0-16.5-7.2-16.5-16.3c0-9.2,6.6-16.4,16.5-16.4c9.4,0,16.4,6.7,16.4,16.4
			C942.1,773.4,935.1,780.1,925.7,780.1L925.7,780.1z M925.7,775.2c6.1,0,11-4.7,11-11.4c0-6.8-4.9-11.5-11-11.5
			c-6.7,0-11.1,5.1-11.1,11.5C914.6,770,919.2,775.2,925.7,775.2L925.7,775.2z"/>
		<path class="st16" d="M947.5,775.5l2.8-4c2.5,2.3,5.3,3.8,9.8,3.8c3.8,0,6-1.9,6-4.3c0-2.8-2.9-3.6-7.6-5.2
			c-5.2-1.8-9.6-4-9.6-9.8c0-4.9,4.5-8.5,10.6-8.5c3.8,0,7.4,1,11,3.9l-2.8,4.2c-2.8-2.4-5.8-3.3-8.5-3.3c-2.4,0-4.9,1.4-4.9,3.7
			c0,2.5,2.6,3.7,6,5c6.7,2.6,11.2,3.7,11.1,10c0,5-3.8,9.1-11.5,9.1C954.8,780.1,950.7,778.2,947.5,775.5z"/>
	</g>
	<g class="st15">
		<path class="st16" d="M244.7,828.6c9,0,15.6,7.1,15.6,16.5c0,9.8-6.8,16.2-15.6,16.2c-4.5,0-8.3-1.9-10.8-5.1h-0.1v17.7h-5.3V829
			h5.3v4.7h0.1C236.5,830.4,240.4,828.6,244.7,828.6L244.7,828.6z M244.1,856.4c6.5,0,10.7-4.8,10.7-11.3c0-7.1-4.7-11.7-10.8-11.7
			c-6,0-10.6,5.1-10.6,11.7C233.5,851.9,238.5,856.4,244.1,856.4L244.1,856.4z"/>
	</g>
	<g class="st15">
		<path class="st16" d="M284.2,828.6c0.5,0,0.9,0,1.3,0.1v5.9c-0.8-0.1-1.6-0.1-2.1-0.1c-6,0-9.7,4.7-9.7,11.1v15.4h-5.3V829h5.3
			v5.6h0.1C276.2,830.8,279.9,828.6,284.2,828.6L284.2,828.6z"/>
	</g>
	<g class="st15">
		<path class="st16" d="M305.2,861.3c-9.9,0-16.5-7.2-16.5-16.3c0-9.2,6.6-16.4,16.5-16.4c9.4,0,16.4,6.7,16.4,16.4
			C321.7,854.6,314.6,861.3,305.2,861.3L305.2,861.3z M305.2,856.4c6.1,0,11-4.7,11-11.4c0-6.8-4.9-11.5-11-11.5
			c-6.7,0-11.1,5.1-11.1,11.5C294.1,851.3,298.7,856.4,305.2,856.4L305.2,856.4z"/>
		<path class="st16" d="M343.6,861.3c-9.2,0-15.8-6.7-15.8-16.3c0-9.7,6.6-16.4,16-16.4c4.8,0,9.7,2,12.9,5.7l-3.7,3.2
			c-2-2.4-5.1-4-8.9-4c-6.4,0-10.8,4.7-10.8,11.5c0,6.8,4.4,11.5,10.8,11.5c3.7,0,7.1-1.6,9.1-3.8l3.7,3.3
			C354.1,858.9,349.3,861.3,343.6,861.3L343.6,861.3z"/>
		<path class="st16" d="M392.1,844.4c0,0.8-0.1,2-0.2,2.2h-24.5c0.7,5.9,4.9,9.8,10.6,9.8c4,0,7-1.8,9-4.3l3.7,3.2
			c-2.7,3.5-7.1,6-12.9,6c-9.1,0-15.9-6.6-15.9-16.3c0-9.6,6.7-16.3,15.3-16.3C386.2,828.6,392.1,835.3,392.1,844.4L392.1,844.4z
			 M367.6,842.2h19.3c-0.8-5.2-4.2-8.7-9.3-8.7C372.6,833.5,368.6,836.8,367.6,842.2z"/>
		<path class="st16" d="M397.4,856.7l2.8-4c2.5,2.3,5.3,3.8,9.8,3.8c3.8,0,6-1.9,6-4.3c0-2.8-2.9-3.6-7.6-5.2
			c-5.2-1.8-9.6-4-9.6-9.8c0-4.9,4.5-8.5,10.6-8.5c3.8,0,7.4,1,11,3.9l-2.8,4.2c-2.8-2.4-5.8-3.3-8.5-3.3c-2.4,0-4.9,1.4-4.9,3.7
			c0,2.5,2.6,3.7,6,5c6.7,2.6,11.2,3.7,11.1,10c0,5-3.8,9.1-11.4,9.1C404.6,861.3,400.5,859.5,397.4,856.7z"/>
	</g>
	<g class="st15">
		<path class="st16" d="M426.3,856.7l2.8-4c2.5,2.3,5.3,3.8,9.8,3.8c3.8,0,6-1.9,6-4.3c0-2.8-2.9-3.6-7.6-5.2
			c-5.2-1.8-9.6-4-9.6-9.8c0-4.9,4.5-8.5,10.6-8.5c3.8,0,7.4,1,11,3.9l-2.8,4.2c-2.8-2.4-5.8-3.3-8.5-3.3c-2.4,0-4.9,1.4-4.9,3.7
			c0,2.5,2.6,3.7,6,5c6.7,2.6,11.2,3.7,11.1,10c0,5-3.8,9.1-11.4,9.1C433.5,861.3,429.4,859.5,426.3,856.7z"/>
	</g>
	<g class="st15">
		<path class="st16" d="M472.2,861.3c-9.9,0-16.5-7.2-16.5-16.3c0-9.2,6.6-16.4,16.5-16.4c9.4,0,16.4,6.7,16.4,16.4
			C488.6,854.6,481.6,861.3,472.2,861.3L472.2,861.3z M472.2,856.4c6.1,0,11-4.7,11-11.4c0-6.8-4.9-11.5-11-11.5
			c-6.7,0-11.1,5.1-11.1,11.5C461.1,851.3,465.6,856.4,472.2,856.4L472.2,856.4z"/>
	</g>
	<g class="st15">
		<path class="st16" d="M494,856.7l2.8-4c2.5,2.3,5.3,3.8,9.8,3.8c3.8,0,6-1.9,6-4.3c0-2.8-2.9-3.6-7.6-5.2c-5.2-1.8-9.6-4-9.6-9.8
			c0-4.9,4.5-8.5,10.6-8.5c3.8,0,7.4,1,11,3.9l-2.8,4.2c-2.8-2.4-5.8-3.3-8.5-3.3c-2.4,0-4.9,1.4-4.9,3.7c0,2.5,2.6,3.7,6,5
			c6.7,2.6,11.2,3.7,11.1,10c0,5-3.8,9.1-11.4,9.1C501.3,861.3,497.1,859.5,494,856.7z"/>
	</g>
	<g class="st15">
		<path class="st16" d="M524.2,857.6c0-2.1,1.7-3.7,3.8-3.7c2.1,0,3.8,1.7,3.8,3.7c0,2-1.7,3.7-3.8,3.7
			C525.9,861.3,524.2,859.6,524.2,857.6z"/>
	</g>
</g>
</svg>
