<?xml version="1.0" encoding="UTF-8"?>
<svg id="Layer_2" data-name="Layer 2" xmlns="http://www.w3.org/2000/svg" viewBox="0 0 947.45 289.45">
  <defs>
    <style>
      .cls-1 {
        fill: #fff;
      }
    </style>
  </defs>
  <g id="Layer_1-2" data-name="Layer 1">
    <path class="cls-1" d="M489.67,135.75c-4.53,17.15-18.13,33.09-48.78,33.09-34.9,0-51.73-24.14-51.73-50.82s18.55-51.01,53-51.01c29.91,0,44.83,16.64,47.69,32.96h-24c-2.01-5.59-7.29-14.58-23.95-14.58-18.26,0-27.76,13.91-27.76,31.73s8.67,33.44,27.89,33.44c13.89,0,20-5.4,23.8-14.83h23.84Zm118.11-18.16c0,27.07-18.05,51.25-53.58,51.25-33.12,0-52.04-22.64-52.04-51.14,0-26.86,20.03-50.68,53.14-50.68s52.48,23.94,52.48,50.57Zm-80.63-.19c0,18.47,9.36,32.93,28.39,32.93s27.25-16.59,27.25-32.47c0-17.3-8.43-32.34-28.2-32.34s-27.44,15.42-27.44,31.88Zm100.12-48.31h54.06c23.37,0,33.54,11.37,33.54,25.15,0,11.31-7.06,18.04-14.58,20.83,9.45,2.93,18.15,10.22,18.15,22.61,0,18.33-14.05,29.07-37.98,29.07h-53.17V69.09Zm49.1,38.23c10.61,0,13.99-4.2,13.99-10.11,0-7.36-5.6-10.36-13.78-10.36h-25.97v20.47h25.77Zm-25.77,41.8h26.77c9.13,0,16.06-2.68,16.06-12.34,0-7.8-5.3-11.82-15.61-11.82h-27.22v24.16Zm110.07-20v37.64h-23.46V69.09h53.18c22.52,0,35.41,11.11,35.41,27.9,0,12.61-7.33,20.03-16.99,23.1,4,1.58,14.48,5.41,14.48,22.96v4.88c0,6.7-.12,14.21,1.23,18.83h-24.33c-1.63-4.3-1.83-10.07-1.83-20.44v-3.21c0-9.87-3.62-13.99-17.86-13.99h-19.85Zm0-17.78h24.42c11.51,0,16.49-4.15,16.49-12.38,0-7.72-5.11-12.09-16.29-12.09h-24.63v24.48Zm108.6,33.25l-8.52,22.17h-24.38l39.33-97.66h30.39l41.35,97.66h-25.63l-9.08-22.17h-43.47Zm36.84-19c-9.09-22.38-13.51-33.79-15.86-41.25h-.14c-2.19,7.31-7.37,22.16-14.71,41.25h30.71Zm-503.63,67.3v34.71h-4.82v-34.71h4.82Zm32.93,34.71v-34.71h6.26c4.54,8.06,14.17,24.71,15.92,28.49h.07c-.32-4.3-.3-9.88-.3-15.55v-12.94h4.5v34.71h-5.9c-4.14-7.39-14.27-25.51-16.22-29.42h-.07c.23,3.78,.25,9.9,.25,16.16v13.27h-4.52Zm59.38-34.71h21.19v4.36h-16.46v10.74h15.43v4.36h-15.43v15.25h-4.73v-34.71Zm80.03,17.17c0,9.57-5.08,18.04-15.37,18.04-9.67,0-15-7.9-15-17.85s5.53-17.85,15.39-17.85c9.2,0,14.98,7.3,14.98,17.67Zm-25.34,.03c0,7.36,3.44,13.67,10.18,13.67,7.29,0,10.14-6.44,10.14-13.63s-3.23-13.41-10.15-13.41-10.17,6.08-10.17,13.37Zm61.02,2.48v15.02h-4.76v-34.71h12.98c6.74,0,10.35,3.93,10.35,9.33,0,4.54-2.41,7.23-5.38,8.17,2.45,.74,4.78,2.79,4.78,8.85v1.53c0,2.38-.08,5.34,.44,6.82h-4.65c-.59-1.5-.57-4.18-.57-7.52v-.7c0-4.73-1.23-6.81-6.94-6.81h-6.25Zm0-4.27h6.83c4.75,0,6.8-1.91,6.8-5.62s-2.15-5.52-6.37-5.52h-7.26v11.14Zm77.58,4.84c0-6.35,.07-12.92,.21-16.62h-.18c-1.41,5.9-6.29,20.17-9.89,31.08h-4.26c-2.73-9-7.77-25.03-9.22-31.15h-.16c.26,4.02,.37,11.62,.37,17.57v13.58h-4.5v-34.71h7.18c3.47,10.45,7.65,23.87,8.74,28.43h.07c.77-3.57,5.76-18.24,9.36-28.43h6.97v34.71h-4.69v-14.46Zm42.1,4.5l-3.31,9.96h-4.78l11.46-34.71h5.96l11.95,34.71h-5.11l-3.42-9.96h-12.74Zm11.56-4.36c-2.94-8.78-4.6-13.6-5.32-16.33h-.05c-.79,3.03-2.64,8.82-5.01,16.33h10.38Zm5.02-30.34l-8.06,6.89h-4.64l6.79-6.89h5.91Zm36.72,14.32h-10.36v-4.36h25.57v4.36h-10.37v30.35h-4.84v-30.35Zm48.91-4.36v34.71h-4.82v-34.71h4.82Zm58.75,24.71c-1.41,6-5.61,10.45-13.12,10.45-9.82,0-14.7-7.86-14.7-17.68s4.92-17.97,14.9-17.97c7.84,0,12,4.81,12.92,10.61h-4.82c-1.07-3.57-3.3-6.39-8.29-6.39-6.9,0-9.69,6.7-9.69,13.58s2.62,13.62,9.88,13.62c4.92,0,6.97-3.11,8.08-6.22h4.84Zm35.04,.04l-3.31,9.96h-4.78l11.46-34.71h5.96l11.95,34.71h-5.11l-3.42-9.96h-12.74Zm11.56-4.36c-2.94-8.78-4.6-13.6-5.32-16.33h-.05c-.79,3.03-2.64,8.82-5.01,16.33h10.38Zm-677.83-6.86c5.12,0,10.12,.52,15.07,1.47-20.27,41.73-59.7,71.64-105.79,79.49-8.13,1.35-16.38,2.06-24.47,2.06C64.9,289.45,0,224.52,0,144.74S64.9,0,144.7,0c8.73,0,17.49,.79,25.98,2.34,46.09,8.33,85.2,38.75,104.96,80.72-4.68,.91-9.44,1.35-14.28,1.35-16.34,0-31.93-5.08-45.14-14.68-3.05-2.98-6.31-5.71-9.72-8.25-17.93-13.37-39.31-20.43-61.8-20.43-57.16,0-103.65,46.53-103.65,103.69s46.49,103.65,103.65,103.65c22.45,0,43.79-7.06,61.76-20.39,2.86-2.14,5.67-4.44,8.33-6.9,13.17-9.6,28.72-14.68,45.1-14.68Zm72.18-94.48c-3.51,0-6.95,.54-10.23,1.59l-.25,.08-.26,.05c-6.81,1.51-13.46,3.63-15.05,4.16-3.45,1.29-34.3,12.62-58.19,12.62-26.5,0-46.92-10.19-68.97-22.52-16.68-9.31-29.71-10.31-34.64-10.31-.01,0-1.75,.02-1.75,.02-.43-.02-1.41-.05-1.84-.05-26.38,0-47.86,21.1-47.86,47.04s21.46,47,48.16,47l.51,.06c.39,.05,1.35,.14,2.81,.14,4.84,0,17.9-1.01,34.61-10.33,22.05-12.32,42.46-22.52,68.97-22.52,23.86,0,54.76,11.33,58.5,12.73,1.57,.52,9.76,3.15,17.56,4.64,2.75,.52,5.11,.83,7.03,.91l.89,.03c18.35,0,33.29-14.65,33.29-32.67s-14.94-32.69-33.29-32.69Z"/>
  </g>
</svg>