<?xml version="1.0" encoding="utf-8"?>
<!-- Generator: Adobe Illustrator 27.0.0, SVG Export Plug-In . SVG Version: 6.00 Build 0)  -->
<svg version="1.1" id="Layer_1" xmlns="http://www.w3.org/2000/svg" xmlns:xlink="http://www.w3.org/1999/xlink" x="0px" y="0px"
	 viewBox="0 0 106.9 41" style="enable-background:new 0 0 106.9 41;" xml:space="preserve">
<style type="text/css">
	.st0{fill:#FFFFFF;}
	.st1{fill:#00DFFC;}
</style>
<g>
	<g>
		<g>
			<path class="st0" d="M61.2,41c-1.1,0-1.9-0.7-1.9-1.6V25.3c0-0.9,0.9-1.6,1.9-1.6s1.9,0.7,1.9,1.6v14.1
				C63.1,40.3,62.3,41,61.2,41z"/>
			<g>
				<path class="st0" d="M23.1,41c-1,0-1.7-0.7-1.7-1.6v-5.1c0-0.9,0.8-1.6,1.7-1.6c1,0,1.7,0.7,1.7,1.6v5.1
					C24.8,40.3,24,41,23.1,41z"/>
				<path class="st0" d="M39.4,25.3v14.1c0,0,0,0.1,0,0.1v0c0,0.1,0,0.2-0.1,0.3c0,0.1-0.1,0.2-0.1,0.3c-0.1,0.1-0.1,0.2-0.2,0.3
					c-0.1,0.1-0.2,0.2-0.2,0.3l0,0c-0.1,0.1-0.1,0.1-0.2,0.1c-0.1,0.1-0.2,0.1-0.3,0.1C38.2,41,38.1,41,38,41l0,0
					c-0.1,0-0.2,0-0.3,0c-0.1,0-0.1,0-0.2,0l0,0c0,0-0.1,0-0.1,0l-0.1,0c0,0-0.1,0-0.1,0c0,0-0.1,0-0.2-0.1l-0.2-0.1
					c0,0-0.1,0-0.1,0l-0.1,0c0,0-0.1,0-0.1-0.1l0,0c0,0-0.1,0-0.1-0.1l-0.1-0.1L22.2,26.7c0.3-0.1,0.7-0.2,1-0.4
					c0.7-0.3,1.4-0.7,2.2-1.2l10.5,10.2v-10c0-0.9,0.8-1.6,1.7-1.6C38.6,23.7,39.4,24.4,39.4,25.3z"/>
			</g>
			<g>
				<path class="st0" d="M68.2,41c-1,0-1.7-0.7-1.7-1.6v-5.1c0-0.9,0.8-1.6,1.7-1.6s1.7,0.7,1.7,1.6v5.1C69.9,40.3,69.1,41,68.2,41z
					"/>
				<path class="st0" d="M82.8,41c-0.1,0-0.1,0-0.2,0l0,0c0,0-0.1,0-0.1,0l-0.1,0c0,0-0.1,0-0.1,0c0,0-0.1,0-0.2-0.1L82,40.8
					c0,0-0.1,0-0.1,0l-0.1,0c0,0-0.1,0-0.1-0.1l0,0c0,0-0.1-0.1-0.1-0.1l-0.1-0.1L66.8,26.3c-0.3-0.3-0.4-0.7-0.4-1.1
					c0-0.4,0.3-0.8,0.6-1.1c0.3-0.3,0.7-0.4,1.1-0.4c0.5,0,1,0.2,1.3,0.6l11.5,11.1v-10c0-0.9,0.8-1.6,1.7-1.6s1.7,0.7,1.7,1.6v14.1
					c0,0,0,0.1,0,0.1l0,0c0,0.1,0,0.2-0.1,0.3c0,0.1-0.1,0.2-0.1,0.3c-0.1,0.1-0.1,0.2-0.2,0.3c-0.1,0.1-0.2,0.2-0.3,0.2l0,0
					c-0.1,0.1-0.1,0.1-0.2,0.1c-0.1,0.1-0.2,0.1-0.3,0.1c-0.1,0-0.2,0.1-0.3,0.1l0,0C83,41,82.9,41,82.8,41z"/>
			</g>
			<g>
				<path class="st0" d="M96.1,34c-1.1,0-1.9-0.7-1.9-1.6c0-0.9,0.9-1.6,1.9-1.6h2.6c1.1,0,1.9,0.7,1.9,1.6c0,0.9-0.9,1.6-1.9,1.6
					H96.1z"/>
				<path class="st0" d="M89.7,41c-1.1,0-1.9-0.7-1.9-1.6V25.3c0-0.9,0.9-1.6,1.9-1.6c0.1,0,0.1,0,0.2,0l10,0c1.1,0,1.9,0.7,1.9,1.6
					c0,0.9-0.9,1.6-1.9,1.6h-8.2v10.7h8.2c1.1,0,1.9,0.7,1.9,1.6c0,0.9-0.9,1.6-1.9,1.6h-9.7l0,0C90,41,89.8,41,89.7,41z"/>
			</g>
			<g>
				<path class="st0" d="M44.4,41c-1,0-1.8-0.7-1.8-1.6V25.3c0-0.9,0.8-1.6,1.8-1.6c1,0,1.8,0.7,1.8,1.6v14.1
					C46.2,40.3,45.4,41,44.4,41z"/>
				<path class="st0" d="M44.7,41c-1,0-1.8-0.7-1.8-1.6c0-0.9,0.8-1.6,1.8-1.6h9.6c1,0,1.8,0.7,1.8,1.6c0,0.9-0.8,1.6-1.8,1.6H44.7z
					"/>
			</g>
			<path class="st0" d="M12.1,23.9v3.3c0,0.1,0,0.3,0,0.4c1.5,1,2.5,2.6,2.5,4.5c0,3-2.5,5.5-5.6,5.5c-3.1,0-5.6-2.4-5.6-5.5
				c0-1.9,1-3.6,2.5-4.5c0-0.1,0-0.3,0-0.4v-3.3C2.5,25.2,0,28.4,0,32.2C0,37,4.1,41,9,41c5,0,9-3.9,9-8.8
				C18.1,28.4,15.6,25.2,12.1,23.9z"/>
			<g>
				<path class="st1" d="M9,28.9c-1,0-1.7-0.7-1.7-1.6v-5.1c0-0.9,0.8-1.6,1.7-1.6s1.7,0.7,1.7,1.6v5.1C10.8,28.1,10,28.9,9,28.9z"
					/>
			</g>
		</g>
		<g>
			<path class="st1" d="M36.8,11.5c0-0.1-0.1-0.2-0.2-0.3c-0.1-0.1-0.2-0.1-0.3-0.1c-0.1,0-0.1,0-0.2,0c-0.1,0-0.1,0-0.2,0
				c-0.1,0-0.3,0.1-0.3,0.2c-1.3,1.5-2.3,3.2-2.9,5.1c0,0,0,0,0,0c-3.1,2.6-6.2,4.8-9.1,6.4c-0.1,0-0.2,0.1-0.3,0.2l0,0l0,0
				c-0.4,0.3-0.8,0.5-1.1,0.6c-0.3,0.1-0.7,0.3-1.1,0.5c-0.4,0.2-0.8,0.2-1.2,0.2l-0.1,0c-0.4,0-0.7-0.1-1.1-0.3
				c-0.6-0.3-0.9-1-0.7-1.9c0.1-0.6,0.3-1.5,0.6-2.5c0.7-2.4,9.6-17.3,10.4-18.7c0.1-0.2,0.1-0.4-0.1-0.5C28.6,0,28.4,0,28.3,0
				c-0.2,0-0.4,0.1-0.5,0.3l0,0l0,0c-3.7,6.9-10,17-10.7,19.6c0,0.1-0.1,0.3-0.2,0.6c-0.1,0.3-0.2,0.6-0.2,0.7l0,0.2
				c0,0.1-0.1,0.3-0.1,0.5c-0.1,0.3-0.1,0.6-0.1,0.8c0,0.2,0.1,0.4,0.1,0.7c0,0.3,0.1,0.5,0.3,0.7c0.2,0.2,0.3,0.4,0.5,0.5
				c0.5,0.4,1,0.6,1.6,0.7c0.3,0,0.5,0.1,0.8,0.1c0.3,0,0.7,0,1-0.1c0.5-0.1,1.1-0.3,1.6-0.5c1.5-0.7,3.4-1.8,5.8-3.4
				c1.5-1,2.8-2,4-3c-0.4,2.1-0.3,4,0.3,5.6c0.1,0.2,0.3,0.4,0.6,0.4c0,0,0.1,0,0.1,0c0.4,0,0.6-0.2,0.6-0.5
				c-0.3-2.5-0.3-4.6,0.1-6.2c0.5-2,1.5-3.9,2.9-5.7C36.7,11.7,36.8,11.6,36.8,11.5z"/>
			<path class="st1" d="M45.8,19.5c0.7,0.6,1.7,0.9,3.1,0.9c0.4,0,0.8,0,1.3-0.1c0.7-0.1,1.9-0.3,3.2-0.7c0.3,0.5,0.8,0.9,1.3,1.2
				c1,0.5,2.3,0.8,3.9,0.8c2.3,0,5.1-0.7,8.2-2.5l5.1-3c0.3-0.2,0.4-0.6,0.2-0.9c-0.1-0.2-0.3-0.3-0.6-0.3c-0.1,0-0.2,0-0.3,0.1
				l-5.1,3c-2.9,1.7-5.5,2.3-7.6,2.3c-1.4,0-2.5-0.3-3.3-0.7c-0.2-0.1-0.4-0.3-0.6-0.5c2.3-0.8,4.7-1.9,5.6-3
				c0.7-0.8,0.7-1.8,0.1-2.6c-0.5-0.7-1.5-1.1-2.7-1.1c-0.8,0-1.7,0.2-2.6,0.7c-1.5,0.8-2.5,2.3-2.4,4.1c0,0.4,0.1,0.8,0.2,1.2
				C51.7,18.7,50.7,19,50,19c-0.4,0-0.8,0.1-1.1,0.1c-1.1,0-1.8-0.2-2.2-0.6c-0.5-0.5-0.5-1.4-0.5-2.4c0-1.3,0.1-3.2-1.9-3.7
				c-0.3-0.1-0.6-0.1-0.9-0.1c-2.6,0-4.6,3.1-6.2,6.3c0.1-1.3,0.8-3.6,3-7.5c0.1-0.2,0.2-0.3,0.2-0.3c0.2-0.3,0-0.7-0.3-0.9
				c-0.1,0-0.2-0.1-0.3-0.1c-0.2,0-0.5,0.1-0.6,0.4c0,0-0.1,0.1-0.1,0.2c-2.2,3.8-3.2,6.7-3.2,8.7c0,0.7,0.5,1.2,1.1,1.3
				c0.1,0,0.2,0,0.2,0c0.4,0,0.7-0.2,0.9-0.6c2.1-4.3,3.7-6.3,5.4-6.3c0.2,0,0.4,0,0.6,0.1c0.9,0.2,1,0.8,0.9,2.4
				C44.8,17.2,44.8,18.6,45.8,19.5z M55.7,14.3c0.7-0.4,1.4-0.5,1.9-0.5c0.8,0,1.4,0.3,1.7,0.6c0.1,0.2,0.3,0.5-0.1,1
				c-0.8,0.9-3,1.9-5.2,2.7c-0.1-0.3-0.1-0.5-0.1-0.8C53.9,15.9,54.6,14.8,55.7,14.3z"/>
			<path class="st1" d="M37,8.2c-0.3,0.2-0.6,0.5-0.8,0.7c-0.2,0.3-0.1,0.5,0.2,0.7c0.1,0.1,0.3,0.1,0.4,0.1c0.1,0,0.1,0,0.2,0
				c0.1,0,0.2-0.1,0.3-0.2c0.1-0.1,0.3-0.3,0.4-0.4C37.8,9,38,8.9,38.2,8.9c0.2-0.1,0.4-0.2,0.5-0.3l0,0l0,0c0-0.1,0-0.2,0-0.4
				c0-0.1-0.2-0.3-0.3-0.3l0,0l0,0c-0.1,0-0.2,0-0.3,0c-0.1,0-0.2,0-0.3,0c-0.1,0-0.2,0.1-0.3,0.1C37.2,8,37.1,8.1,37,8.2z"/>
		</g>
	</g>
	<g>
		<g>
			<path class="st0" d="M106.9,39.6c0,0.8-0.6,1.5-1.5,1.5c-0.8,0-1.5-0.6-1.5-1.5c0-0.8,0.7-1.5,1.5-1.5
				C106.3,38.1,106.9,38.7,106.9,39.6z M104.3,39.6c0,0.6,0.5,1.2,1.1,1.2c0.6,0,1.1-0.5,1.1-1.2c0-0.6-0.5-1.2-1.1-1.2
				C104.8,38.4,104.3,38.9,104.3,39.6z M105.2,40.3h-0.3v-1.5c0.1,0,0.3,0,0.6,0c0.3,0,0.4,0,0.5,0.1c0.1,0.1,0.1,0.2,0.1,0.3
				c0,0.2-0.1,0.3-0.3,0.3v0c0.1,0.1,0.2,0.2,0.3,0.4c0,0.2,0.1,0.3,0.1,0.4h-0.4c0-0.1-0.1-0.2-0.1-0.4c0-0.2-0.1-0.2-0.3-0.2h-0.2
				V40.3z M105.2,39.5h0.2c0.2,0,0.3-0.1,0.3-0.2c0-0.1-0.1-0.2-0.3-0.2c-0.1,0-0.2,0-0.2,0V39.5z"/>
		</g>
	</g>
</g>
</svg>
