<?xml version="1.0" encoding="UTF-8"?>
<svg id="Layer_2" data-name="Layer 2" xmlns="http://www.w3.org/2000/svg" viewBox="0 0 796.87 449.67">
  <defs>
    <style>
      .cls-1 {
        fill: #fff;
      }

      .cls-1, .cls-2, .cls-3, .cls-4 {
        fill-rule: evenodd;
      }

      .cls-2 {
        stroke: #fff;
        stroke-miterlimit: 10;
        stroke-width: 3.02px;
      }

      .cls-2, .cls-3 {
        fill: #eb7c2d;
      }

      .cls-4 {
        fill: #e12b27;
      }
    </style>
  </defs>
  <g id="Camada_1" data-name="Camada 1">
    <g>
      <path class="cls-1" d="M449.67,223.41C448.92,99.29,347.62-.75,223.41,0,99.29,.76-.75,102.06,0,226.18c.76,124.21,102.05,224.25,226.18,223.49,124.21-.75,224.25-102.05,223.49-226.26h0Z"/>
      <path class="cls-2" d="M263.61,90.89h-80.65v62.52c-7.72-4.36-54.72-30.88-54.72-30.88l-41.29,72.43s45.07,25.43,53.04,29.88c-7.97,4.45-53.04,29.88-53.04,29.88l41.29,72.34s47-26.44,54.72-30.8v62.52h83.75v-62.52c7.72,4.36,54.72,30.8,54.72,30.8l41.29-72.34s-45.07-25.43-53.04-29.88c7.97-4.45,53.04-29.88,53.04-29.88l-41.29-72.43s-47,26.52-54.72,30.88v-62.52h-3.1Zm-7.3,6.12h4.2v66.89s53.79-30.3,58.66-32.98c2.6,4.7,32.48,56.98,35.16,61.69-4.78,2.77-57.07,32.23-57.07,32.23,0,0,52.29,29.46,57.07,32.23-2.69,4.7-32.56,56.98-35.16,61.69-4.87-2.69-58.66-32.98-58.66-32.98v66.89h-71.42v-66.89s-53.71,30.3-58.58,32.98c-2.69-4.7-32.48-56.98-35.16-61.69,4.78-2.77,57.07-32.23,57.07-32.23,0,0-52.28-29.46-57.07-32.23,2.68-4.7,32.48-56.99,35.16-61.69,4.87,2.69,58.58,32.98,58.58,32.98V97.02h67.22Z"/>
      <path class="cls-4" d="M249.01,105.08h-51.78v72.76c-8.64-4.95-63.62-35.92-63.62-35.92l-27.19,47.67s53.71,30.21,62.52,35.25c-8.81,4.95-62.52,35.25-62.52,35.25l27.19,47.67s54.97-31.05,63.62-35.92v72.76h55.14v-72.76c8.73,4.87,63.7,35.92,63.7,35.92l27.19-47.67s-53.71-30.29-62.52-35.25c8.81-5.04,62.52-35.25,62.52-35.25l-27.19-47.67s-54.97,30.97-63.7,35.92V105.08h-3.36Z"/>
      <path class="cls-3" d="M88.29,376.99l6.46,5.62,1.85-2.1-4.03-3.36,1.85-2.1,2.85,2.52,1.76-2.1-2.85-2.52,1.76-2.01,3.53,3.02,1.85-2.01-6.04-5.21-8.98,10.24Zm28.03,11.58c-.92,.5-1.93,1.18-2.69,1.68h-.08c.25-.92,.42-2.35,.5-3.19l.75-6.38-2.27-1.51-8.64,10.66,2.69,1.76,3.19-3.94c.5-.59,1.01-1.26,1.51-2.02h0c-.17,.93-.33,1.93-.5,2.77l-.59,5.62,1.09,.76,4.95-2.77c.75-.42,1.68-.92,2.43-1.43h0c-.5,.75-.92,1.43-1.34,2.18l-2.43,4.36,2.77,1.85,6.55-12-2.18-1.51-5.71,3.11Zm11.16,15.95l2.77,1.43,2.26-2.1,4.03,2.01-.33,3.02,2.94,1.43,1.34-14.6-2.01-1.01-10.99,9.82Zm9.82-4.11l-.33,2.85-2.6-1.26,2.1-2.02c.34-.25,.67-.67,1.01-1.09l.09,.08c-.17,.5-.25,1.01-.25,1.43h0Zm-55.31-48.85l-1.93,1.76,2.85,3.02-8.06,7.55,2.27,2.35,8.06-7.47,2.85,2.94,1.93-1.76-7.97-8.39Zm95.34,54.8l.17-2.35c-1.59,.84-3.78,1.18-5.37,1.18l1.01,1.68c1.51,.08,2.69,0,4.2-.5h0Zm191.85-57.4c.67-1.35,1.09-2.44,1.26-4.03l-2.1-1.09c.08,1.85-.5,3.86-1.17,5.29l2.01-.17Zm-195.96,68.31c-.42,1.35-1.68,2.02-3.19,1.51-1.51-.42-2.26-1.6-1.93-2.94l2.43-8.31-3.19-.92-2.52,8.56c-.84,2.94,1.17,5.54,4.36,6.46,3.11,.84,6.21-.25,7.05-3.19l2.52-8.64-3.19-.84-2.35,8.31Zm207.8-66.21l-6.8-5.88-2.1,2.43,6.55,5.71c1.09,.84,1.09,2.27,.08,3.53-1.09,1.18-2.52,1.34-3.53,.42l-6.63-5.71-2.18,2.52,6.88,5.88c2.27,2.02,5.46,1.26,7.64-1.17,2.1-2.52,2.35-5.79,.08-7.72h0Zm-307.16-9.99c-1.85-2.44-4.36-2.69-6.21-1.26-1.51,1.17-1.93,3.02-1.18,5.45,.59,1.68,.59,2.35-.08,2.77-.67,.5-1.51,.34-2.27-.67-.92-1.17-1.34-2.69-1.34-4.36l-2.35,2.18c0,1.26,.59,2.69,1.59,3.95,2.02,2.69,4.53,3.02,6.63,1.43,1.68-1.34,1.93-3.52,1.17-5.71-.5-1.59-.5-2.18,0-2.6,.5-.42,1.26-.25,2.02,.67,.67,.84,1.01,1.93,1.01,2.77l2.35-1.51c0-.67-.34-1.76-1.34-3.11h0Zm-22.49-28.2c.59-.34,1.34,0,1.85,1.01,.5,.93,.59,2.1,.5,2.94l2.6-1.09c.08-.67,0-1.85-.76-3.36-1.43-2.6-3.86-3.36-5.88-2.27-1.68,.84-2.52,2.69-2.1,5.12,.17,1.84,.08,2.43-.67,2.77-.76,.42-1.51,0-2.02-1.09-.75-1.34-.92-2.85-.59-4.45l-2.69,1.68c-.25,1.17,.08,2.68,.84,4.19,1.51,2.94,3.86,3.69,6.29,2.52,1.93-1.01,2.52-3.11,2.18-5.37-.25-1.68-.17-2.27,.42-2.6h0Zm11.33,12.76l-11.58,7.22,1.76,2.85,11.58-7.3-1.76-2.77Zm227.85,78.47l-4.28,1.6,4.7,12.76,4.36-1.6c3.69-1.34,5.96-4.95,4.53-8.9-1.51-3.94-5.54-5.2-9.32-3.86h0Zm3.44,10.24l-1.01,.34-2.77-7.39,1.01-.42c2.27-.76,4.62-.25,5.54,2.27,.92,2.44-.5,4.36-2.77,5.2h0Zm20.98-8.72l-1.18-2.44,3.36-1.68-1.18-2.52-3.44,1.68-1.17-2.44,4.11-2.01-1.18-2.43-7.13,3.52,6.04,12.17,7.72-3.78-1.18-2.44-4.78,2.35Zm27.44-23.33c-1.59,.5-2.26,.5-2.6-.08-.42-.5-.25-1.26,.67-1.93,.84-.59,2.01-.93,2.77-1.01l-1.43-2.35c-.67,0-1.76,.34-3.19,1.34-2.43,1.68-2.69,4.2-1.34,6.04,1.09,1.59,3.02,2.02,5.45,1.34,1.68-.5,2.35-.5,2.85,.17,.42,.67,.17,1.43-.84,2.18-1.18,.92-2.69,1.34-4.37,1.26l2.18,2.43c1.18,0,2.6-.59,4.03-1.51,2.69-2.02,3.02-4.45,1.43-6.63-1.17-1.68-3.44-1.93-5.62-1.26h0Zm11.33-15.95l5.29,13.77,2.35-2.1-1.17-2.86,3.36-3.02,2.68,1.42,2.43-2.26-13.26-6.46-1.68,1.51Zm3.69,2.44c.42,.25,.84,.5,1.26,.75l2.52,1.35-2.1,1.93-1.09-2.69c-.17-.42-.42-.92-.67-1.34h.08Zm-159.37,49.94c-.17,.92-.25,1.76-.33,2.6h-.08c-.5-.93-1.26-2.1-1.76-2.94l-3.78-5.71-2.68-.42-2.1,13.43,3.27,.5,.92-5.71c.08-.84,.25-1.84,.33-2.85h.08c.59,1.01,1.34,2.35,2.01,3.36l4.36,6.55,1.68,.25,2.1-13.51-3.27-.59-.76,5.04Zm195.12-88.21c-3.53-2.35-7.55-1.01-9.74,2.26l-2.6,3.78,11.33,7.64,2.6-3.78c2.18-3.27,1.93-7.47-1.59-9.9h0Zm-1.01,8.64l-.59,.84-6.63-4.45,.59-.84c1.34-2.02,3.61-2.94,5.79-1.43,2.18,1.51,2.18,3.86,.84,5.88h0Zm-179.6,89.55l3.36,.25,.67-13.59-3.27-.17-.76,13.51Zm43.14-15.95c-3.78,.67-6.88,3.94-6.13,8.22,.67,4.36,4.62,6.46,8.39,5.87,3.78-.59,6.88-3.86,6.13-8.22-.67-4.28-4.7-6.46-8.39-5.88h0Zm1.76,11.25c-2.01,.34-4.2-1.01-4.62-3.53-.42-2.52,1.26-4.53,3.27-4.78,2.02-.34,4.28,1.01,4.7,3.52,.34,2.44-1.26,4.45-3.36,4.79h0Zm-26.35-1.76c-.08-2.52,1.85-4.28,4.37-4.45,1.43,0,2.52,.34,3.27,.76l.08-2.85c-.84-.5-2.18-.76-3.86-.67-3.61,.08-7.39,2.69-7.22,7.38,.17,4.7,4.2,6.96,7.81,6.8,1.59-.08,2.77-.33,3.52-.84l.17-3.02c-.75,.59-1.85,.92-3.36,1.01-2.6,.08-4.62-1.51-4.78-4.11h0Zm175.4-107l-2.43,4.61-2.43-1.26,1.76-3.36-2.43-1.26-1.76,3.28-2.43-1.26,2.18-4.03-2.43-1.26-3.69,6.97,12.09,6.38,4.03-7.55-2.43-1.26Z"/>
      <path class="cls-4" d="M625.24,214.68c-28.53,0-50.02,19.81-50.02,48.17s24.76,46.91,47.17,46.91c5.12,0,9.06-1.34,11.92-3.78-8.65,17.2-29.46,37.01-50.69,47.33l32.81,10.15c34.49-20.31,59.75-58.16,59.75-95.92,0-33.49-22.99-52.87-50.94-52.87h0Zm18.13,57.24c-2.85,7.22-9.73,10.32-17.71,10.32-11.08,0-19.05-8.39-19.05-19.97s7.97-19.22,17.71-19.22c10.49,0,19.72,8.64,19.72,20.73,0,2.6,0,5.96-.67,8.14h0Zm-158.95-24l25.01-2.18v112.63h31.89V215.19l-54.47,4.78-2.43,27.95Zm268.64,83.59c15.27-16.45,36.25-46.83,36.25-69.74,0-30.97-21.48-47.08-50.69-47.08-13.51,0-25.01,3.52-33.91,8.81l2.69,28.37c8.64-5.46,17.54-8.98,28.11-8.98,12.17,0,21.07,7.72,21.07,21.57,0,20.22-26.86,56.06-55.64,85.35v8.56h95.67v-26.86h-43.56Z"/>
      <path class="cls-3" d="M576.31,92.07l-29.96,76.2h17.37l5.87-15.78h25.01l5.96,15.78h18.38l-29.88-76.2h-12.76Zm-2.18,46.58l5.45-15.19c.84-2.1,1.85-4.95,2.43-7.64h.25c.67,2.69,1.51,5.54,2.35,7.64l5.46,15.19h-15.95Zm-54.64-17.46c-8.98-2.94-11.67-5.2-11.67-8.73s3.11-6.46,9.65-6.46c5.96,0,12.17,2.35,15.78,4.7l1.43-15.36c-3.36-2.18-9.23-4.53-18.63-4.53-16.7,0-26.35,10.16-26.35,23,0,10.41,7.05,18.8,20.31,23.41,9.4,3.36,12,5.54,12,10.07s-3.78,7.38-10.57,7.38c-8.48,0-16.45-2.85-23.83-8.64l1.68,17.62c5.46,4.03,13.6,6.38,23,6.38,18.71,0,28.37-9.73,28.37-24.51,0-11.83-8.98-20.23-21.15-24.34h0Zm177-28.53l-16.54,31.81c-2.6,5.2-5.29,11.08-7.22,16.11h-.25c-2.01-5.04-5.37-11.75-7.64-16.11l-16.53-31.81h-15.02l-6.63,75.62h17.79l2.43-27.86c.34-4.28,.67-8.9,.67-13.85h.25c1.93,4.87,4.2,9.82,6.46,14.18l14.44,27.78h7.38l14.27-27.78c2.26-4.36,4.61-9.48,6.46-14.27h.25c0,4.78,.33,9.57,.67,13.93l2.52,27.86h18.13l-6.8-75.62h-15.1Zm82.33,0v48.09c0,7.72-5.96,13.09-14.77,13.09s-14.69-5.37-14.69-13.09v-48.09h-18.46v49.77c0,16.87,14.77,27.53,32.9,27.53s33.07-10.66,33.07-27.53v-49.77h-18.04Z"/>
      <path class="cls-2" d="M427.26,139.32c-11.08-26.18-26.86-49.68-47.08-69.83-20.14-20.23-43.64-36.09-69.82-47.08-27.11-11.5-55.89-17.29-85.52-17.29s-58.41,5.79-85.52,17.29c-26.18,10.99-49.68,26.86-69.83,47.08-20.23,20.14-36.09,43.64-47.08,69.83-11.5,27.11-17.29,55.89-17.29,85.52s5.79,58.41,17.29,85.52c10.99,26.19,26.86,49.68,47.08,69.83,20.14,20.22,43.64,36,69.83,47.08,27.11,11.5,55.89,17.29,85.52,17.29s58.41-5.79,85.52-17.29c26.18-11.08,49.68-26.86,69.82-47.08,20.23-20.14,36-43.64,47.08-69.83,11.5-27.11,17.29-55.89,17.29-85.52s-5.79-58.41-17.29-85.52h0ZM224.84,49.69c96.76,0,175.15,78.39,175.15,175.15s-78.39,175.15-175.15,175.15S49.69,321.6,49.69,224.84,128.07,49.69,224.84,49.69h0Zm197.81,258.66c-10.83,25.6-26.35,48.59-46.07,68.23-19.64,19.72-42.63,35.25-68.23,46.08-26.44,11.16-54.55,16.87-83.51,16.87s-57.07-5.71-83.59-16.87c-25.51-10.83-48.51-26.35-68.23-46.08-19.64-19.64-35.16-42.63-45.99-68.23-1.93-4.62-4.11-11.16-5.79-15.86l30.63-17.37c8.06,28.7,24.42,55.64,45.74,76.96,33.99,33.99,79.14,52.7,127.23,52.7s93.16-18.8,127.23-52.7c22.24-21.99,37.26-48.84,45.65-77.21l30.88,17.54c-1.68,5.12-3.94,10.99-5.96,15.95h0Z"/>
      <path class="cls-1" d="M37.27,252.37c.34,1.84,.08,3.52-.59,4.7l-3.52,.84c1.01-1.6,1.34-3.27,1.09-4.95-.17-1.34-.84-2.01-1.76-1.93-.92,.17-1.26,.76-1.68,2.69-.59,2.77-2.01,4.45-4.11,4.7-2.6,.42-4.87-1.26-5.37-4.53-.25-1.84,0-3.11,.34-3.78l3.19-.17c-.42,.76-.67,2.02-.5,3.19,.17,1.34,.84,1.85,1.59,1.76,.67-.08,1.01-.67,1.34-2.6,.5-2.52,1.93-4.53,4.28-4.87,3.02-.42,5.2,1.26,5.71,4.95h0Z"/>
      <polygon class="cls-1" points="35.59 241.03 20.31 241.96 19.73 233.15 22.83 232.89 23.08 238.1 26.19 237.93 25.94 233.65 28.96 233.48 29.21 237.68 32.31 237.51 31.98 231.72 35 231.55 35.59 241.03"/>
      <path class="cls-1" d="M35.08,216.95l-6.13,3.94v1.34l6.04,.17-.17,3.53-15.27-.42,.17-5.62c.08-2.6,1.85-4.87,4.78-4.78,1.76,0,3.19,1.09,3.78,2.43l6.88-4.7-.08,4.11Zm-12.42,3.52l-.08,1.59,3.44,.08v-1.59c.08-.92-.42-1.93-1.59-1.93s-1.76,.92-1.76,1.85h0Z"/>
      <path class="cls-1" d="M36.51,201.93l-.34,3.02-15.95,3.69,.42-3.78,6.97-1.59c1.09-.17,2.35-.42,3.53-.59h0c-1.09-.42-2.35-.92-3.27-1.43l-6.38-3.11,.34-3.52,14.69,7.3Z"/>
      <polygon class="cls-1" points="38.11 191.1 23.08 188.16 23.84 184.55 38.78 187.49 38.11 191.1"/>
      <path class="cls-1" d="M32.31,166.43c-.67,.67-1.43,1.68-1.93,3.27-.67,2.6,.5,5.29,3.36,6.04,2.77,.75,5.2-.92,5.96-3.69,.42-1.59,.42-2.85,.08-3.78l3.1,1.18c.25,.92,.25,2.18-.25,3.94l.25,.17c.42-1.17,1.68-2.01,3.02-1.59,1.68,.42,2.1,2.02,1.76,3.36-.25,.76-.5,1.26-1.01,1.6l-1.43-.59c.5-.42,.75-.84,.84-1.34,.17-.59-.08-1.09-.59-1.17-.59-.17-1.01,.17-1.17,.75-.08,.25-.17,.5-.17,.84l-1.85-.84c-1.43,3.36-4.95,6.04-9.57,4.78-5.12-1.43-6.55-6.29-5.54-10.15,.5-1.76,1.34-3.1,2.1-3.86l3.02,1.09Z"/>
      <path class="cls-1" d="M48.35,156.69c-1.51,3.94-5.88,6.55-10.49,4.7-4.53-1.76-5.96-6.55-4.45-10.49,1.59-3.95,5.88-6.46,10.49-4.7,4.53,1.76,6.04,6.55,4.45,10.49h0Zm-11.83-4.62c-.84,2.18,.08,4.78,2.77,5.87,2.69,1.01,5.2-.34,6.04-2.43,.84-2.1-.17-4.78-2.85-5.88-2.6-1.01-5.12,.34-5.96,2.43h0Z"/>
      <path class="cls-1" d="M60.43,130.93l-2.6,4.45-13.18-7.72,2.6-4.45c2.18-3.78,6.63-5.54,10.74-3.19,4.11,2.43,4.62,7.13,2.43,10.91h0Zm-10.66-5.71l-.59,1.01,7.64,4.45,.59-1.01c1.34-2.27,1.26-4.95-1.34-6.46-2.52-1.43-4.95-.25-6.29,2.01h0Z"/>
      <polygon class="cls-1" points="67.9 119.01 55.48 110.11 60.68 102.98 63.12 104.74 60.09 108.85 62.61 110.7 65.05 107.26 67.56 109.02 65.13 112.46 67.56 114.23 71 109.52 73.52 111.29 67.9 119.01"/>
      <path class="cls-1" d="M89.8,92.66l-3.11-1.34-3.52,3.69,1.51,3.02-2.43,2.52-6.96-14.94,1.76-1.85,15.27,6.29-2.52,2.6Zm-8.81-3.86c-.42-.17-.92-.5-1.43-.75h0c.25,.5,.59,1.01,.76,1.43l1.51,2.94,2.18-2.35-3.02-1.26Z"/>
      <polygon class="cls-1" points="92.32 73.69 100.46 82.84 97.69 85.27 89.47 76.04 86.03 79.14 84.1 76.88 93.75 68.4 95.76 70.67 92.32 73.69"/>
      <polygon class="cls-1" points="108.1 76.54 99.04 64.29 106.17 59.09 108.02 61.52 103.82 64.54 105.66 66.97 109.02 64.46 110.87 66.97 107.51 69.49 109.27 71.93 114.06 68.4 115.82 70.92 108.1 76.54"/>
      <path class="cls-1" d="M131.26,61.44l-8.48-2.52c-1.34-.42-2.94-.92-4.2-1.34h0c.59,.92,1.18,1.93,1.68,2.69l3.36,5.54-3.19,1.93-7.89-13.01,2.6-1.6,7.38,2.27c1.01,.25,2.52,.75,3.61,1.18v-.08c-.5-.76-1.01-1.51-1.51-2.35l-2.94-4.87,3.19-1.93,7.97,13.18-1.6,.92Z"/>
      <path class="cls-1" d="M143.1,55.23l-4.7,2.18-6.46-13.76,4.7-2.18c3.94-1.85,8.64-.84,10.66,3.44,2.01,4.28-.25,8.48-4.2,10.32h0Zm-5.54-10.74l-1.09,.5,3.78,8.06,1.09-.5c2.43-1.09,3.78-3.44,2.52-6.04-1.26-2.68-3.86-3.1-6.29-2.01h0Z"/>
      <polygon class="cls-1" points="156.36 49.6 150.98 35.34 154.42 34.08 159.8 48.26 156.36 49.6"/>
      <path class="cls-1" d="M180.11,42.13l-1.93-5.29c-.33-.84-.67-1.76-.92-2.69h0c-.08,1.09-.33,2.18-.5,3.11l-1.34,6.21-1.43,.34-4.28-4.62c-.67-.76-1.34-1.59-2.01-2.43h0c.25,1.01,.42,1.93,.59,2.77l1.01,5.54-3.44,.92-2.77-15.02,2.94-.75,4.87,5.29c.67,.67,1.68,1.85,2.35,2.69h.08c.08-1.09,.34-2.35,.5-3.52l1.51-6.97,2.94-.84,5.37,14.27-3.53,1.01Z"/>
      <polygon class="cls-1" points="189.59 40.12 187.07 25.1 195.88 23.75 196.39 26.69 191.27 27.53 191.77 30.55 195.88 29.8 196.39 32.9 192.19 33.57 192.7 36.6 198.48 35.59 198.99 38.61 189.59 40.12"/>
      <path class="cls-1" d="M217.03,37.18l-6.38-6.04c-1.01-1.01-2.18-2.18-3.11-3.1h0c.08,1.09,.25,2.27,.25,3.19l.5,6.38-3.78,.25-1.01-15.11,3.02-.25,5.54,5.29c.76,.76,1.93,1.93,2.69,2.77h0c-.08-.92-.17-1.93-.25-2.85l-.34-5.71,3.69-.25,1.01,15.36-1.85,.08Z"/>
      <polygon class="cls-1" points="232.89 24.93 232.47 37.18 228.87 37.01 229.2 24.76 224.59 24.59 224.75 21.66 237.59 22.16 237.51 25.1 232.89 24.93"/>
      <path class="cls-1" d="M249.26,39.03c-4.11-.59-7.72-4.2-7.05-9.06,.67-4.78,5.04-7.3,9.23-6.71,4.2,.5,7.72,4.11,7.05,8.9-.59,4.87-5.04,7.39-9.23,6.88h0Zm1.76-12.59c-2.35-.34-4.7,1.26-5.12,4.03-.34,2.85,1.51,4.95,3.86,5.29,2.27,.34,4.62-1.26,5.04-4.03,.42-2.85-1.51-4.95-3.78-5.29h0Z"/>
      <path class="cls-1" d="M286.27,47.25l1.17-5.46c.25-.84,.42-1.76,.76-2.68l-.08-.08c-.59,.84-1.43,1.68-2.1,2.43l-4.45,4.45-1.34-.42-1.09-6.21c-.17-1.01-.34-2.1-.42-3.1h0c-.34,.92-.67,1.76-1.01,2.6l-2.18,5.2-3.36-1.09,5.79-14.1,2.94,.92,1.26,7.05c.17,1.01,.33,2.43,.42,3.52h.08c.67-.84,1.6-1.76,2.35-2.6l5.12-5.12,2.85,.92-3.27,14.85-3.44-1.09Z"/>
      <path class="cls-1" d="M302.22,54.05c-3.86-1.76-6.21-6.13-4.2-10.66,2.01-4.36,6.88-5.54,10.74-3.86,3.86,1.76,6.29,6.21,4.28,10.57-2.01,4.53-6.96,5.71-10.83,3.94h0Zm5.2-11.58c-2.1-.92-4.78-.08-5.96,2.52-1.17,2.6,0,5.12,2.1,6.04,2.1,1.01,4.87,.17,6.04-2.43,1.18-2.6-.08-5.2-2.18-6.13h0Zm1.17-4.2l-.76-2.1c1.68,.25,4.11,.25,6.04-.42l-.5,2.52c-1.76,.34-3.11,.25-4.78,0h0Z"/>
      <path class="cls-1" d="M321.27,63.62l-2.6-1.51,2.94-16.03,3.27,1.93-1.34,6.97c-.17,1.01-.5,2.27-.84,3.44h0c.84-.84,1.76-1.76,2.6-2.43l5.46-4.53,3.11,1.76-12.59,10.41Z"/>
      <polygon class="cls-1" points="330.41 69.24 339.23 56.82 346.53 61.94 344.77 64.37 340.48 61.44 338.72 63.87 342.25 66.3 340.4 68.82 336.96 66.39 335.2 68.91 339.98 72.26 338.22 74.7 330.41 69.24"/>
      <polygon class="cls-1" points="342.67 78.14 352.49 66.56 355.34 68.91 347.53 78.14 352.23 82 350.22 84.43 342.67 78.14"/>
      <path class="cls-1" d="M364.32,98.45l-3.44-3.86,11.33-10.16,3.44,3.86c2.94,3.27,3.36,7.97-.17,11.08-3.61,3.19-8.22,2.27-11.16-.92h0Zm8.65-8.39l-.76-.84-6.63,5.87,.75,.92c1.85,1.93,4.45,2.6,6.63,.67,2.18-2.01,1.85-4.7,0-6.63h0Z"/>
      <polygon class="cls-1" points="373.47 109.1 385.72 100.04 391.01 107.18 388.57 108.94 385.47 104.83 383.03 106.59 385.55 110.03 383.12 111.87 380.52 108.43 378.08 110.28 381.61 114.98 379.17 116.74 373.47 109.1"/>
      <path class="cls-1" d="M390.25,135.21c-1.76-3.19-1.34-6.8,1.68-8.48l8.81-4.78,1.76,3.27-8.48,4.62c-1.43,.76-1.76,2.27-.92,3.86,.84,1.51,2.35,2.1,3.69,1.34l8.56-4.7,1.76,3.19-8.81,4.78c-3.02,1.68-6.38,.08-8.06-3.11h0Z"/>
      <path class="cls-1" d="M399.9,154.84l3.94-6.13-.5-1.18-5.54,2.27-1.34-3.27,14.01-5.88,2.27,5.2c1.01,2.35,.33,5.2-2.35,6.29-1.68,.67-3.36,.34-4.45-.67l-4.37,7.13-1.68-3.78Zm9.9-8.39l-.59-1.43-3.19,1.34,.67,1.43c.33,.92,1.18,1.59,2.35,1.09,1.01-.42,1.17-1.51,.75-2.43h0Z"/>
      <path class="cls-1" d="M404.94,169.95c-1.26-4.03,.08-8.9,5.03-10.49,5.04-1.59,8.98,1.76,10.24,5.54,.59,2.01,.59,3.78,.25,5.04l-3.19,.67c.42-1.18,.42-2.77,0-4.36-.92-2.6-3.36-4.2-6.21-3.36-2.77,.84-3.86,3.52-3.02,6.13,.25,.84,.59,1.43,1.01,1.85l2.1-.67-.84-2.6,2.69-.84,1.85,5.88-6.71,2.1c-1.34-.92-2.43-2.6-3.19-4.87h0Z"/>
      <path class="cls-1" d="M408.47,181.2l14.94-3.19,1.93,8.65-3.02,.67-1.09-5.12-2.94,.67,.84,4.11-3.02,.67-.84-4.11-3.02,.67,1.26,5.71-3.02,.59-2.01-9.32Zm17.87,3.11c.17-.84,.42-1.51,.93-2.35-.76-.5-1.26-1.01-1.85-1.68l1.17-1.76c.84,1.09,2.18,2.18,3.78,2.85-1.18,1.18-2.02,2.77-2.27,4.11l-1.76-1.18Z"/>
      <path class="cls-1" d="M412.83,208.3l5.79-6.63c.92-1.01,2.1-2.27,3.02-3.19h-.08c-1.09,.17-2.18,.34-3.19,.42l-6.38,.75-.42-3.69,15.11-1.76,.42,2.94-5.04,5.79c-.75,.84-1.85,2.01-2.69,2.77l.08,.08c.84-.17,1.85-.34,2.77-.42l5.71-.67,.5,3.69-15.36,1.76-.25-1.85Z"/>
      <path class="cls-1" d="M425.25,228.19c.5-.84,.92-2.01,.92-3.69-.08-2.69-2.01-4.95-4.87-4.87-2.94,.08-4.79,2.27-4.7,5.2,0,1.59,.42,2.85,.92,3.69l-3.36-.25c-.5-.84-.84-2.18-.84-3.94-.08-4.03,2.6-8.39,7.89-8.48,5.29,0,8.05,4.2,8.14,8.23,0,1.85-.33,3.36-.92,4.28l-3.19-.17Z"/>
      <polygon class="cls-1" points="413.41 234.66 428.69 235.58 428.52 239.27 413.25 238.35 413.41 234.66"/>
      <path class="cls-1" d="M411.32,254.71l3.36-.76,.67-4.95-2.94-1.6,.42-3.44,14.44,8.06-.34,2.52-16.12,3.78,.51-3.61Zm9.4-1.93c.5-.08,1.09-.17,1.68-.25h0c-.5-.25-1.09-.5-1.51-.67l-2.85-1.6-.42,3.19,3.11-.67Z"/>
      <path class="cls-1" d="M218.04,215.44l-.33-8.14c-.42-.34-.84-.67-1.26-.92-13.6-13.18-2.43-19.55-2.43-19.55,0,0,.76,1.68,4.7,1.76,.67,.08,1.43,.08,2.18,.08,2.1-.08,4.28-.25,5.71-.67,.84-.34,1.43-.76,1.43-1.43,.08-.5-.08-.92-.5-1.26-.42-.34-1.09-.67-1.85-1.01-.84-.42-1.85-.92-2.77-1.59-1.26-.75-2.35-1.59-3.27-2.35-.84-.59-2.43-1.76-4.45-2.02-5.29-.25-8.98,2.77-11.33,6.88-5.29,9.48-1.68,19.13,8.14,26.02,1.93,1.43,4.03,2.77,6.04,4.2h0Zm10.83,51.44l-.34,7.05c.75,.92,1.17,1.93,1.17,2.85,0,2.01-1.34,3.53-3.27,4.87l1.59-36.84v-.34c5.71-5.12,12.09-10.57,12.17-16.78,0-3.94-3.94-7.64-9.06-11.25l-.5,9.99c.5,.76,.75,1.51,.75,2.18,.08,2.1-1.09,4.03-2.85,6.04h0c-1.93,2.18-4.62,4.37-4.62,4.37,0,0,3.61-3.95,4.7-6.46l2.94-62.53-6.96-5.45-6.97,5.45,.5,7.47c1.09,.59,2.01,1.18,2.6,1.59l3.02,2.27,2.68,1.43,2.1,1.18h0l.17,.17c.84,.84,1.01,1.68,1.01,2.27v.34c-.08,.84-.59,2.01-2.6,2.85-1.85,.5-4.36,.67-6.21,.75l-2.27-.08h-.08l2.52,51.19c-5.29,4.45-10.49,9.06-10.49,14.35,0,4.87,4.95,8.56,9.82,11.83l-.42-8.98c-.42-.84-.59-1.6-.59-2.43,0-1.68,.84-3.27,2.1-5.04l1.34,32.82c-3.11,2.02-6.21,4.2-6.21,7.8s3.02,6.13,6.88,7.97l.34,5.96h-.08c0,.5,.42,.84,.84,.84,.5,0,.84-.33,.84-.84h0l.25-5.04c1.43,.5,2.94,1.01,4.45,1.43,.84,.17,.92-.08,.08-.42-1.68-.76-3.19-1.51-4.53-2.35l.59-13.26c4.53-2.44,9.82-5.12,10.07-9.4,.17-3.61-3.53-6.72-7.47-9.82h0Zm-5.79,21.9l.34,9.06c-2.27-1.84-3.61-3.78-3.52-5.62,0-1.6,1.26-2.94,3.1-4.2q.08,0,.17-.08c.5-.34,1.01-.59,1.51-.92-.33,.34-1.17,1.09-1.59,1.76h0Z"/>
    </g>
  </g>
</svg>