<?xml version="1.0" encoding="utf-8"?>
<!-- Generator: Adobe Illustrator 27.0.0, SVG Export Plug-In . SVG Version: 6.00 Build 0)  -->
<svg version="1.1" id="Layer_1" xmlns="http://www.w3.org/2000/svg" xmlns:xlink="http://www.w3.org/1999/xlink" x="0px" y="0px"
	 viewBox="0 0 190.7 73.1" style="enable-background:new 0 0 190.7 73.1;" xml:space="preserve">
<style type="text/css">
	.st0{fill:url(#SVGID_1_);}
	.st1{fill:#00DFFC;}
	.st2{fill:#3A30AE;}
</style>
<g>
	<g>
		<linearGradient id="SVGID_1_" gradientUnits="userSpaceOnUse" x1="0" y1="57.6385" x2="181.3506" y2="57.6385">
			<stop  offset="4.389669e-04" style="stop-color:#551AA3"/>
			<stop  offset="0.5313" style="stop-color:#3D24AD"/>
			<stop  offset="0.9998" style="stop-color:#2B79B4"/>
		</linearGradient>
		<path class="st0" d="M112.5,45.1v25c0,1.6-1.5,2.9-3.4,2.9c-1.9,0-3.4-1.3-3.4-2.9v-25c0-1.6,1.5-2.9,3.4-2.9
			C111,42.2,112.5,43.5,112.5,45.1z M41.1,58.2c-1.7,0-3.1,1.3-3.1,2.9v9.1c0,1.6,1.4,2.9,3.1,2.9c1.7,0,3.1-1.3,3.1-2.9v-9.1
			C44.2,59.5,42.8,58.2,41.1,58.2z M67.1,42.2c-1.7,0-3.1,1.3-3.1,2.9V63L45.3,44.9c-1.5,0.8-2.8,1.5-4,2.1
			c-0.6,0.3-1.1,0.5-1.7,0.7L64.7,72l0.3,0.3c0,0,0.1,0.1,0.1,0.1l0.1,0.1c0.1,0,0.1,0.1,0.2,0.1l0.1,0.1c0.1,0,0.1,0.1,0.2,0.1
			l0.3,0.1c0.1,0,0.3,0.1,0.3,0.1c0.1,0,0.1,0,0.2,0.1l0.1,0c0.1,0,0.2,0,0.3,0l0.1,0c0.1,0,0.2,0,0.3,0c0.2,0,0.3,0,0.5,0l0.1,0
			c0.2,0,0.3-0.1,0.5-0.1c0.2-0.1,0.3-0.1,0.5-0.2c0.1-0.1,0.3-0.2,0.4-0.3l0,0c0.2-0.1,0.3-0.3,0.4-0.4c0.1-0.1,0.2-0.3,0.3-0.5
			c0.1-0.2,0.2-0.3,0.2-0.5c0.1-0.2,0.1-0.3,0.1-0.5v-0.1c0-0.1,0-0.2,0-0.2v-25C70.2,43.5,68.8,42.2,67.1,42.2z M121.5,58.2
			c-1.7,0-3.1,1.3-3.1,2.9v9.1c0,1.6,1.4,2.9,3.1,2.9c1.7,0,3.1-1.3,3.1-2.9v-9.1C124.6,59.5,123.2,58.2,121.5,58.2z M147.6,42.2
			c-1.7,0-3.1,1.3-3.1,2.9V63l-20.5-19.8c-0.6-0.7-1.5-1.1-2.4-1.1c-0.7,0-1.5,0.2-2,0.7c-0.6,0.5-1,1.2-1.1,2
			c-0.1,0.8,0.2,1.5,0.7,2l26,25.1l0.2,0.2c0,0,0.1,0.1,0.2,0.1l0.1,0.1c0,0,0.1,0.1,0.2,0.1l0.1,0.1c0.1,0,0.1,0.1,0.2,0.1l0.3,0.1
			c0.1,0,0.3,0.1,0.3,0.1c0.1,0,0.1,0,0.2,0.1l0.1,0c0.1,0,0.2,0,0.3,0l0.1,0c0.1,0,0.2,0,0.3,0c0.2,0,0.3,0,0.5,0l0.1,0
			c0.2,0,0.3-0.1,0.5-0.1c0.2-0.1,0.3-0.1,0.5-0.2c0.1-0.1,0.3-0.2,0.4-0.3l0,0c0.2-0.1,0.3-0.3,0.4-0.4c0.1-0.1,0.2-0.3,0.3-0.5
			c0.1-0.2,0.2-0.3,0.2-0.5c0.1-0.2,0.1-0.4,0.1-0.5l0-0.1c0-0.1,0-0.2,0-0.2v-25C150.7,43.5,149.3,42.2,147.6,42.2z M171.1,54.7
			c-1.9,0-3.4,1.3-3.4,2.9c0,1.6,1.5,2.9,3.4,2.9h4.6c1.9,0,3.4-1.3,3.4-2.9c0-1.6-1.5-2.9-3.4-2.9H171.1z M177.9,67.2h-14.6V48
			h14.6c1.9,0,3.4-1.3,3.4-2.9c0-1.6-1.5-2.9-3.4-2.9l-17.8,0c-0.1,0-0.2,0-0.3,0c-1.9,0-3.4,1.3-3.4,2.9v25c0,1.6,1.5,2.9,3.4,2.9
			c0.2,0,0.5,0,0.7-0.1l0.1,0h17.3c1.9,0,3.4-1.3,3.4-2.9S179.8,67.2,177.9,67.2z M96.7,67.2H82.3v-22c0-1.6-1.4-2.9-3.1-2.9
			c-1.7,0-3.1,1.3-3.1,2.9v25c0,1.6,1.4,2.9,3.1,2.9c0.2,0,0.5,0,0.7-0.1h16.8c1.7,0,3.1-1.3,3.1-2.9S98.4,67.2,96.7,67.2z
			 M21.6,42.7v5.9c0,0.2,0,0.5-0.1,0.7c2.7,1.7,4.5,4.7,4.5,8.1c0,5.4-4.5,9.7-10,9.7c-5.5,0-10-4.4-10-9.7c0-3.4,1.8-6.4,4.5-8.1
			c0-0.2-0.1-0.5-0.1-0.7v-5.9C4.4,44.9,0,50.6,0,57.3C0,66,7.2,73,16.1,73c8.9,0,16.1-7,16.1-15.6C32.2,50.6,27.8,44.9,21.6,42.7z"
			/>
		<g>
			<path class="st1" d="M16.1,51.4c-1.7,0-3.1-1.3-3.1-2.9v-9.1c0-1.6,1.4-2.9,3.1-2.9s3.1,1.3,3.1,2.9v9.1
				C19.2,50.1,17.8,51.4,16.1,51.4z"/>
		</g>
		<g>
			<path class="st1" d="M65.5,20.4c0-0.2-0.1-0.4-0.3-0.5c-0.1-0.1-0.3-0.2-0.6-0.2c-0.1,0-0.3-0.1-0.4-0.1c-0.1,0-0.3,0-0.4,0
				c-0.2,0.1-0.5,0.2-0.6,0.4c-2.4,2.7-4.1,5.7-5.2,9.1c0,0,0,0,0,0c-5.6,4.6-11,8.5-16.2,11.4c-0.1,0.1-0.3,0.2-0.6,0.3l0,0l0,0
				c-0.8,0.5-1.4,0.8-1.9,1.1c-0.5,0.2-1.2,0.5-2,0.8c-0.7,0.3-1.5,0.4-2.1,0.4l-0.1,0c-0.7,0-1.3-0.2-1.9-0.5
				c-1.1-0.6-1.5-1.7-1.2-3.5c0.2-1.1,0.6-2.6,1.1-4.4c1.2-4.3,17.1-30.8,18.4-33.3c0.2-0.3,0.1-0.7-0.1-0.9C51,0.1,50.6,0,50.4,0
				c-0.4,0-0.7,0.2-0.9,0.5l0,0l0,0c-6.5,12.3-17.8,30.3-19,34.9c0,0.2-0.1,0.5-0.3,1.1c-0.2,0.6-0.3,1-0.3,1.3L29.7,38
				c-0.1,0.3-0.1,0.6-0.2,0.9c-0.1,0.5-0.1,1-0.1,1.4c0,0.3,0.1,0.7,0.1,1.2c0.1,0.5,0.2,0.9,0.5,1.3c0.3,0.4,0.6,0.7,0.9,1
				c0.8,0.6,1.8,1,2.9,1.2c0.5,0.1,0.9,0.1,1.4,0.1c0.6,0,1.2-0.1,1.8-0.2c1-0.2,1.9-0.5,2.9-1c2.7-1.2,6.1-3.3,10.2-6.1
				c2.6-1.8,5-3.5,7.1-5.3c-0.7,3.7-0.5,7.1,0.5,10c0.1,0.4,0.5,0.7,1.1,0.7c0.1,0,0.1,0,0.2,0c0.7-0.1,1.1-0.4,1-1
				c-0.6-4.5-0.5-8.2,0.2-11c0.9-3.5,2.6-6.9,5.1-10.2C65.4,20.8,65.5,20.6,65.5,20.4z"/>
			<path class="st1" d="M81.5,34.7c1.2,1.1,2.9,1.6,5.5,1.6c0.7,0,1.4,0,2.2-0.1c1.3-0.1,3.4-0.6,5.7-1.3c0.6,0.9,1.4,1.7,2.4,2.2
				c1.8,0.9,4.2,1.5,7,1.5c4.1,0,9.1-1.2,14.7-4.4l9.2-5.3c0.6-0.3,0.7-1,0.4-1.6c-0.2-0.4-0.6-0.6-1-0.6c-0.2,0-0.4,0.1-0.6,0.2
				l-9.2,5.3c-5.2,3-9.8,4.1-13.5,4.1c-2.5,0-4.5-0.5-6-1.2c-0.4-0.2-0.8-0.5-1.1-0.8c4.1-1.4,8.3-3.4,9.9-5.4
				c1.2-1.5,1.3-3.3,0.2-4.7c-1-1.2-2.7-1.9-4.9-1.9c-1.4,0-3,0.4-4.5,1.2c-2.8,1.5-4.4,4.2-4.4,7.3c0,0.7,0.1,1.5,0.3,2.1
				c-2,0.6-3.8,1-5,1.1c-0.7,0.1-1.4,0.1-2,0.1c-1.9,0-3.2-0.3-3.9-1c-1-0.9-0.9-2.5-0.8-4.2c0.1-2.4,0.2-5.7-3.4-6.6
				c-0.6-0.1-1.1-0.2-1.6-0.2c-4.7,0-8.2,5.5-11.1,11.3c0.2-2.3,1.4-6.4,5.4-13.4c0.2-0.3,0.3-0.5,0.3-0.6c0.3-0.6,0-1.3-0.5-1.5
				c-0.2-0.1-0.3-0.1-0.5-0.1c-0.4,0-0.8,0.2-1.1,0.6c0,0.1-0.1,0.2-0.2,0.4c-3.8,6.7-5.8,11.9-5.7,15.4c0,1.2,1,2.1,1.9,2.3
				c0.1,0,0.3,0,0.4,0c0.7,0,1.3-0.4,1.6-1c3.7-7.7,6.6-11.2,9.6-11.2c0.3,0,0.7,0,1,0.1c1.6,0.4,1.8,1.5,1.7,4.2
				C79.9,30.7,79.8,33.1,81.5,34.7z M99.2,25.4c1.2-0.6,2.4-0.9,3.5-0.9c1.4,0,2.5,0.5,3,1.1c0.3,0.3,0.5,0.8-0.2,1.7
				c-1.4,1.7-5.4,3.5-9.2,4.8c-0.1-0.5-0.2-1-0.2-1.5C96.1,28.4,97.2,26.4,99.2,25.4z"/>
			<path class="st1" d="M65.9,14.6c-0.6,0.4-1.1,0.8-1.4,1.3c-0.3,0.5-0.1,1,0.4,1.3c0.2,0.1,0.5,0.2,0.7,0.2c0.1,0,0.2,0,0.3,0
				c0.2-0.1,0.4-0.2,0.5-0.4c0.2-0.2,0.5-0.5,0.7-0.6c0.3-0.2,0.6-0.4,0.8-0.5c0.4-0.2,0.7-0.3,0.8-0.6l0,0l0,0
				c0.1-0.2,0.1-0.4,0-0.6c-0.1-0.3-0.3-0.5-0.6-0.6l0,0l0,0c-0.2-0.1-0.4-0.1-0.6-0.1c-0.2,0-0.4,0-0.5,0.1c-0.1,0-0.3,0.1-0.6,0.2
				C66.3,14.3,66.1,14.4,65.9,14.6z"/>
		</g>
	</g>
	<g>
		<g>
			<path class="st2" d="M190.7,70.3c0,1.5-1.1,2.6-2.6,2.6c-1.5,0-2.7-1.1-2.7-2.6c0-1.4,1.2-2.6,2.7-2.6
				C189.5,67.7,190.7,68.9,190.7,70.3z M186.1,70.3c0,1.1,0.8,2.1,2,2.1c1.1,0,2-0.9,2-2c0-1.1-0.8-2.1-2-2.1
				C186.9,68.2,186.1,69.2,186.1,70.3z M187.6,71.7H187v-2.6c0.2,0,0.6-0.1,1-0.1c0.5,0,0.7,0.1,0.9,0.2c0.1,0.1,0.3,0.3,0.3,0.6
				c0,0.3-0.2,0.5-0.5,0.6v0c0.3,0.1,0.4,0.3,0.5,0.6c0.1,0.4,0.1,0.6,0.2,0.6h-0.6c-0.1-0.1-0.1-0.3-0.2-0.6c0-0.3-0.2-0.4-0.5-0.4
				h-0.3V71.7z M187.7,70.2h0.3c0.3,0,0.6-0.1,0.6-0.4c0-0.2-0.2-0.4-0.6-0.4c-0.2,0-0.3,0-0.3,0V70.2z"/>
		</g>
	</g>
</g>
</svg>
