<svg id="Grupo_45" data-name="Grupo 45" xmlns="http://www.w3.org/2000/svg" xmlns:xlink="http://www.w3.org/1999/xlink" width="174.549" height="53.326" viewBox="0 0 174.549 53.326">
  <defs>
    <clipPath id="clip-path">
      <rect id="Retângulo_12" data-name="Retângulo 12" width="174.549" height="53.326" fill="#243d80"/>
    </clipPath>
  </defs>
  <g id="Grupo_1" data-name="Grupo 1" clip-path="url(#clip-path)">
    <path id="Caminho_1" data-name="Caminho 1" d="M660.967,123.3c-.835,3.159-3.34,6.1-8.987,6.1-6.429,0-9.531-4.447-9.531-9.362s3.418-9.4,9.765-9.4c5.511,0,8.26,3.065,8.785,6.073h-4.421c-.37-1.03-1.342-2.686-4.413-2.686-3.365,0-5.114,2.563-5.114,5.846,0,3.313,1.6,6.161,5.139,6.161,2.559,0,3.684-1,4.384-2.732Z" transform="translate(-570.756 -98.288)" fill="#243d80"/>
    <path id="Caminho_2" data-name="Caminho 2" d="M848.479,119.952c0,4.987-3.326,9.442-9.87,9.442-6.1,0-9.587-4.17-9.587-9.422,0-4.949,3.691-9.337,9.79-9.337,6.283,0,9.668,4.41,9.668,9.317m-14.854-.035c0,3.4,1.725,6.067,5.231,6.067,3.623,0,5.019-3.056,5.019-5.981,0-3.188-1.554-5.959-5.2-5.959-3.5,0-5.055,2.841-5.055,5.873" transform="translate(-736.508 -98.289)" fill="#243d80"/>
    <path id="Caminho_3" data-name="Caminho 3" d="M1035.568,114.068h9.959c4.306,0,6.178,2.1,6.178,4.634a3.96,3.96,0,0,1-2.686,3.838,4.339,4.339,0,0,1,3.344,4.165c0,3.376-2.589,5.356-7,5.356h-9.8Zm9.046,7.044c1.954,0,2.577-.775,2.577-1.864,0-1.357-1.032-1.908-2.539-1.908h-4.785v3.772Zm-4.747,7.7h4.932c1.682,0,2.959-.493,2.959-2.274,0-1.436-.977-2.177-2.876-2.177h-5.015Z" transform="translate(-920.005 -101.339)" fill="#243d80"/>
    <path id="Caminho_4" data-name="Caminho 4" d="M1221.4,125.128v6.934h-4.322V114.069h9.8c4.149,0,6.524,2.047,6.524,5.14a4.215,4.215,0,0,1-3.131,4.256c.737.29,2.668,1,2.668,4.229v.9a14.66,14.66,0,0,0,.227,3.469h-4.482a11.471,11.471,0,0,1-.336-3.766v-.591c0-1.818-.667-2.578-3.29-2.578Zm0-3.275h4.5c2.12,0,3.039-.764,3.039-2.281,0-1.422-.941-2.228-3-2.228H1221.4Z" transform="translate(-1081.259 -101.34)" fill="#243d80"/>
    <path id="Caminho_5" data-name="Caminho 5" d="M1386.836,127.978l-1.57,4.084h-4.491l7.247-17.993h5.6l7.618,17.993h-4.722l-1.673-4.084Zm6.788-3.5c-1.675-4.124-2.49-6.225-2.921-7.6h-.025c-.4,1.346-1.358,4.082-2.711,7.6Z" transform="translate(-1226.689 -101.34)" fill="#243d80"/>
    <rect id="Retângulo_10" data-name="Retângulo 10" width="0.887" height="6.395" transform="translate(73.263 35.537)" fill="#243d80"/>
    <path id="Caminho_6" data-name="Caminho 6" d="M718.834,324.847v-6.395h1.154c.837,1.484,2.61,4.553,2.934,5.248h.013c-.06-.792-.055-1.82-.055-2.865v-2.383h.829v6.395h-1.087c-.762-1.362-2.629-4.7-2.989-5.42h-.012c.043.7.046,1.824.046,2.976v2.444Z" transform="translate(-638.617 -282.915)" fill="#243d80"/>
    <path id="Caminho_7" data-name="Caminho 7" d="M816.862,318.452h3.9v.8h-3.032v1.979h2.842v.8h-2.842v2.809h-.872Z" transform="translate(-725.706 -282.915)" fill="#243d80"/>
    <path id="Caminho_8" data-name="Caminho 8" d="M904.451,320.883c0,1.763-.937,3.323-2.831,3.323-1.782,0-2.764-1.456-2.764-3.289s1.018-3.289,2.836-3.289c1.7,0,2.759,1.344,2.759,3.256m-4.669.006c0,1.357.633,2.518,1.875,2.518,1.343,0,1.868-1.187,1.868-2.51,0-1.346-.6-2.47-1.87-2.47-1.3,0-1.873,1.121-1.873,2.462" transform="translate(-798.549 -282.182)" fill="#243d80"/>
    <path id="Caminho_9" data-name="Caminho 9" d="M1000.917,322.079v2.768h-.876v-6.395h2.391a1.687,1.687,0,0,1,1.906,1.719,1.462,1.462,0,0,1-.991,1.506c.452.136.88.514.88,1.63v.282a4.943,4.943,0,0,0,.081,1.257h-.856a4.688,4.688,0,0,1-.106-1.386v-.128c0-.871-.226-1.254-1.278-1.254Zm0-.787h1.259c.875,0,1.252-.352,1.252-1.036,0-.65-.4-1.017-1.174-1.017h-1.338Z" transform="translate(-888.443 -282.915)" fill="#243d80"/>
    <path id="Caminho_10" data-name="Caminho 10" d="M1095.448,322.184c0-1.169.012-2.38.038-3.062h-.034c-.261,1.087-1.158,3.715-1.823,5.725h-.785c-.5-1.658-1.431-4.612-1.7-5.739h-.029c.047.741.068,2.141.068,3.238v2.5h-.829v-6.395h1.323c.639,1.925,1.41,4.4,1.611,5.238h.013c.142-.658,1.061-3.361,1.725-5.238h1.283v6.395h-.864Z" transform="translate(-968.68 -282.916)" fill="#243d80"/>
    <path id="Caminho_11" data-name="Caminho 11" d="M1193.612,308.413l-.61,1.835h-.88l2.11-6.395h1.1l2.2,6.395h-.942l-.631-1.835Zm2.13-.8c-.542-1.618-.847-2.505-.979-3.009h-.009c-.146.559-.487,1.625-.923,3.009Zm.924-5.59-1.485,1.27h-.854l1.251-1.27Z" transform="translate(-1059.089 -268.316)" fill="#243d80"/>
    <path id="Caminho_12" data-name="Caminho 12" d="M1278.256,319.255h-1.909v-.8h4.711v.8h-1.91v5.591h-.892Z" transform="translate(-1133.915 -282.915)" fill="#243d80"/>
    <rect id="Retângulo_11" data-name="Retângulo 11" width="0.887" height="6.395" transform="translate(152.464 35.537)" fill="#243d80"/>
    <path id="Caminho_13" data-name="Caminho 13" d="M1430.379,322.272a2.324,2.324,0,0,1-2.416,1.925c-1.808,0-2.709-1.448-2.709-3.258,0-1.74.907-3.311,2.745-3.311a2.235,2.235,0,0,1,2.381,1.955h-.887a1.464,1.464,0,0,0-1.528-1.177c-1.271,0-1.786,1.234-1.786,2.5,0,1.222.483,2.509,1.82,2.509a1.489,1.489,0,0,0,1.488-1.147Z" transform="translate(-1266.205 -282.183)" fill="#243d80"/>
    <path id="Caminho_14" data-name="Caminho 14" d="M1517.165,323.012l-.61,1.835h-.88l2.11-6.395h1.1l2.2,6.395h-.942l-.631-1.835Zm2.13-.8c-.542-1.618-.847-2.505-.98-3.009h-.008c-.146.559-.487,1.625-.923,3.009Z" transform="translate(-1346.536 -282.915)" fill="#243d80"/>
    <path id="Caminho_15" data-name="Caminho 15" d="M47.881,38.03a14.668,14.668,0,0,1,2.777.27,26.717,26.717,0,0,1-19.49,14.645,27.687,27.687,0,0,1-4.509.38A26.664,26.664,0,1,1,50.783,15.3a13.71,13.71,0,0,1-2.631.249,14.052,14.052,0,0,1-8.316-2.7,17.748,17.748,0,0,0-1.79-1.52A18.909,18.909,0,0,0,26.659,7.564,19.1,19.1,0,1,0,38.038,42.006a19.4,19.4,0,0,0,1.535-1.271,14,14,0,0,1,8.309-2.7m13.3-17.405a6.143,6.143,0,0,0-1.884.293l-.047.016-.049.01c-1.255.278-2.48.668-2.773.767-.635.237-6.319,2.325-10.72,2.325-4.882,0-8.644-1.878-12.707-4.148a13.423,13.423,0,0,0-6.381-1.9l-.322,0c-.08,0-.26-.01-.34-.01a8.664,8.664,0,1,0,.056,17.325l.093.012a4.278,4.278,0,0,0,.519.025A13.47,13.47,0,0,0,33,33.441c4.063-2.27,7.823-4.148,12.707-4.148,4.395,0,10.089,2.088,10.778,2.346a28.993,28.993,0,0,0,3.235.854,9.213,9.213,0,0,0,1.3.167l.163.006a6.021,6.021,0,1,0,0-12.041" fill="#243d80"/>
  </g>
</svg>
