<?xml version="1.0" encoding="UTF-8"?>
<svg id="Layer_2" data-name="Layer 2" xmlns="http://www.w3.org/2000/svg" viewBox="0 0 426.98 427.34">
  <defs>
    <style>
      .cls-1 {
        fill: #fefdfd;
      }

      .cls-2 {
        fill: #ea2225;
      }

      .cls-3 {
        fill: #231f20;
      }
    </style>
  </defs>
  <g id="Layer_1-2" data-name="Layer 1">
    <g>
      <path class="cls-2" d="M213.76,427.34C95.72,427.36-.33,331.75,0,213.79,.33,93.42,96.39,.29,213.73,0c117.98-.29,213.7,95.94,213.25,214.5-.45,117.22-94.57,212.28-213.22,212.85Zm69.72-121.64c.14-.7-.22-1.06-.85-1.23-4.01-4.2-7.94-8.49-12.05-12.6-27.83-27.85-55.63-55.74-83.59-83.45-6.81-6.75-12.97-14.19-20.6-20.1-.26-.42-.45-.92-.8-1.26-29.78-29.78-59.59-59.52-89.3-89.38-2.38-2.39-3.43-1.9-5.28,.44-25.88,32.72-39.8,69.78-40.64,111.6-.28,13.95,.57,27.8,3.61,41.47,11.17,50.31,38.3,89.63,81.59,117.49,23.06,14.84,48.28,24.37,75.78,26.86,14.78,1.33,29.43,2.43,44.48,.33,34.97-4.89,66.02-17.99,93.52-39.93,2.33-1.86,2.24-3,.18-4.96-6.02-5.74-11.86-11.66-17.78-17.5-3.5-3.72-6.86-7.59-10.56-11.1-2.92-2.77-5.02-6.59-9.27-7.79-2.03-3.77-5.04-6.61-8.54-8.99l.09,.1Zm-67.55-111.77c.34,2,2.06,2.96,3.31,4.22,18.76,18.84,37.51,37.69,56.33,56.46,22.24,22.18,44.54,44.29,66.81,66.43,2.94,2.95,5.99,5.8,8.77,8.89,1.92,2.14,3.01,1.59,4.56-.42,39.65-51.08,51.24-107.98,32.81-169.84-22.12-74.25-87.86-124.89-165.34-129.07-44.52-2.4-84.6,10.13-120.3,36.76-8.09,6.03-8.1,6.19-1.19,13.08,15.9,15.84,31.89,31.6,47.84,47.39,1.18,1.38,2.26,2.85,3.54,4.13,11.13,11.19,22.22,22.43,33.49,33.48,6.02,5.9,11.36,12.52,18.27,17.5,3.2,4.16,6.79,7.93,11.1,10.98Z"/>
      <path class="cls-1" d="M283.48,305.71c-1.29,.29-.78-.67-.85-1.23,.63,.17,.99,.53,.85,1.23Z"/>
      <path class="cls-3" d="M185.81,210.95c-2.38,15.98-6.43,31.41-14.22,45.74-2.3,4.24-1.64,8.85,2.19,12.05,5,4.18,10.17,2.82,15.32-1.22,1.45,14.76,2.83,28.99,1.75,43.25-1.12,14.85-11.22,24.68-26.47,26.75-27.8,3.77-44.51-9.82-46.71-37.8-.64-8.14-1.71-16.25-2.6-24.37-.3-2.81-.61-4.72,3.77-4.45,8,.49,12.24-4.67,10.68-12.77-2.91-15.1-3.67-30.3-2.37-45.55,1.38-16.24,5.68-31.6,16.08-44.69,14.19,14.35,28.38,28.7,42.57,43.06Zm122.66,73.24c.35-3.5,.59-7.02,1.1-10.5,.36-2.51-.6-2.69-2.86-2.76-10.01-.33-13.16-4.66-11.41-14.41,3.3-18.38,4.2-36.92,.55-55.3-3.85-19.36-12.3-36.12-29.53-47.42-4.11-2.69-6.44-2.65-9.8,1.24-14.65,16.94-18.98,36.8-17.54,58.47,23.17,23.56,46.33,47.11,69.5,70.67ZM158.27,131.49c6.06-4.48,11.34-2.98,16.53,1.79,10.51,9.66,18.67,20.99,24.86,35.02,6.89-21.85,6.65-42.09-3.42-61.72-5.73-11.17-15.18-17.23-27.56-17.51-14.55-.33-28.51,2.36-40.23,12.01,9.94,10.13,19.87,20.27,29.81,30.4Zm86.59,139.39c-3.69,1.17-6.37-1.69-9.62-2.84-.93,13.65-2.41,26.83-1.7,40.09,.5,9.35,3.14,17.89,11.3,23.46,12.45,8.51,40.48,11.79,53.21-6.38-17.06-18.77-35.48-36.2-53.19-54.33Zm-112.51-114.36c-25.56,31.95-23.85,68.54-17.84,105.79,.49,3.06,3.01,5.26,6.32,4.4,3.31-.86,4.87-3.34,4.28-7.1-1.03-6.53-2.01-13.08-2.57-19.66-2.27-26.99,.71-52.83,17.29-75.53-1.9-3.19-4.6-5.62-7.47-7.9Zm101.98,52.08c-.82-20.1,3.56-38.87,17.15-54.05,5.71-6.38,6.64-12,3.72-19.75-13.67,11.42-23.29,25.3-28.25,42.2-1.91,6.51-2.82,13.32-4.19,20,3.86,3.87,7.71,7.74,11.57,11.61Zm-44.53,6.5c-2.36,14.59-6.28,28.69-13.33,41.79-1.82,3.38-2.83,6.72,1.32,9.08,4.71,2.67,6.9-.74,8.67-4.18,6.06-11.75,10.49-24.08,12.84-37.13-3.17-3.19-6.33-6.37-9.5-9.56Zm-78.23-79.66c-2.78,18.17-2.43,36.45-1.9,54.85,4-13.78,10.43-26.18,19.2-37.38-5.77-5.83-11.53-11.65-17.3-17.48Zm82.11,31.97c-4.78-13.25-13.75-23.28-24.66-33.11-.53,2.99-.85,4.83-1.18,6.67,8.03,9.38,16.85,17.99,25.84,26.43Zm33.83-4.7c5.38-11.07,12.87-20.53,21.76-29,5.05-4.81,9.94-6.02,16.69-2.86,20.14,9.43,34.44,24.26,43.23,44.52,2.3,5.31,4.03,10.87,6.48,17.56-.19-18.88-.11-36.34-2.19-53.75-3.77-31.49-20.52-47.88-52.04-50.16-15.74-1.14-27.72,5.45-34.3,19.73-8.76,19.02-9.22,38.56-2.27,59.15,1.1-2.14,1.9-3.65,2.65-5.19Zm37.4-14.9c22.9,12.99,32.72,34.11,36.44,59.07,2.62,17.54,1.01,34.88-1.74,52.19-.63,3.99,.51,6.93,4.29,7.64,4,.75,6.04-2.25,6.62-5.85,3.57-22.19,5.19-44.47,.03-66.59-6.56-28.1-22.27-49-50.01-60.07,2.17,4.36-1.51,10.26,4.37,13.6Z"/>
    </g>
  </g>
</svg>