<?xml version="1.0" encoding="UTF-8"?>
<svg id="Layer_2" data-name="Layer 2" xmlns="http://www.w3.org/2000/svg" viewBox="0 0 426.98 427.34">
  <defs>
    <style>
      .cls-1 {
        fill: #fefdfd;
      }

      .cls-2 {
        fill: #ea2225;
      }

      .cls-3 {
        fill: #15161f;
      }
    </style>
  </defs>
  <g id="Layer_1-2" data-name="Layer 1">
    <g>
      <g>
        <path class="cls-3" d="M301.91,255.57c-7.3,.05-14.59,0-21.89,0-44.84,.02-152.41-.01-197.24,.1-3.36,0-4.52-.68-4.43-4.29,.27-10.07,.24-20.16,.01-30.23-.07-3.25,.73-4.12,4.06-4.11,36.07,.18,134.88,.27,170.95,.3,1.31,0,2.63,.03,3.94,0,8.93,6.51,16.89,14.01,25.32,21.11,6.54,5.51,13.28,10.96,19.26,17.11Z"/>
        <path class="cls-3" d="M252.05,217.35c18.41-.16,36.82-.02,55.23-.24,1.87-.02,2.11,.74,2.1,2.34-.06,11.11-.1,22.22,.01,33.33,.03,2.47-.97,2.91-3.11,2.83-3.21-.11-6.43-.09-9.64-.05-9.08-6.53-17.07-14.22-25.66-21.33-6.46-5.35-12.63-11.34-18.92-16.89Z"/>
        <path class="cls-3" d="M281.78,163.64c8.03,.02,16.04-.05,24.09,.6,16.28,1.33,19.98,11.22,21.71,21.96,1.12,6.96,.81,14,.94,21.01,.04,2.38-.78,2.87-3.02,2.93-9.51,.24-9.5,.32-9.39-9.23,.02-1.9,.07-3.81-.01-5.7-.54-11.75-6.71-18.09-18.4-18.36-10.08-.23-20.19,.32-30.26-.07-9.51-.37-18.35-3.21-25.78-9.56-7.61-6.5-11.09-14.5-9.04-24.53,.68-3.32,.98-5.86-3.96-5.52-3,.21-5.88-1.5-8.55-3.03-9.3-5.34-15.97-13.05-20.51-22.71-3.69-7.86-2.82-15.93,.18-23.43,5.02-12.51,14.18-21.23,27.17-25.54,1.36-.45,2.85-.52,4.28-.79,2.59-.49,3.88,.34,3.41,3.18-.14,.85-.07,1.75,0,2.63,.26,3.75-.04,5.71-4.98,7.23-10.97,3.38-16.55,12.62-18.42,23.59-1.61,9.42,2.63,16.55,10.37,22.05,4.52,3.21,9.22,4.82,14.68,4.61,2.33-.09,4.7-.16,7.01,.14,5.08,.66,7.34,4.98,5.1,9.55-3.02,6.16-3.17,12.42-.44,18.62,2.82,6.41,7.81,10.14,14.95,10.33,6.28,.17,12.57,.04,18.86,.04Z"/>
        <path class="cls-3" d="M285.37,134.52c10.08-.61,19.75,.1,29.14,3.27,21.54,7.27,31.12,21.47,33.18,43.1,.84,8.84,.33,17.81,.54,26.72,.05,1.9-.52,2.44-2.44,2.56-9.61,.63-9.62,.7-9.61-9.04,.01-9.5,.28-19.07-3.32-28.08-7.57-18.9-16.77-26.38-37.23-26.15-5.26,.06-10.52,.21-15.78,.16-9.8-.09-11.7-3.36-7.22-12.2,2.16-4.27,4.75-8.28,5.37-13.27,2.21-17.73-8.75-32.54-26.41-35.03-2.55-.36-3.27-1.24-2.95-3.53,.06-.43,0-.88,0-1.31q-.05-8.58,8.51-6.26c23.18,6.27,37.88,31.05,31.04,52.45-.69,2.18-1.8,4.22-2.84,6.61Z"/>
        <path class="cls-3" d="M328.46,236.44c0,5.41-.1,10.82,.05,16.22,.06,2.33-.75,2.91-3.02,2.98-9.32,.28-9.31,.36-9.31-8.91,0-8.77,.13-17.54-.06-26.31-.06-2.8,.83-3.36,3.46-3.35,8.88,.03,8.88-.08,8.88,8.84,0,3.51,0,7.02,0,10.52Z"/>
        <path class="cls-3" d="M336.29,236.16c0-5.39,.1-10.78-.05-16.16-.06-2.28,.64-2.88,2.93-2.92,9.4-.17,9.4-.26,9.4,9.12,0,8.74-.07,17.47,.06,26.21,.04,2.47-.71,3.2-3.21,3.25-9.12,.18-9.12,.27-9.13-9.01,0-3.49,0-6.99,0-10.48Z"/>
      </g>
      <path class="cls-2" d="M213.76,427.34C95.72,427.36-.33,331.75,0,213.79,.33,93.42,96.39,.29,213.73,0c117.98-.29,213.7,95.94,213.25,214.5-.45,117.22-94.57,212.28-213.22,212.85Zm69.72-121.64c.14-.7-.22-1.06-.85-1.23-4.01-4.2-7.94-8.49-12.05-12.6-27.83-27.85-55.63-55.74-83.59-83.45-6.81-6.75-12.97-14.19-20.6-20.1-.26-.42-.45-.92-.8-1.26-29.78-29.78-59.59-59.52-89.3-89.38-2.38-2.39-3.43-1.9-5.28,.44-25.88,32.72-39.8,69.78-40.64,111.6-.28,13.95,.57,27.8,3.61,41.47,11.17,50.31,38.3,89.63,81.59,117.49,23.06,14.84,48.28,24.37,75.78,26.86,14.78,1.33,29.43,2.43,44.48,.33,34.97-4.89,66.02-17.99,93.52-39.93,2.33-1.86,2.24-3,.18-4.96-6.02-5.74-11.86-11.66-17.78-17.5-3.5-3.72-6.86-7.59-10.56-11.1-2.92-2.77-5.02-6.59-9.27-7.79-2.03-3.77-5.04-6.61-8.54-8.99l.09,.1Zm-67.55-111.77c.34,2,2.06,2.96,3.31,4.22,18.76,18.84,37.51,37.69,56.33,56.46,22.24,22.18,44.54,44.29,66.81,66.43,2.94,2.95,5.99,5.8,8.77,8.89,1.92,2.14,3.01,1.59,4.56-.42,39.65-51.08,51.24-107.98,32.81-169.84-22.12-74.25-87.86-124.89-165.34-129.07-44.52-2.4-84.6,10.13-120.3,36.76-8.09,6.03-8.1,6.19-1.19,13.08,15.9,15.84,31.89,31.6,47.84,47.39,1.18,1.38,2.26,2.85,3.54,4.13,11.13,11.19,22.22,22.43,33.49,33.48,6.02,5.9,11.36,12.52,18.27,17.5,3.2,4.16,6.79,7.93,11.1,10.98Z"/>
      <path class="cls-1" d="M283.48,305.71c-1.29,.29-.78-.67-.85-1.23,.63,.17,.99,.53,.85,1.23Z"/>
    </g>
  </g>
</svg>