<?xml version="1.0" encoding="utf-8"?>
<!-- Generator: Adobe Illustrator 27.0.0, SVG Export Plug-In . SVG Version: 6.00 Build 0)  -->
<svg version="1.1" id="Layer_1" xmlns="http://www.w3.org/2000/svg" xmlns:xlink="http://www.w3.org/1999/xlink" x="0px" y="0px"
	 viewBox="0 0 56 56" style="enable-background:new 0 0 56 56;" xml:space="preserve">
<style type="text/css">
	.st0{fill:#A79AE9;}
	.st1{fill:#FFFFFF;}
</style>
<g id="Grupo_47" transform="translate(-568.39 -1119.39)">
	<circle id="Elipse_14" class="st0" cx="596.4" cy="1147.4" r="28"/>
	<g id="Grupo_46" transform="translate(583.597 1137.597)">
		<path id="Retângulo_25" class="st1" d="M1.8-0.2h21c1.1,0,2,0.9,2,2l0,0c0,1.1-0.9,2-2,2h-21c-1.1,0-2-0.9-2-2l0,0
			C-0.2,0.7,0.7-0.2,1.8-0.2z"/>
		<path id="Retângulo_26" class="st1" d="M1.8,7.8h21c1.1,0,2,0.9,2,2l0,0c0,1.1-0.9,2-2,2h-21c-1.1,0-2-0.9-2-2l0,0
			C-0.2,8.7,0.7,7.8,1.8,7.8z"/>
		<path id="Retângulo_27" class="st1" d="M1.8,15.8h21c1.1,0,2,0.9,2,2l0,0c0,1.1-0.9,2-2,2h-21c-1.1,0-2-0.9-2-2l0,0
			C-0.2,16.7,0.7,15.8,1.8,15.8z"/>
	</g>
</g>
</svg>
