<?xml version="1.0" encoding="UTF-8"?>
<svg id="Layer_2" data-name="Layer 2" xmlns="http://www.w3.org/2000/svg" viewBox="0 0 427.34 427.34">
  <defs>
    <style>
      .cls-1 {
        fill: #fff;
      }

      .cls-2 {
        fill: #39b54a;
      }
    </style>
  </defs>
  <g id="Layer_1-2" data-name="Layer 1">
    <g>
      <circle class="cls-2" cx="213.67" cy="213.67" r="213.67"/>
      <path class="cls-1" d="M195.29,223.34c-11.2-14.56-24.46-25.27-43.72-25.7-14.27-.31-25.28-5.82-33.98-17.65-12.72-17.29-26.58-33.74-39.94-50.56-.63-.79-1.1-1.7-1.82-2.84,1.63-1.76,3.16-3.41,5.18-5.59,19.6,20.69,39.04,41.22,58.77,62.04,2.48-2.41,4.7-4.55,7.15-6.93-20.36-20.33-40.29-40.23-60.77-60.69,1.78-1.39,3.39-2.64,4.83-3.76,19.99,20.03,39.99,40.08,60.25,60.38,2.64-2.47,4.4-4.12,6.47-6.06-20.35-20.15-40.56-40.17-61.2-60.61,2.76-2.27,4.47-3.68,6.15-5.06,19.93,19.96,39.95,40.01,60.41,60.5,2.74-2.95,4.83-5.2,7.16-7.71-20.78-19.52-41.46-38.95-62.57-58.79,1.59-1.73,3.07-3.32,4.83-5.22,13.33,10.37,25.98,20.19,38.6,30.03,6.41,5,12.79,10.04,19.19,15.06,9.39,7.37,13.53,17.36,13.46,28.97-.12,20,8.4,35.25,24.59,46.45,1.42,.98,4.19,1.7,5.41,.98,11.36-6.71,22.18-14.14,29.54-25.52,2.59-4.01,2.97-7.72,1.44-12.73-5.33-17.4-1.63-33.85,8.07-48.86,11.18-17.29,26.35-29.48,46.98-33.52,31.97-6.26,57.09,19.16,50.76,51.07-6.27,31.59-38.03,57.36-70.23,56.76-3.9-.07-8.16-.38-11.58-1.99-6.11-2.88-11.33-1.38-15.48,2.63-8.16,7.9-15.67,16.46-23.71,25.01,2.69,2.86,4.17,4.52,5.73,6.09,27.89,27.92,55.78,55.84,83.7,83.72,4.33,4.32,6.47,9.13,4.25,15.21-1.99,5.43-6,8.41-11.63,9.12-5.76,.73-9.78-2.45-13.59-6.27-26.23-26.33-52.53-52.59-78.77-78.9-1.47-1.47-2.71-3.18-6.73-6.43-1.04,2.09-1.62,4.63-3.18,6.2-26.5,26.65-53.11,53.18-79.7,79.73-8.1,8.09-15.52,8.53-22.72,1.35-6.89-6.89-6.37-14.91,1.6-22.91,28.74-28.83,57.5-57.64,86.8-87.01Zm61.42-60.91c5.37-24.44,20.21-42.35,38.84-57.73-26.41,6.18-42.58,30.03-38.84,57.73Z"/>
    </g>
  </g>
</svg>