<?xml version="1.0" encoding="UTF-8"?>
<svg id="Layer_2" data-name="Layer 2" xmlns="http://www.w3.org/2000/svg" viewBox="0 0 426.98 427.34">
  <defs>
    <style>
      .cls-1 {
        fill: #fefdfd;
      }

      .cls-2 {
        fill: #ea2225;
      }

      .cls-3 {
        fill: #1d1d1d;
      }
    </style>
  </defs>
  <g id="Layer_1-2" data-name="Layer 1">
    <g>
      <path class="cls-2" d="M213.76,427.34C95.72,427.36-.33,331.75,0,213.79,.33,93.42,96.39,.29,213.73,0c117.98-.29,213.7,95.94,213.25,214.5-.45,117.22-94.57,212.28-213.22,212.85Zm69.72-121.64c.14-.7-.22-1.06-.85-1.23-4.01-4.2-7.94-8.49-12.05-12.6-27.83-27.85-55.63-55.74-83.59-83.45-6.81-6.75-12.97-14.19-20.6-20.1-.26-.42-.45-.92-.8-1.26-29.78-29.78-59.59-59.52-89.3-89.38-2.38-2.39-3.43-1.9-5.28,.44-25.88,32.72-39.8,69.78-40.64,111.6-.28,13.95,.57,27.8,3.61,41.47,11.17,50.31,38.3,89.63,81.59,117.49,23.06,14.84,48.28,24.37,75.78,26.86,14.78,1.33,29.43,2.43,44.48,.33,34.97-4.89,66.02-17.99,93.52-39.93,2.33-1.86,2.24-3,.18-4.96-6.02-5.74-11.86-11.66-17.78-17.5-3.5-3.72-6.86-7.59-10.56-11.1-2.92-2.77-5.02-6.59-9.27-7.79-2.03-3.77-5.04-6.61-8.54-8.99l.09,.1Zm-67.55-111.77c.34,2,2.06,2.96,3.31,4.22,18.76,18.84,37.51,37.69,56.33,56.46,22.24,22.18,44.54,44.29,66.81,66.43,2.94,2.95,5.99,5.8,8.77,8.89,1.92,2.14,3.01,1.59,4.56-.42,39.65-51.08,51.24-107.98,32.81-169.84-22.12-74.25-87.86-124.89-165.34-129.07-44.52-2.4-84.6,10.13-120.3,36.76-8.09,6.03-8.1,6.19-1.19,13.08,15.9,15.84,31.89,31.6,47.84,47.39,1.18,1.38,2.26,2.85,3.54,4.13,11.13,11.19,22.22,22.43,33.49,33.48,6.02,5.9,11.36,12.52,18.27,17.5,3.2,4.16,6.79,7.93,11.1,10.98Z"/>
      <path class="cls-3" d="M283.38,305.6c-.34,4.96,1.02,9.72,1.82,14.54,1.41,8.54-2.64,13.48-11.32,13.48-40.28,0-80.57,0-120.85,0-8.6,0-12.45-5-11.2-13.57,2.74-18.78,7.76-36.81,16.44-53.76,.19-.37,.07-.89,.15-2.38-9.66,14.81-16.82,29.72-21.78,45.67-1.57,5.05-2.72,10.22-4.12,15.32-1.5,5.47-5.51,8.65-11.22,8.71-7.49,.08-14.98,.08-22.47,0-8.76-.09-14.95-6.12-14.32-14.84,1.79-24.95,9.2-48.32,21.15-70.23,13.89-25.47,33.28-45.57,58.91-59.45,.57-.31,1.21-.51,1.82-.77,7.63,5.92,13.79,13.35,20.6,20.1,27.97,27.71,55.77,55.6,83.59,83.45,4.11,4.11,8.04,8.4,12.05,12.6,.07,.56-.44,1.52,.85,1.23l-.09-.1Z"/>
      <path class="cls-3" d="M149.53,127.85c-.99-13.81,.62-27.09,7.52-39.43,13.45-24.07,39.75-36.9,67.14-32.62,26.23,4.1,47.25,24.79,52.47,51.68,8.09,41.63-26.65,80.01-68.9,76.08-.99-.09-1.95-.39-2.93-.6-6.91-4.98-12.25-11.6-18.27-17.5-11.27-11.05-22.36-22.29-33.49-33.48-1.28-1.28-2.36-2.75-3.54-4.13Z"/>
      <path class="cls-3" d="M215.93,193.94c11.77-.43,22.87-3.34,33.15-9.13,1.85-1.04,3.36-.35,5.03,.36,22.2,9.5,39.81,24.58,54.35,43.7,16.15,21.22,26.21,45.04,31.47,71,1.41,6.96,3.12,13.95,2.45,21.18-22.27-22.14-44.58-44.25-66.81-66.43-18.82-18.78-37.58-37.62-56.33-56.46-1.26-1.26-2.97-2.22-3.31-4.22Z"/>
      <path class="cls-3" d="M311.76,333.49c-2.14,.05-4.29,.18-6.43,.12-5.32-.16-9.38-3.35-10.78-8.51-.95-3.48-1.75-7-2.62-10.51,4.25,1.2,6.35,5.02,9.27,7.79,3.7,3.51,7.06,7.39,10.56,11.1Z"/>
      <path class="cls-1" d="M283.48,305.71c-1.29,.29-.78-.67-.85-1.23,.63,.17,.99,.53,.85,1.23Z"/>
    </g>
  </g>
</svg>