<?xml version="1.0" encoding="utf-8"?>
<!-- Generator: Adobe Illustrator 27.0.0, SVG Export Plug-In . SVG Version: 6.00 Build 0)  -->
<svg version="1.1" id="Layer_2_00000131341670112370373040000017644534062857260702_"
	 xmlns="http://www.w3.org/2000/svg" xmlns:xlink="http://www.w3.org/1999/xlink" x="0px" y="0px" viewBox="0 0 427 427.3"
	 style="enable-background:new 0 0 427 427.3;" xml:space="preserve">
<style type="text/css">
	.st0{fill:#1D1D1D;}
	.st1{fill:#EA2225;}
	.st2{fill:#FEFDFD;}
</style>
<g>
	<g>
		<path class="st0" d="M264,227.8c2.3,6.1,4.3,7.8,5.2,7.8c2.3,0,6.2-7,7.3-11.3c0.6-2.4,2-8.2,3.6-17c-3.7-3.8-11.4-9.2-25.7-9.5
			c-3.4-0.1-8.4-0.2-14.6-0.4C249.2,202.5,258.9,214.2,264,227.8z"/>
		<path class="st0" d="M241.9,254.4L241.9,254.4c-7.6-16.5-18.6-22.1-19.2-22.4l-0.5-0.2l-0.4-0.4c-5.7-5.7-8.5-11.5-8.5-17.4
			c0.1-5.6,2.8-11,8.1-16c0.5-0.5,1-0.9,1.6-1.3c-7.3-0.3-15.2-0.5-23.2-0.8c-3.2,2.3-2.5,5.5-1.6,8.5c0.2,0.5,0.4,1.3,0.3,2.1
			c0.2,1.4,0.6,5.2-2.3,8.5c-3.2,3.6-9,5.3-17.8,5.3h0c-16.3,0-20.6-13.2-22.5-18.8c-0.3-0.9-0.6-2-0.8-2.3c-0.9-1.7-1.1-3.5-1.2-5
			c-11.6-0.4-19.3-0.7-19.3-0.7s-19.2-3.3-32.4,4.3c-13.2,7.6-14.1,15.3-26.8,13.6c-6.9-0.9-13-3.1-17.2-4.8
			c-0.3,5.1-0.8,10.3-1.6,15.4c-3.5,21-11.5,32.9-23.8,35.2V268c1.3,0,15.8-7.7,28.5-10.7c12.8-3,33.6-4.3,42.2-9.8
			c8.5-5.5,16.6-6,16.6-6L118,375.4l14.5,23.4l88.6,7.7l28.5-3.8c0,0-1.7-101-4.3-121.6C242.8,260.4,241.9,254.4,241.9,254.4z"/>
	</g>
	<path class="st0" d="M250.9,273.6c0,0,4.7,28.5,21.3,30.7c16.6,2.1,22.1,3.4,29,8.5c6.8,5.1,23,10.6,34.5-6
		c11.5-16.6,32.4-43,48.1-56.2c15.8-13.2,18.3-28.7,14.1-31c-4.3-2.3-7.7-8.2-22.1,8.4c-14.5,16.6-16.6,19.2-20.9,17
		c-4.3-2.1,0-10.2,8.9-20c8.9-9.8,30.2-36.2,29.8-40.5s-0.9-7.2-4.7-9.8c-3.8-2.6-8.5,0-16.2,8.9S342,226.3,339,228.4
		c-3,2.1-11.1,10-5.5-8.8c5.5-18.9,20-52.5,20.9-56.8s3.4-14.1-3.4-15.3c-6.8-1.3-14.9,3.8-19.6,20.9s-17.5,46.9-18.7,48.6
		c-1.3,1.7-11.5,15.8-10.2-0.4s10.6-56.6,9.8-61.3c-0.9-4.7,0.9-10.6-7.7-10.6s-14.1,6.8-17,32.8c-3,26-6.8,42.6-8.1,47.7
		c-1.3,5.1-10.2,25.6-18.3,3.8c-8.1-21.7-28.1-37.4-37.5-28.5c-9.4,8.9-9.8,18.7,0.4,29C224,229.3,245.3,239.5,250.9,273.6z"/>
	<path class="st0" d="M138,153.5c0,0-3.8-0.9-4.7-12.4c-0.9-11.5,1.7-11.4,4.7-14c-0.4-10.3-3.6-16.7-2.4-20.9
		c1.1-4.3,8-24.7,38.6-27.3c30.7-2.6,32.4,0.9,36.2,2.6s-4.3,3.4-5.5,3.4s7,3.8,11.6,6s-9.1,0.9-9.1,0.9s14.9,4.7,16.2,7.2
		c1.3,2.6-12.4-0.4-12.4-0.4s8.9,2.6,8.9,10.2s-3.7,13.6-3.7,13.6s7.7,3,7.2,13.2s-1.1,17.5-7.2,17.9c-1.4,8.1-2.7,34-14.6,38.1
		s-6,14.5-6.4,14.8c-0.4,0.3,4,11-17.1,11c-17,0-18.7-16.1-20.6-19.5s1.1-8.6-6.2-13.2c-7.2-4.7-11.1-16.2-11.9-21.7
		S138,153.5,138,153.5z"/>
	<path class="st0" d="M33.6,162.8c0,0,20.9,2.1,21.3,13.6s5.1,74.6-24.3,77.9C17,256,33.6,162.8,33.6,162.8z"/>
</g>
<path class="st1" d="M213.8,427.3C95.7,427.4-0.3,331.8,0,213.8C0.3,93.4,96.4,0.3,213.7,0c118-0.3,213.7,95.9,213.2,214.5
	C426.5,331.7,332.4,426.8,213.8,427.3L213.8,427.3z M283.5,305.7c0.1-0.7-0.2-1.1-0.9-1.2c-4-4.2-7.9-8.5-12-12.6
	c-27.8-27.9-55.6-55.7-83.6-83.5c-6.8-6.8-13-14.2-20.6-20.1c-0.3-0.4-0.4-0.9-0.8-1.3c-29.8-29.8-59.6-59.5-89.3-89.4
	c-2.4-2.4-3.4-1.9-5.3,0.4c-25.9,32.7-39.8,69.8-40.6,111.6c-0.3,13.9,0.6,27.8,3.6,41.5c11.2,50.3,38.3,89.6,81.6,117.5
	c23.1,14.8,48.3,24.4,75.8,26.9c14.8,1.3,29.4,2.4,44.5,0.3c35-4.9,66-18,93.5-39.9c2.3-1.9,2.2-3,0.2-5c-6-5.7-11.9-11.7-17.8-17.5
	c-3.5-3.7-6.9-7.6-10.6-11.1c-2.9-2.8-5-6.6-9.3-7.8c-2-3.8-5-6.6-8.5-9L283.5,305.7L283.5,305.7z M215.9,193.9c0.3,2,2.1,3,3.3,4.2
	c18.8,18.8,37.5,37.7,56.3,56.5c22.2,22.2,44.5,44.3,66.8,66.4c2.9,3,6,5.8,8.8,8.9c1.9,2.1,3,1.6,4.6-0.4
	c39.6-51.1,51.2-108,32.8-169.8C366.4,85.4,300.7,34.8,223.2,30.6c-44.5-2.4-84.6,10.1-120.3,36.8c-8.1,6-8.1,6.2-1.2,13.1
	c15.9,15.8,31.9,31.6,47.8,47.4c1.2,1.4,2.3,2.9,3.5,4.1c11.1,11.2,22.2,22.4,33.5,33.5c6,5.9,11.4,12.5,18.3,17.5
	C208,187.1,211.6,190.9,215.9,193.9L215.9,193.9z"/>
<path class="st2" d="M283.5,305.7c-1.3,0.3-0.8-0.7-0.9-1.2C283.3,304.6,283.6,305,283.5,305.7z"/>
</svg>
