<?xml version="1.0" encoding="utf-8"?>
<!-- Generator: Adobe Illustrator 27.0.0, SVG Export Plug-In . SVG Version: 6.00 Build 0)  -->
<svg version="1.1" id="Layer_2_00000085229093353468121430000001134575862003205521_"
	 xmlns="http://www.w3.org/2000/svg" xmlns:xlink="http://www.w3.org/1999/xlink" x="0px" y="0px" viewBox="0 0 427.3 427.3"
	 style="enable-background:new 0 0 427.3 427.3;" xml:space="preserve">
<style type="text/css">
	.st0{fill:#FFF200;}
</style>
<circle class="st0" cx="213.7" cy="213.7" r="213.7"/>
<path d="M213.6,335.9c-35.8,0-71.6,0-107.3,0c-39.3,0-62.4-39.7-42.8-73.9c35.8-62.3,71.8-124.5,107.8-186.7
	c19.3-33.3,65.4-33.5,84.7-0.1c36.2,62.4,72.3,124.9,108.3,187.5c17.4,30.2-0.1,66.9-34.3,72.6c-2.9,0.5-6,0.5-9,0.5
	C285.1,335.9,249.4,335.9,213.6,335.9C213.6,335.9,213.6,335.9,213.6,335.9z M213.3,315.2c36,0,72-0.3,108,0.1
	c22.2,0.3,36.2-23.2,24.9-42.5c-22.5-38.6-44.7-77.3-67-116c-13.8-23.9-27.4-47.9-41.4-71.7c-11.3-19.2-37.6-18.7-48.6,0.6
	c-6.4,11.2-12.9,22.3-19.3,33.5c-29.6,51.3-59.3,102.6-88.8,154c-2.1,3.7-3.4,8.2-3.9,12.4c-1.5,13.8,9.6,29.9,29.4,29.7
	C142.2,315,177.7,315.2,213.3,315.2z M228.3,235.3c0-30,0-59.9,0-89.9c0-2.3-0.8-3.2-3.2-3.2c-7.4,0.1-14.8,0.2-22.2,0
	c-3.3-0.1-4.2,1-4.2,4.2c0.1,29.2,0.1,58.4,0.1,87.6c0,0.9-0.2,1.8,0.1,2.5c0.3,0.7,1.1,1.7,1.7,1.7c9,0.1,18,0.1,27.2,0.1
	C228.1,237.2,228.3,236.3,228.3,235.3z M213.7,252.5c-9.4,0-16.9,7.5-17,17c-0.1,9.4,7.4,17.1,16.8,17.2c9.3,0.1,17.1-7.5,17.2-16.8
	C230.7,260.4,223.1,252.5,213.7,252.5z"/>
</svg>
