<?xml version="1.0" encoding="UTF-8"?>
<svg id="Layer_2" data-name="Layer 2" xmlns="http://www.w3.org/2000/svg" viewBox="0 0 427.34 427.34">
  <defs>
    <style>
      .cls-1 {
        fill: #fff200;
      }
    </style>
  </defs>
  <g id="Layer_1-2" data-name="Layer 1">
    <g>
      <circle class="cls-1" cx="213.67" cy="213.67" r="213.67"/>
      <path d="M180.06,145.25c-3.1,0-5.86,.08-8.62-.03-1.48-.06-1.55,1-1.95,1.88-6.67,14.74-24.79,19.54-37.85,10.03-8.16-5.95-12.02-16.58-9.53-26.31,2.57-10.07,10.74-17.43,20.89-18.84,11.24-1.56,21.76,4.22,26.43,14.65,.64,1.43,1.36,1.9,2.89,1.89,16.38-.05,32.76-.05,49.15,0,1.52,0,2.27-.44,2.91-1.87,4.85-10.85,15.52-15.95,25.11-14.86,11.94,1.36,20.65,9.6,22.63,20.91,2.13,12.15-5.41,24.45-17.25,28.19-11.96,3.77-24.89-1.8-30.18-13.21-.93-2.02-1.96-2.64-4.03-2.47-2.23,.18-4.48,.04-6.98,.04,0,4.53,0,8.87,0,13.22,0,2.26-.72,4.91,.23,6.66,.91,1.69,3.69,2.27,5.38,3.66,3.42,2.79,6.63,5.84,10.01,8.68,.79,.67,1.93,1.3,2.91,1.31,10.56,.09,21.11,.03,31.67,.06,28.79,.09,53.03,20.19,57.9,48.56,1.21,7.03,.74,14.36,1.02,21.55,.07,1.73,0,3.46,0,5.26,3.92,.45,6.67,2.26,7.89,5.85,1.86,5.46-2.14,11-7.97,11.01-12.45,.04-24.9,.01-37.35,.01-4.3,0-8.59,.02-12.89,0-4.55-.03-8.04-3.23-8.51-7.72-.42-4.05,2.57-8.08,6.8-8.83,1.39-.25,1.58-.84,1.57-2.01-.04-4.88,.02-9.76-.03-14.63-.05-5.27-3.53-8.72-8.79-8.73-10.41-.02-20.82,.03-31.24-.04-1.48-.01-2.37,.53-3.28,1.61-9.75,11.38-22.18,16.48-37.04,14.9-10.52-1.12-19.41-5.93-26.33-13.98-1.65-1.92-3.26-2.56-5.71-2.55-18.13,.1-36.26,.06-54.39,.05-5.95,0-9.36-3.38-9.36-9.3-.01-10.56-.01-21.11,0-31.67,0-5.97,3.35-9.32,9.33-9.32,18.64,0,37.28-.02,55.92,.02,1.34,0,2.3-.29,3.17-1.39,3.77-4.75,8.53-8.28,13.92-11.01,.61-.31,1.45-1.02,1.46-1.56,.1-6.46,.07-12.93,.07-19.65Zm139.46,189.24c3.67-6.54,4.07-13.56,2.28-20.72-2.93-11.71-9.44-21.47-17.11-30.52-4.35-5.13-10.17-5.2-14.29,.15-4.29,5.56-8.3,11.39-11.92,17.42-3.34,5.56-5.36,11.7-5.97,18.28-1.45,15.54,9.39,27.53,26.57,27.54,7.87-.31,15.65-3.61,20.44-12.14Z"/>
    </g>
  </g>
</svg>