<svg xmlns="http://www.w3.org/2000/svg" xmlns:xlink="http://www.w3.org/1999/xlink" viewBox="0 0 51.17 62.91"><defs><style>.cls-1{fill:none;}.cls-2{clip-path:url(#clip-path);}.cls-3{fill:#fff;}</style><clipPath id="clip-path" transform="translate(0)"><rect class="cls-1" width="51.17" height="62.91"/></clipPath></defs><g id="Layer_2" data-name="Layer 2"><g id="Ñëîé_1" data-name="Ñëîé 1"><g id="Grupo_5" data-name="Grupo 5"><g class="cls-2"><g id="Grupo_4" data-name="Grupo 4"><path id="Caminho_25" data-name="Caminho 25" class="cls-3" d="M44.89,62.91H6.28A6.22,6.22,0,0,1,0,56.77V27.47a6.22,6.22,0,0,1,6.15-6.28H44.89a6.22,6.22,0,0,1,6.28,6.15V56.77a6.21,6.21,0,0,1-6.28,6.14M6.28,27a.45.45,0,0,0-.48.41V56.77a.45.45,0,0,0,.48.34H44.89a.43.43,0,0,0,.47-.34V27.47A.44.44,0,0,0,45,27H6.28Z" transform="translate(0)"/><path id="Caminho_26" data-name="Caminho 26" class="cls-3" d="M39.76,27a2.9,2.9,0,0,1-2.9-2.9h0V8.84a3.08,3.08,0,0,0-3-3H17.35a3.08,3.08,0,0,0-3,3V24.1a2.9,2.9,0,0,1-5.8,0h0V8.84A8.86,8.86,0,0,1,17.35,0H33.82a8.84,8.84,0,0,1,8.84,8.84V24.1A2.89,2.89,0,0,1,39.77,27h0" transform="translate(0)"/><path id="Caminho_27" data-name="Caminho 27" class="cls-3" d="M25.59,47.93a2.9,2.9,0,0,1-2.9-2.9h0V39.09a2.9,2.9,0,1,1,5.8,0V45a2.9,2.9,0,0,1-2.9,2.9h0" transform="translate(0)"/></g></g></g></g></g></svg>