<?xml version="1.0" encoding="UTF-8"?>
<svg id="Layer_2" data-name="Layer 2" xmlns="http://www.w3.org/2000/svg" viewBox="0 0 426.98 427.34">
  <defs>
    <style>
      .cls-1 {
        fill: #fefdfd;
      }

      .cls-2 {
        fill: #ea2225;
      }

      .cls-3 {
        fill: #15161f;
      }
    </style>
  </defs>
  <g id="Layer_1-2" data-name="Layer 1">
    <g>
      <path class="cls-3" d="M248.88,199.35c0-16.62-6.53-25.74-6.53-25.74-1.61-3.33-3.84-6.23-6.21-9.02-1.1-1.29-1.98-2.55-2.14-4.35-1.99-22.54-4.1-45.07-5.99-67.62-.24-2.91-1.67-5.92-.26-8.82,1.6-3.31,1.24-6.49-.27-9.6-1.48-3.05-2.37-5.8,1.04-8.25,.84-.61,1.71-1.84,1.01-3.08-.56-.99-1.78-.67-2.71-.67-9.49,0-18.98,.07-28.48,.07-1.92,0-3.41,1.03-2.11,2.54,3.31,3.84,1.94,7.54,.69,11.49-.67,2.09-.68,4.37,.51,6.3,1.16,1.87,.99,3.7,.8,5.74-2.13,23.69-4.23,47.39-6.2,71.1-.21,2.48-.93,4.37-2.54,6.23-6.81,7.91-10.58,17.11-11.74,27.51-1.31,11.8-.28,23.61-.64,35.41l-.3,31.42c-.15,14.99-.32,29.98-.44,44.96-.13,16.99-.31,33.98-.25,50.96,.02,6.89,2.05,8.73,8.4,8.79,18.48,.16,36.97,.33,55.45,.47,7.89,.06,9.59-1.63,9.93-9.49,2.23-52.13-.1-104.24-1.04-156.35Z"/>
      <path class="cls-2" d="M213.76,427.34C95.72,427.36-.33,331.75,0,213.79,.33,93.42,96.39,.29,213.73,0c117.98-.29,213.7,95.94,213.25,214.5-.45,117.22-94.57,212.28-213.22,212.85Zm69.72-121.64c.14-.7-.22-1.06-.85-1.23-4.01-4.2-7.94-8.49-12.05-12.6-27.83-27.85-55.63-55.74-83.59-83.45-6.81-6.75-12.97-14.19-20.6-20.1-.26-.42-.45-.92-.8-1.26-29.78-29.78-59.59-59.52-89.3-89.38-2.38-2.39-3.43-1.9-5.28,.44-25.88,32.72-39.8,69.78-40.64,111.6-.28,13.95,.57,27.8,3.61,41.47,11.17,50.31,38.3,89.63,81.59,117.49,23.06,14.84,48.28,24.37,75.78,26.86,14.78,1.33,29.43,2.43,44.48,.33,34.97-4.89,66.02-17.99,93.52-39.93,2.33-1.86,2.24-3,.18-4.96-6.02-5.74-11.86-11.66-17.78-17.5-3.5-3.72-6.86-7.59-10.56-11.1-2.92-2.77-5.02-6.59-9.27-7.79-2.03-3.77-5.04-6.61-8.54-8.99l.09,.1Zm-67.55-111.77c.34,2,2.06,2.96,3.31,4.22,18.76,18.84,37.51,37.69,56.33,56.46,22.24,22.18,44.54,44.29,66.81,66.43,2.94,2.95,5.99,5.8,8.77,8.89,1.92,2.14,3.01,1.59,4.56-.42,39.65-51.08,51.24-107.98,32.81-169.84-22.12-74.25-87.86-124.89-165.34-129.07-44.52-2.4-84.6,10.13-120.3,36.76-8.09,6.03-8.1,6.19-1.19,13.08,15.9,15.84,31.89,31.6,47.84,47.39,1.18,1.38,2.26,2.85,3.54,4.13,11.13,11.19,22.22,22.43,33.49,33.48,6.02,5.9,11.36,12.52,18.27,17.5,3.2,4.16,6.79,7.93,11.1,10.98Z"/>
      <path class="cls-1" d="M283.48,305.71c-1.29,.29-.78-.67-.85-1.23,.63,.17,.99,.53,.85,1.23Z"/>
    </g>
  </g>
</svg>