<?xml version="1.0" encoding="UTF-8"?>
<svg id="Layer_2" data-name="Layer 2" xmlns="http://www.w3.org/2000/svg" viewBox="0 0 427.34 427.34">
  <defs>
    <style>
      .cls-1 {
        fill: #fff;
      }

      .cls-2 {
        fill: #39b54a;
      }
    </style>
  </defs>
  <g id="Layer_1-2" data-name="Layer 1">
    <g>
      <circle class="cls-2" cx="213.67" cy="213.67" r="213.67"/>
      <path class="cls-1" d="M193.44,386.48c-7.77-2.75-10.5-8.37-10.46-16.43,.18-44.08,.06-88.16,.14-132.25,0-2.88-.72-5.06-2.7-7.23-7.2-7.88-14.21-15.95-21.29-23.95-3.5-3.96-4.83-8.43-3.67-13.71,3.31-15,6.48-30.03,9.72-45.05,1.66-7.71,10.14-11.65,16.84-7.48,1.65,1.03,3.27,3.87,3.11,5.72-.51,6.01-1.8,11.95-2.9,17.9-1.35,7.28-3.11,14.5-4.07,21.82-.32,2.48,.61,5.72,2.13,7.73,3.52,4.64,7.67,8.82,11.74,13,.87,.89,2.52,1.44,3.82,1.45,11.92,.11,23.84,.12,35.76-.01,1.36-.02,3.05-.78,4.01-1.76,3.85-3.93,7.47-8.09,11.2-12.15,2.2-2.4,3.12-5.19,2.51-8.38-2.24-11.79-4.51-23.57-6.82-35.35-1.19-6.07-.01-9.7,4.1-10.6,6.83-1.49,12.71-.55,14.74,5.68,1.83,5.63,2.81,11.54,4.08,17.34,2.15,9.86,4.1,19.77,6.38,29.59,1.31,5.67-.06,10.37-3.85,14.61-7.42,8.3-14.72,16.7-22.19,24.96-1.77,1.96-2.53,3.91-2.53,6.59,.08,43.63-.04,87.26,.15,130.9,.04,8.06-2.42,13.94-10.13,17.06h-7.42c-7.86-3.19-10.25-9.25-10.12-17.4,.3-20.12,.1-40.25,.1-60.37v-3.93h-5.49v3.77c0,20.46-.22,40.93,.11,61.38,.13,8.08-2.6,13.64-10.24,16.54h-6.75ZM234.09,103.42c5.61-.06,11.22-.19,16.82-.51,2.92-.17,5.44-1.45,6.74-4.3,1.36-2.97,.07-5.51-1.69-7.78-1.3-1.68-2.83-3.19-4.39-4.64-7.41-6.88-14.64-13.98-22.4-20.45-3.87-3.22-5.09-6.57-4.94-11.45,.36-11.73-1.95-13.75-13.66-13.39-5.13,.16-8.2,3.04-8.41,8.11-.14,3.37,.09,6.75-.13,10.11-.08,1.17-.71,2.59-1.57,3.38-8.88,8.27-17.91,16.38-26.76,24.68-1.93,1.81-3.69,3.99-4.86,6.34-1.79,3.6-.36,7.17,3.45,8.47,2.8,.95,5.91,1.34,8.89,1.39,10.67,.16,21.35,.06,32.02,.06,6.97,0,13.93,.06,20.9-.02Zm-20.8,98.04c15.57-.14,28.63-13.34,28.41-28.71-.22-15.65-13.34-28.65-28.69-28.45-15.69,.21-28.41,13.11-28.34,28.73,.08,15.64,13.09,28.57,28.62,28.43Zm-33.1-81.4c-.58-1.11-1.72-1.93-2.62-2.87-.88,.96-1.99,1.8-2.57,2.91-.41,.8-.2,1.97-.12,2.96,.19,2.29-.9,5.8,2.57,5.89,3.84,.1,2.54-3.6,2.82-5.23,0-1.71,.33-2.88-.08-3.67Zm65.88,3.06c0,.89-.29,1.93,.06,2.65,.6,1.23,1.61,2.25,2.45,3.37,.94-1.04,2.44-1.96,2.7-3.15,.44-2.02,.37-4.27-.05-6.31-.2-.96-1.69-2.28-2.59-2.29-.85,0-2,1.39-2.46,2.42-.42,.93-.09,2.19-.09,3.31,0,0-.02,0-.03,0Zm-54.71-12.53c-.56-1.1-1.66-1.92-2.54-2.86-.89,.83-2.37,1.55-2.54,2.51-.39,2.16-.44,4.5-.01,6.64,.21,1.06,1.79,1.85,2.74,2.76,.81-1.02,1.84-1.95,2.36-3.11,.38-.83,.07-1.97,.07-2.98,0-1,.32-2.17-.08-2.97Zm24.33,.51c-.59-1.22-1.41-2.98-2.43-3.21-2.05-.46-2.82,1.27-2.86,3.16-.03,1.78-.35,3.66,.11,5.32,.34,1.24,1.7,2.19,2.61,3.27,.88-1.07,1.93-2.05,2.56-3.25,.37-.7,.07-1.75,.07-2.64,0-.89,.29-1.92-.06-2.64Zm24.34,2.57c0-.89,.29-1.93-.07-2.64-.6-1.21-1.62-2.21-2.46-3.3-.94,1.01-2.44,1.91-2.68,3.07-.43,2.02-.37,4.26,.05,6.3,.2,.98,1.68,2.32,2.61,2.34,.82,.02,1.97-1.43,2.44-2.47,.41-.93,.09-2.19,.09-3.3,0,0,.02,0,.03,0Zm-41.27,12.49c.51,1.14,1.65,1.99,2.52,2.97,.92-.96,2.1-1.79,2.66-2.93,.44-.9,.2-2.19,.12-3.3-.16-2.29,.82-5.67-2.89-5.58-3.48,.09-2.22,3.41-2.5,4.97,0,1.67-.33,2.93,.08,3.86Zm23.62-2.89c0,.78,.02,1.56,0,2.34-.05,1.9,.61,3.67,2.65,3.35,1.04-.17,2.32-1.91,2.6-3.14,.43-1.91,.41-4.07-.06-5.96-.26-1.05-1.81-1.78-2.77-2.65-.8,.91-1.87,1.7-2.3,2.76-.39,.95-.08,2.2-.08,3.31h-.03Z"/>
    </g>
  </g>
</svg>