<?xml version="1.0" encoding="utf-8"?>
<!-- Generator: Adobe Illustrator 27.0.0, SVG Export Plug-In . SVG Version: 6.00 Build 0)  -->
<svg version="1.1" id="Layer_2_00000154389325652533164630000015208861823696268936_"
	 xmlns="http://www.w3.org/2000/svg" xmlns:xlink="http://www.w3.org/1999/xlink" x="0px" y="0px" viewBox="0 0 293 293"
	 style="enable-background:new 0 0 293 293;" xml:space="preserve">
<style type="text/css">
	.st0{fill:url(#SVGID_1_);}
	.st1{fill:#FFFFFF;}
	.st2{fill:#00DFFC;}
</style>
<g>
	
		<linearGradient id="SVGID_1_" gradientUnits="userSpaceOnUse" x1="443.4" y1="-432.5236" x2="736.3724" y2="-432.5236" gradientTransform="matrix(-0.8246 0.5657 -0.5657 -0.8246 388.2793 -543.8514)">
		<stop  offset="0" style="stop-color:#551AA3"/>
		<stop  offset="0.5286" style="stop-color:#3D24AD"/>
		<stop  offset="1" style="stop-color:#2B79B4"/>
	</linearGradient>
	<circle class="st0" cx="146.5" cy="146.5" r="146.5"/>
	<g>
		<path class="st1" d="M177,71.4v32.3c0,1.3-0.1,2.6-0.3,3.8c14.7,9.5,24.4,25.8,24.4,44.4c0,29.4-24.5,53.3-54.6,53.3
			c-30.1,0-54.6-23.9-54.6-53.3c0-18.5,9.7-34.8,24.4-44.4c-0.2-1.2-0.3-2.5-0.3-3.8V71.4c-33.6,12.1-57.7,43.6-57.7,80.5
			c0,47.3,39.6,85.7,88.1,85.7c48.6,0,88.2-38.5,88.2-85.7C234.7,114.9,210.6,83.5,177,71.4z"/>
		<g>
			<path class="st2" d="M146.5,119.5c-9.4,0-17-7.2-17-15.9V53.8c0-8.8,7.6-15.9,17-15.9s17,7.2,17,15.9v49.8
				C163.5,112.4,155.9,119.5,146.5,119.5z"/>
		</g>
	</g>
</g>
</svg>
