<?xml version="1.0" encoding="utf-8"?>
<!-- Generator: Adobe Illustrator 27.0.0, SVG Export Plug-In . SVG Version: 6.00 Build 0)  -->
<svg version="1.1" id="Layer_1" xmlns="http://www.w3.org/2000/svg" xmlns:xlink="http://www.w3.org/1999/xlink" x="0px" y="0px"
	 viewBox="0 0 402 313.8" style="enable-background:new 0 0 402 313.8;" xml:space="preserve">
<g id="Grupo_10">
	<path id="Caminho_16" d="M0,284.1c0.3-0.4,0.5-0.9,0.7-1.4c2.6-11.7,13.2-19.9,25.2-19.6c6.9-0.1,13.9,0,20.8,0
		c76.2,0,152.3,0,228.5,0c41.5,1,76-31.9,77-73.4c1-41.5-31.9-76-73.4-77c-42.4-1.2-84.8-0.3-127.2-0.3c-0.4,0.1-0.7,0.2-1,0.4
		c0.6,0.8,1.2,1.6,1.9,2.3c5.1,5.1,10.4,10.3,15.5,15.6c10.2,9.4,10.8,25.3,1.4,35.5c-9.4,10.2-25.3,10.8-35.5,1.4
		c-0.5-0.5-1-0.9-1.4-1.4c-20.2-20.1-40.4-40.3-60.5-60.6c-10.1-9.3-10.9-25-1.6-35.1c0.5-0.6,1-1.1,1.6-1.6
		C92,48.7,112.2,28.5,132.4,8.4c9.2-10.4,25.1-11.3,35.5-2s11.3,25.1,2,35.5c-0.6,0.7-1.2,1.3-1.9,1.9c-5.7,5.9-11.6,11.6-18.4,18.4
		h5.4c39.8,0,79.6,0,119.3,0C343.7,61,400.9,116.3,402,185.7c1,62.1-43.5,115.6-104.8,125.9c-7.8,1.2-15.6,1.7-23.4,1.7
		c-80.9,0.1-161.7-0.1-242.6,0.2C17,315.7,3.5,306.7,0,292.8V284.1"/>
</g>
</svg>
