<?xml version="1.0" encoding="utf-8"?>
<!-- Generator: Adobe Illustrator 27.0.0, SVG Export Plug-In . SVG Version: 6.00 Build 0)  -->
<svg version="1.1" id="Layer_2_00000085229093353468121430000001134575862003205521_"
	 xmlns="http://www.w3.org/2000/svg" xmlns:xlink="http://www.w3.org/1999/xlink" x="0px" y="0px" viewBox="0 0 427.3 427.3"
	 style="enable-background:new 0 0 427.3 427.3;" xml:space="preserve">
<style type="text/css">
	.st0{fill:#FFF200;}
</style>
<circle class="st0" cx="213.7" cy="213.7" r="213.7"/>
<g id="Layer_1-2">
	<path d="M124.7,169.7c-2.4,11.7-4.9,23.5-7.3,35.2c-2.1,10-4,20-6.3,29.9c-1.4,6-7.2,9.7-12.9,8.9c-5.9-0.8-10.5-5.5-10.6-11.6
		c-0.1-2.9,0.7-5.8,1.3-8.6c6.3-30.6,12.7-61.2,19-91.8c1.9-9,5.7-12.2,14.7-12.2c20.2,0,40.3,0.1,60.5,0c6.6,0,10.9,2.7,13.5,8.9
		c12.6,30.8,25.3,61.5,38,92.2c1.3,3.1,2.5,6.1,3.9,9.1c0.4,0.9,1.2,1.8,2.1,2.2c4.4,2.2,8.8,4.3,13.6,6.5
		c3.8-9.2,7.6-18.2,11.3-27.3c3.2-7.9,4.5-8.9,12.9-8.9c12.6,0,25.2,0,37.8,0c6.2,0,8.7,2,10,7.9c4.5,21.2,8.9,42.5,13.3,63.7
		c0.8,3.8,0.8,7.5-2.6,10.1c-2.5,1.9-5.6,2.8-8.1,0.9c-2.2-1.7-4.4-4.4-5-7c-3-13.2-5.5-26.4-8.3-39.7c-0.1-0.7-0.5-1.4-1.3-1.9
		c0,1,0,2,0,3c0,40.9,0,81.7-0.1,122.6c0,6.7-3.7,10.8-9.6,10.7c-5.6-0.1-9.4-4.2-9.4-10.6c-0.1-12.6,0-25.2,0-37.8
		c0-9.6,0-19.1,0-28.7c0-1.3-0.2-2.7-0.3-4c-0.4,0-0.8,0-1.2,0c-0.2,1.6-0.4,3.1-0.4,4.7c0,21.1,0.1,42.2,0.1,63.3
		c0,2.1-0.1,4.3-0.6,6.3c-1.1,4.5-5.3,7.2-9.9,6.8c-4.5-0.4-8.1-4-8.4-8.6c-0.1-1.4-0.1-2.9-0.1-4.4c0-39.8,0-79.6,0-119.4
		c0-1.9,0-3.8-0.8-5.9c-2.3,5.4-4.6,10.8-6.8,16.3c-2.8,6.8-6.8,8.3-13.5,5.1c-6.1-2.9-12.1-6-18.3-8.7c-1.6-0.7-3.6-1-5.3-0.8
		c-6.5,0.6-10.9-1.9-13.4-8.1c-9.8-23.6-19.5-47.2-29.3-70.8c-0.1-0.3-0.3-0.6-1.2-1c0,1.4,0,2.7,0,4.1c0,62-0.1,123.9-0.1,185.9
		c0,5.2-1,9.8-5.2,13.2c-4.5,3.6-9.6,4.4-14.9,1.9c-5.4-2.6-8.2-7-8.2-13c0-33.7,0-67.4-0.1-101.1c0-1.7,1.8-4.5-1.7-4.9
		c-0.3,0-1.4,3.2-1.4,4.9c-0.1,33.7-0.1,67.4-0.1,101.1c0,6.7-3.8,11.9-9.9,13.8c-5.9,1.9-12.5-0.2-15.6-5.5
		c-1.6-2.7-2.5-6.2-2.5-9.4c-0.1-37,0-74,0-111.1c0-25.1-0.1-50.1-0.2-75.2c0-0.4-0.1-0.8-0.2-1.1
		C125.2,169.8,124.9,169.8,124.7,169.7L124.7,169.7z M185.5,83.9c-0.2-16.3-13.6-29.5-29.9-29.5c-16.7,0-30.2,13.5-30.1,30.1
		c0.1,16.5,13.5,29.7,30.1,29.7C172.3,114.1,185.8,100.5,185.5,83.9z M294.7,158.6c-11.4-0.2-20.5,8.4-20.6,19.6
		c-0.2,11.4,8.4,20.4,19.6,20.6c11.3,0.2,20.3-8.5,20.5-19.8C314.3,167.9,305.7,158.8,294.7,158.6L294.7,158.6z"/>
</g>
</svg>
