<?xml version="1.0" encoding="utf-8"?>
<!-- Generator: Adobe Illustrator 27.0.0, SVG Export Plug-In . SVG Version: 6.00 Build 0)  -->
<svg version="1.1" id="Layer_1" xmlns="http://www.w3.org/2000/svg" xmlns:xlink="http://www.w3.org/1999/xlink" x="0px" y="0px"
	 viewBox="0 0 56.9 56.8" style="enable-background:new 0 0 56.9 56.8;" xml:space="preserve">
<style type="text/css">
	.st0{fill:#E74E50;}
	.st1{fill:#FFFFFF;}
</style>
<path class="st0" d="M28.6,0C44.3,0.1,57,12.8,56.9,28.4c-0.1,15.9-12.8,28.4-28.8,28.3C12.5,56.7-0.1,43.8,0,28.1
	C0.1,12.5,12.9-0.1,28.6,0z"/>
<text transform="matrix(1 0 0 1 28.0631 -58.9088)"><tspan x="0" y="0" style="font-family:'MyriadPro-Regular'; font-size:12px;">Em caso de</tspan><tspan x="0" y="14.4" style="font-family:'MyriadPro-Regular'; font-size:12px;">emergência</tspan><tspan x="0" y="28.8" style="font-family:'MyriadPro-Regular'; font-size:12px;">clique aqui</tspan></text>
<g>
	<path class="st1" d="M12.6,29.5h2.6v1h-1.6v0.7h1.2v1h-1.2v0.6h1.7v1h-2.7V29.5z"/>
	<path class="st1" d="M19.1,29.5l-1.4,4.4h-0.9l-1.4-4.4h1.1l0.7,2.7h0l0.7-2.7H19.1z"/>
	<path class="st1" d="M21.2,33.2h-1.2l-0.2,0.7h-1.1l1.4-4.4h1l1.4,4.4h-1.1L21.2,33.2z M20.9,32.2l-0.3-1.3h0l-0.3,1.3H20.9z"/>
	<path class="st1" d="M24.4,33.9c-1.1,0-2-0.8-2-2.3c0-1.3,0.7-2.3,2-2.3c0.5,0,1.1,0.3,1.6,0.8L25.2,31c-0.2-0.2-0.5-0.5-0.8-0.5
		c-0.5,0-0.9,0.4-0.9,1.1c0,0.6,0.3,1.1,0.9,1.1c0.3,0,0.6-0.2,0.8-0.4l0.8,0.7C25.6,33.6,25,33.9,24.4,33.9L24.4,33.9z"/>
	<path class="st1" d="M26.3,32v-2.5h1V32c0,0.5,0.2,0.9,0.6,0.9c0.3,0,0.6-0.3,0.6-0.9v-2.5h1V32c0,1.2-0.6,1.9-1.6,1.9
		C26.9,33.9,26.3,33.3,26.3,32z"/>
	<path class="st1" d="M32.1,33.2h-1.2l-0.2,0.7h-1.1l1.4-4.4h1l1.4,4.4h-1.1L32.1,33.2z M31.8,32.2l-0.3-1.3h0l-0.3,1.3H31.8z"/>
	<path class="st1" d="M36.1,32.4l0.8,0.7c-0.3,0.4-0.8,0.8-1.5,0.8l-0.1,0.1l0,0c0.3,0,0.5,0.2,0.5,0.5c0,0.3-0.2,0.5-0.7,0.5
		c-0.2,0-0.3,0-0.4,0v-0.4c0.1,0,0.1,0,0.3,0c0.1,0,0.2,0,0.2-0.2c0-0.1-0.2-0.2-0.4-0.2v-0.2l0.1-0.2v0c-0.9-0.2-1.6-0.9-1.6-2.2
		c0-1.3,0.7-2.3,2-2.3c0.5,0,1.1,0.3,1.6,0.8L36.1,31c-0.2-0.2-0.5-0.5-0.8-0.5c-0.5,0-0.9,0.4-0.9,1.1c0,0.6,0.3,1.1,0.9,1.1
		C35.6,32.8,35.9,32.6,36.1,32.4z"/>
	<path class="st1" d="M39.4,33.2h-1.2L38,33.9h-1.1l1.4-4.4h1l1.4,4.4h-1.1L39.4,33.2z M38.2,29.1l-0.6-0.3c0.1-0.5,0.4-0.8,0.7-0.8
		c0.2,0,0.4,0.1,0.5,0.2c0.1,0.1,0.2,0.1,0.2,0.1c0.1,0,0.2-0.1,0.3-0.3l0.5,0.2c-0.1,0.5-0.4,0.9-0.7,0.9c-0.2,0-0.4-0.1-0.5-0.2
		c-0.1-0.1-0.2-0.1-0.3-0.1C38.4,28.9,38.3,29,38.2,29.1z M39.1,32.2l-0.3-1.3h0l-0.3,1.3H39.1z"/>
	<path class="st1" d="M40.6,31.7c0-1.3,0.8-2.3,2-2.3c1.2,0,2,0.9,2,2.3c0,1.3-0.8,2.3-2,2.3C41.4,33.9,40.6,33,40.6,31.7z
		 M43.5,31.7c0-0.6-0.4-1.2-0.9-1.2c-0.5,0-0.9,0.5-0.9,1.2c0,0.6,0.4,1.2,0.9,1.2C43.2,32.8,43.5,32.3,43.5,31.7z"/>
	<path class="st1" d="M7,36.7h1.4c1.2,0,2,0.9,2,2.3c0,1.3-0.7,2.2-2,2.2H7V36.7z M8.4,40.1c0.6,0,1-0.5,1-1.2
		c0-0.7-0.4-1.2-0.9-1.2H8.1v2.4H8.4z"/>
	<path class="st1" d="M11,36.7h2.6v1.1H12v0.7h1.2v1H12v0.6h1.7v1.1H11V36.7z"/>
	<path class="st1" d="M15.4,36.7H18v1.1h-1.6v0.7h1.2v1h-1.2v0.6h1.7v1.1h-2.7V36.7z"/>
	<path class="st1" d="M22.7,36.7v4.5h-1V39h0L21,40.4h-0.7L19.7,39h0v2.2h-1v-4.5h1.1l1,2.2h0l1-2.2H22.7z"/>
	<path class="st1" d="M23.3,36.7h2.6v1.1h-1.6v0.7h1.2v1h-1.2v0.6H26v1.1h-2.7V36.7z"/>
	<path class="st1" d="M28.5,41.2l-0.7-1.4h-0.2v1.4h-1v-4.5h1.6c1,0,1.4,0.7,1.4,1.6c0,0.7-0.2,1.1-0.7,1.3l0,0l0.9,1.6H28.5z
		 M27.5,38.8h0.3c0.3,0,0.6-0.2,0.6-0.5c0-0.3-0.2-0.5-0.6-0.5h-0.3V38.8z"/>
	<path class="st1" d="M29.8,38.9c0-1.3,0.7-2.3,2-2.3c0.6,0,1.2,0.3,1.6,0.8l-0.7,0.7c-0.2-0.2-0.5-0.4-0.9-0.4
		c-0.5,0-0.9,0.4-0.9,1.2c0,0.6,0.3,1.2,1,1.2c0.2,0,0.4,0,0.6-0.1v-0.4h-0.7v-1h1.7v2.1c-0.4,0.3-1,0.5-1.6,0.5
		C30.7,41.2,29.8,40.4,29.8,38.9z"/>
	<path class="st1" d="M36.7,40.1v1.1h-2.7v-4.5h2.6v1.1H35v0.7h1.2v1H35v0.6H36.7z M35,36.3h-0.8l0.6-1h0.9l0.6,1h-0.8l-0.2-0.4h0
		L35,36.3z"/>
	<path class="st1" d="M40.6,36.7v4.5h-1.1l-1.3-2.5h0v2.5h-1v-4.5h1.1l1.3,2.5h0v-2.5H40.6z"/>
	<path class="st1" d="M41,38.9c0-1.3,0.7-2.3,2.1-2.3c0.5,0,1.2,0.3,1.6,0.9l-0.8,0.8c-0.2-0.2-0.5-0.5-0.8-0.5
		c-0.5,0-0.9,0.4-0.9,1.2c0,0.6,0.4,1.1,0.9,1.1c0.3,0,0.6-0.2,0.8-0.5l0.8,0.8c-0.3,0.5-0.9,0.9-1.6,0.9C42,41.3,41,40.4,41,38.9z"
		/>
	<path class="st1" d="M45.1,36.7h1.1v4.5h-1.1V36.7z"/>
	<path class="st1" d="M49,40.5h-1.3l-0.2,0.7h-1.1l1.4-4.5h1l1.4,4.5h-1.1L49,40.5z M48.8,39.4l-0.4-1.3h0L48,39.4H48.8z"/>
</g>
<path class="st1" d="M27.4,23.3c-2.6,0-5.1,0-7.7,0c-1.4,0-1.9-0.8-1.2-2c2.9-5,5.8-9.9,8.7-14.9c0.7-1.3,1.7-1.2,2.4,0
	c2.9,4.9,5.8,9.8,8.6,14.7c0.1,0.2,0.2,0.3,0.3,0.5c0.4,0.8,0,1.6-0.9,1.7c-0.8,0-1.6,0-2.4,0C32.6,23.3,30,23.3,27.4,23.3
	C27.4,23.3,27.4,23.3,27.4,23.3z M19.6,21.9c5.9,0,11.7,0,17.6,0c-3-5-5.8-10-8.8-15C25.5,12,22.6,16.9,19.6,21.9z M29.6,11.7
	c0-0.1,0-0.1,0-0.2c0-0.9-0.2-1.1-1.2-1.1c-0.9,0-1.2,0.3-1.1,1.1c0.3,2.1,0.5,4.2,0.8,6.4c0,0.2,0.2,0.4,0.3,0.5
	c0.1-0.2,0.3-0.3,0.3-0.5C29.1,15.8,29.4,13.8,29.6,11.7C29.6,11.7,29.6,11.7,29.6,11.7z M28.4,21.2c0.6,0,1.1-0.4,1.1-1
	c0-0.6-0.4-1.1-1-1.1c-0.6,0-1.1,0.4-1.1,1C27.3,20.6,27.8,21.1,28.4,21.2z"/>
</svg>
