<?xml version="1.0" encoding="UTF-8"?>
<svg id="Layer_2" data-name="Layer 2" xmlns="http://www.w3.org/2000/svg" viewBox="0 0 427.34 427.34">
  <defs>
    <style>
      .cls-1 {
        fill: #fff200;
      }
    </style>
  </defs>
  <g id="Layer_1-2" data-name="Layer 1">
    <g>
      <circle class="cls-1" cx="213.67" cy="213.67" r="213.67"/>
      <path d="M240.11,301.73v35.15h-52.85v-35.04c-2.31-.13-4.46-.21-6.61-.38-10.36-.79-20.16-3.59-29.39-8.34-15.01-7.73-26.48-19.1-34.36-34.04-4.66-8.84-7.54-18.25-8.48-28.22-.27-2.8-.44-5.61-.46-8.42-.05-9.13-.13-18.27,.02-27.4,.2-12.4,10.18-23.45,22.49-25.01,2.69-.34,5.45-.31,8.17-.31,22.76-.03,45.51-.03,68.27-.03,17.29,0,34.58,0,51.87,.02,11.95,0,23.9-.11,35.84,.09,11.96,.2,23.05,10.46,24.46,22.37,.29,2.42,.29,4.88,.3,7.32,.03,7.91,.13,15.83,0,23.73-.4,23.14-9.23,42.55-26.26,58.15-10.85,9.94-23.64,16.24-38.1,18.94-4.42,.82-8.97,.96-13.47,1.4-.43,.04-.87,0-1.43,0Zm-35.26-52.84c-.13,.53-.2,.88-.31,1.22-1.73,5.59-3.53,11.17-5.16,16.78-.88,3.03-1.7,6.11-2.18,9.23-.57,3.69,1.24,6.32,4.8,7.5,3.39,1.12,6.5,.49,9.03-2.03,11.8-11.73,23.56-23.5,35.32-35.27,1.59-1.59,2.47-3.54,2.54-5.79,.17-5.19-3.67-9.11-9-9.16-5.34-.05-10.68,0-16.03-.01-.43,0-.85-.05-1.35-.07,.15-.5,.24-.85,.35-1.2,2.1-6.8,4.27-13.58,6.27-20.4,.6-2.05,.98-4.22,1.07-6.35,.14-3.4-1.45-5.52-4.69-6.63-3.62-1.24-6.81-.43-9.52,2.28-11.57,11.56-23.14,23.11-34.71,34.68-2.82,2.82-3.59,6.41-2.15,9.86,1.42,3.42,4.51,5.37,8.53,5.38,5.26,0,10.52,0,15.78,0,.43,0,.86,0,1.39,0Zm79.31-96.84c0-.41,0-.74,0-1.06,0-14.39,0-28.79,0-43.18,0-.85-.1-1.71-.22-2.55-1.53-9.99-11.47-16.68-21.31-14.34-8.21,1.95-13.71,8.9-13.71,17.36-.01,14.15,0,28.3,0,42.44v1.32h35.26Zm-105.72-.72c0-14.68,.06-29.36-.03-44.03-.05-8.57-7.51-16.24-16.08-16.79-10.64-.68-19.13,7.21-19.14,17.8-.01,14.15,0,28.3,0,42.45v1.33h35.2c.02-.34,.05-.55,.05-.75Z"/>
    </g>
  </g>
</svg>