<?xml version="1.0" encoding="utf-8"?>
<!-- Generator: Adobe Illustrator 27.0.0, SVG Export Plug-In . SVG Version: 6.00 Build 0)  -->
<svg version="1.1" id="Layer_1" xmlns="http://www.w3.org/2000/svg" xmlns:xlink="http://www.w3.org/1999/xlink" x="0px" y="0px"
	 viewBox="0 0 56.1 56.1" style="enable-background:new 0 0 56.1 56.1;" xml:space="preserve">
<style type="text/css">
	.st0{fill:#233E80;}
	.st1{fill:#FFFFFF;}
</style>
<g>
	<circle class="st0" cx="28" cy="28" r="28"/>
	<path class="st1" d="M18.3,18.7c0-0.3,0-0.6,0-0.9c0-2,0-4.1,0-6.1c0-0.9,0.2-1.1,1.1-1.1c5.8,0,11.6,0,17.3,0
		c0.8,0,1.1,0.3,1.1,1.1c0,2.1,0,4.1,0,6.2c0,0.3,0,0.5,0,0.9c0.3,0,0.6,0,0.9,0c1.5,0,3,0,4.5,0c2,0,3.6,1.5,3.6,3.6
		c0,4.2,0,8.4,0,12.5c0,2.1-1.5,3.6-3.7,3.7c-0.8,0-1.5,0-2.3,0c-0.6,0-1-0.2-1-0.9c0-0.6,0.4-0.9,1-0.9c0.8,0,1.5,0,2.3,0
		c1.2,0,1.9-0.7,1.9-1.9c0-1.5,0-3,0-4.5c0-2.6,0-5.2,0-7.8c0-1.4-0.7-2.1-2.1-2.1c-9.9,0-19.8,0-29.7,0c-1.4,0-2.1,0.7-2.1,2.1
		c0,1.7,0,3.5,0,5.2c0,2.2,0,4.4,0,6.6c0,1.8,0.6,2.3,2.4,2.3c0.6,0,1.2,0,1.8,0c0.6,0,1,0.3,1,0.9c0,0.6-0.4,0.8-1,0.9
		c-0.9,0-1.7,0-2.6,0c-2-0.1-3.4-1.6-3.4-3.6c0-4.2,0-8.4,0-12.6c0-2,1.5-3.5,3.5-3.5c1.7,0,3.4,0,5.1,0
		C18,18.7,18.1,18.7,18.3,18.7z M20,18.7c5.4,0,10.7,0,16,0c0-2.2,0-4.3,0-6.4c-5.4,0-10.7,0-16,0C20,14.5,20,16.5,20,18.7z
		 M17.8,32.6c-0.4,0-0.7,0-1,0c-0.6,0-0.9-0.3-1-0.8c0-0.6,0.3-0.9,0.9-0.9c2.1,0,4.1,0,6.2,0c2.9,0,5.8,0,8.7,0c2.6,0,5.2,0,7.7,0
		c0.6,0,1,0.3,1,0.9c0,0.6-0.4,0.8-1,0.8c-0.3,0-0.6,0-1,0c0,0.3,0,0.6,0,0.9c0,3.6,0,7.2,0,10.8c0,1.1-0.2,1.3-1.2,1.3
		c-6,0-12,0-18,0c-1.1,0-1.3-0.2-1.3-1.3c0-3.6,0-7.2,0-10.7C17.8,33.2,17.8,32.9,17.8,32.6z M19.6,43.8c5.7,0,11.3,0,16.9,0
		c0-3.8,0-7.5,0-11.2c-5.7,0-11.3,0-16.9,0C19.6,36.4,19.6,40.1,19.6,43.8z M38.6,22.7c-0.6,0-0.9,0.3-0.9,0.9
		c0,0.6,0.4,0.9,0.9,0.9c1,0,2,0,3,0c0.6,0,0.9-0.3,0.9-0.9c0-0.5-0.4-0.8-0.9-0.8c-0.5,0-1,0-1.4,0C39.6,22.7,39.1,22.7,38.6,22.7z
		 M22.6,35.4c-0.6,0-1.1,0.3-1.1,0.9c0,0.6,0.4,0.9,1,0.9c3.6,0,7.2,0,10.9,0c0.3,0,0.8-0.3,0.9-0.6c0.3-0.6-0.2-1.2-1-1.2
		c-1.8,0-3.6,0-5.4,0C26.2,35.4,24.4,35.4,22.6,35.4z M33.3,41.6c0.6,0,1.1-0.1,1.2-0.8c0.1-0.5-0.4-0.9-1.2-0.9
		c-3.5,0-7.1,0-10.6,0c-0.8,0-1.2,0.3-1.2,0.9c0.1,0.7,0.5,0.8,1.1,0.8c1.8,0,3.5,0,5.3,0C29.8,41.6,31.6,41.6,33.3,41.6z"/>
</g>
</svg>
