<?xml version="1.0" encoding="UTF-8"?>
<svg id="Layer_2" data-name="Layer 2" xmlns="http://www.w3.org/2000/svg" viewBox="0 0 427.34 427.34">
  <defs>
    <style>
      .cls-1 {
        fill: #fff200;
      }
    </style>
  </defs>
  <g id="Layer_1-2" data-name="Layer 1">
    <g>
      <circle class="cls-1" cx="213.67" cy="213.67" r="213.67"/>
      <path d="M99.45,127.14c0-1.43-.03-2.46,0-3.48,.2-6.36,3.83-10.02,10.16-10.08,7.46-.07,14.92-.02,22.38-.02,7.96,0,11.29,3.28,11.4,11.19,0,.68,.06,1.35,.12,2.48,5.42,0,10.77,.08,16.12-.11,.6-.02,1.52-1.48,1.67-2.38,1.01-6.1,1.87-12.23,2.73-18.35,1.3-9.24,6.87-14.64,16.31-15.63,2.05-.22,4.12-.28,6.19-.28,17.91-.02,35.81-.03,53.72,0,2.52,0,5.08,.02,7.55,.44,10.66,1.81,14.83,6.97,16.14,19.35,.49,4.67,1.46,9.29,1.9,13.96,.25,2.59,1.37,3.1,3.75,3.09,18.59-.09,37.19-.06,55.78-.05,15.33,.01,25.85,10.67,25.83,26.07-.03,26.4-.04,52.8-.05,79.2,0,17.76,.02,35.53,.03,53.29,0,16.36-10.27,26.66-26.61,26.66-74.26,0-148.52,0-222.78-.01-11.09,0-19.24-4.97-23.6-15.16-1.48-3.46-1.96-7.58-1.98-11.4-.13-39.83-.09-79.65-.04-119.48,0-5.6,.24-11.21,.5-16.8,.48-10.54,8.38-19.62,18.8-21.72,1.22-.25,2.45-.47,3.98-.76Zm197.83,93.92c.36-45.39-36.42-83.84-83.51-84.02-45.95-.17-83.75,37.35-84.17,82.93-.43,45.85,36.49,84.54,83.55,84.83,46.53,.29,84.63-38.04,84.13-83.75Zm11.37-74.58c-4.81,0-9.62-.05-14.43,.02-4.14,.06-6.77,2.45-6.9,6.1-.13,3.71,2.28,6.6,6.31,6.67,9.84,.19,19.7,.18,29.54,.01,4.05-.07,6.46-2.9,6.35-6.63-.11-3.71-2.69-6.1-6.79-6.16-4.69-.06-9.39-.01-14.09-.02Zm-95.21,147.07c-40.34-.15-72.32-32.12-72.5-72.4-.19-41.53,32.86-71.94,70.29-72.78,44.22-.99,74.98,34.49,74.91,72.21-.08,40.42-32.07,72.75-72.7,72.96Zm1.61-22.01c28.64-1.32,50.75-24.77,49.5-52.5-1.28-28.45-24.98-50.29-53.25-49.07-27.34,1.18-49.59,25.29-48.42,52.18,1.33,30.35,26.11,50.09,52.17,49.38Zm-43.31-47.18c.51,2.53,1.72,4.6,4.61,4.76,2.66,.15,4.27-1.33,5-3.82,.22-.77,.42-1.55,.6-2.33,3.45-14.49,12.14-24.41,26.08-29.58,7.88-2.92,15.92-2.92,23.97-.53,2.62,.77,5.26,.17,6.01-2.43,.53-1.86-.28-4.3-1.06-6.26-.36-.91-2.04-1.34-3.17-1.88-28.34-13.46-61.55,7.38-62.08,38.99,0,1.03-.17,2.1,.03,3.09Z"/>
    </g>
  </g>
</svg>