<svg xmlns="http://www.w3.org/2000/svg" viewBox="0 0 68.69 62"><defs><style>.cls-1{fill:#fff;}</style></defs><g id="Layer_2" data-name="Layer 2"><g id="Ñëîé_1" data-name="Ñëîé 1"><path class="cls-1" d="M68.63,35.12q0-3.67,0-7.35c0-1.83,0-3.66,0-5.5,0-4.33,0-8.81.05-13.21a11.11,11.11,0,0,0-1.62-6.48A5.52,5.52,0,0,0,62.44,0h0c-19.2.13-38.06.13-56,0A5.73,5.73,0,0,0,1.67,2.57,11.18,11.18,0,0,0,0,9.1c.09,6.06.07,12.23.06,18.2q0,3.76,0,7.55c0,1.82,0,3.64,0,5.46,0,4.13,0,8.41,0,12.6a11.09,11.09,0,0,0,1.64,6.54A5.43,5.43,0,0,0,6.28,62c6.72-.13,13.55-.1,20.17-.08,5.26,0,10.51,0,15.77,0,6.62,0,13.46-.05,20.19.08h.1A5.4,5.4,0,0,0,67,59.49a11.22,11.22,0,0,0,1.68-6.57C68.6,47,68.61,41,68.63,35.12ZM63.55,11.21v39.9l-19-19.59ZM36.13,31.54c-.54.6-1.05,1.17-1.59,1.67-.07,0-.28.08-.29.1Q22.34,20.67,10.48,7.93l-.13-.15h48l-21.46,23ZM18.39,46.33q4.71-4.86,9.41-9.75c.46-.49.6-.49,1,0,.87,1,1.78,1.93,2.67,2.83l.82.83c1.44,1.47,2.73,1.45,4.18-.08,1.18-1.24,2.35-2.52,3.51-3.8.32-.36.34-.34.56-.11q6.83,7.11,13.69,14.17l3.83,4H10.6Zm5.71-14.8L5.17,51.09V11.24Z"/></g></g></svg>