<svg xmlns="http://www.w3.org/2000/svg" xmlns:xlink="http://www.w3.org/1999/xlink" viewBox="0 0 56.3 62.92"><defs><style>.cls-1{fill:none;}.cls-2{clip-path:url(#clip-path);}.cls-3{fill:#fff;}</style><clipPath id="clip-path" transform="translate(0 0)"><rect class="cls-1" width="56.3" height="62.92"/></clipPath></defs><g id="Layer_2" data-name="Layer 2"><g id="Ñëîé_1" data-name="Ñëîé 1"><g id="Grupo_7" data-name="Grupo 7"><g class="cls-2"><g id="Grupo_6" data-name="Grupo 6"><path id="Caminho_28" data-name="Caminho 28" class="cls-3" d="M28.15,36.05a18,18,0,1,1,18-18h0a18.05,18.05,0,0,1-18,18m0-30.25A12.22,12.22,0,1,0,40.37,18h0A12.24,12.24,0,0,0,28.15,5.8" transform="translate(0 0)"/><path id="Caminho_29" data-name="Caminho 29" class="cls-3" d="M2.9,62.91a2.9,2.9,0,0,1-2.66-4,30.4,30.4,0,0,1,55.82,0,2.9,2.9,0,1,1-5.33,2.3h0a24.59,24.59,0,0,0-45.16,0A2.9,2.9,0,0,1,2.9,62.91" transform="translate(0 0)"/></g></g></g></g></g></svg>